<svg width="10" height="10" viewBox="0 0 10 10" fill="none" xmlns="http://www.w3.org/2000/svg">
<path d="M4.62861 0.928476C4.76271 0.593218 5.23729 0.593219 5.37139 0.928477L6.33534 3.33835C6.39235 3.48087 6.52587 3.57819 6.679 3.58883L9.14809 3.76045C9.4864 3.78396 9.6438 4.19138 9.40916 4.43624L7.63847 6.28407C7.55131 6.37503 7.51209 6.50174 7.53263 6.62603L7.95219 9.16501C8.00727 9.49832 7.64991 9.74559 7.35741 9.57656L5.20013 8.32994C5.07631 8.25838 4.92369 8.25838 4.79987 8.32994L2.64259 9.57656C2.35009 9.74559 1.99273 9.49832 2.04781 9.16501L2.46737 6.62603C2.48791 6.50174 2.44869 6.37503 2.36153 6.28407L0.590837 4.43624C0.356203 4.19138 0.513598 3.78396 0.851908 3.76045L3.321 3.58883C3.47413 3.57819 3.60765 3.48087 3.66466 3.33835L4.62861 0.928476Z" fill="#FFEF60"/>
</svg>
