<svg width="32" height="32" viewBox="0 0 32 32" fill="none" xmlns="http://www.w3.org/2000/svg">
<g clip-path="url(#clip0_357_26)">
<path d="M31.9766 5.54549C31.9632 5.50025 31.9497 5.45502 31.9318 5.40978C21.3053 5.41431 10.6834 5.40978 0.0613959 5.41431C0.0344821 5.44597 0.0165396 5.47764 0.012054 5.51835C0.012054 13.8282 0.012054 22.1336 0.00756836 30.4434C0.0748527 30.8867 0.317077 31.2893 0.640042 31.5924C0.653498 31.5969 0.684898 31.6015 0.698355 31.606C0.864323 31.7824 1.10206 31.8684 1.32634 31.9498C1.49231 31.9407 1.65379 32.0131 1.81976 31.995H15.0075C15.1331 31.9905 15.2632 32.0131 15.3843 31.9634C15.3888 31.9453 15.3933 31.9136 15.3977 31.8955C15.4022 31.8729 15.4067 31.8231 15.4112 31.796C15.6938 30.2037 15.9674 28.6068 16.268 27.0145L16.2949 26.811C15.0748 26.8064 13.8502 26.811 12.6301 26.8064C12.3341 26.7974 12.029 26.8064 11.733 26.7703C11.2261 26.7476 10.7148 26.7657 10.2079 26.716C9.57989 26.716 8.95639 26.6572 8.3284 26.6572C7.83498 26.6074 7.33708 26.6255 6.83918 26.6029C6.51621 26.5622 6.18427 26.5803 5.85682 26.5667C5.32303 26.5079 4.78027 26.5486 4.24648 26.4898C3.6813 26.4943 3.11611 26.4446 2.55092 26.431C2.5554 26.4265 2.55989 26.4084 2.55989 26.4038C2.74829 26.4084 2.9322 26.3948 3.12059 26.3903C3.53776 26.336 3.9594 26.3722 4.37657 26.3134C4.81167 26.3134 5.24229 26.2546 5.6774 26.2546C6.06316 26.2003 6.45341 26.2319 6.83918 26.1777C7.29222 26.1777 7.7363 26.1189 8.18935 26.1143C8.56166 26.0646 8.93845 26.0917 9.31076 26.042C9.74586 26.0465 10.1765 25.9786 10.6116 25.9832C11.0377 25.9334 11.4728 25.947 11.899 25.9017C11.8586 25.7344 11.8272 25.567 11.7913 25.3996C11.7599 25.2956 11.6343 25.3182 11.5536 25.3046C10.5802 25.1644 9.61129 25.0241 8.6424 24.8884C8.7052 24.8387 8.79042 24.8613 8.86219 24.8522C9.61578 24.7934 10.3649 24.7256 11.1185 24.6713C11.2889 24.6623 11.4549 24.6306 11.6253 24.6261C11.5491 24.3908 11.5042 24.133 11.4011 23.9159C9.79072 23.6671 8.18038 23.4454 6.57452 23.1785C6.99169 23.1107 7.41334 23.079 7.8305 23.0338L7.86638 23.0202C9.19861 22.88 10.5353 22.7216 11.8676 22.5904C13.5586 22.5814 15.2452 22.5859 16.9363 22.5904C16.9901 22.5814 17.0843 22.6085 17.0933 22.5316C17.2324 21.7988 17.3669 21.066 17.506 20.3332C17.6989 19.3154 18.0039 18.3111 18.4749 17.3838C19.215 15.891 20.3858 14.6244 21.8122 13.783C23.1444 12.9959 24.6875 12.6159 26.2216 12.5435C26.7195 12.4983 27.2219 12.5118 27.7153 12.5752C28.0382 12.6521 28.3702 12.7426 28.6259 12.9642C28.8367 13.1361 28.9623 13.3894 29.0565 13.6427C29.2628 14.2444 29.3794 14.8686 29.4781 15.4974C29.4826 15.7507 29.5275 16.0357 29.3929 16.2664C29.2673 16.4926 29.0161 16.6012 28.7784 16.669C27.9126 16.8952 27.0065 16.6826 26.1408 16.8952C25.4276 17.049 24.7637 17.4471 24.3107 18.0216C23.7769 18.6911 23.4943 19.5234 23.3373 20.3558C23.2162 21.0977 23.0637 21.8395 22.9426 22.5859C23.7948 22.5904 24.6516 22.5814 25.5083 22.5904C25.8493 22.5904 26.1991 22.7804 26.3382 23.1061C26.5176 23.5223 26.4772 23.9928 26.4189 24.4316C26.3472 24.9246 26.2305 25.4132 26.0107 25.8655C25.8268 26.25 25.5218 26.6029 25.1046 26.7386C24.8893 26.8245 24.6561 26.8064 24.4273 26.8064C23.6737 26.8064 22.9201 26.8155 22.1666 26.8064C22.0454 27.3629 21.9647 27.9328 21.857 28.4983C21.6597 29.5975 21.4668 30.7013 21.2694 31.805C21.2649 31.8412 21.2605 31.9181 21.2605 31.9588C21.6148 31.9769 21.9692 31.9588 22.3236 31.9679C24.9521 31.9679 27.5852 31.9634 30.2183 31.9679C30.5008 31.9769 30.7879 31.9091 31.0346 31.7688C31.1827 31.7146 31.2724 31.5834 31.4025 31.511C31.5281 31.4386 31.5639 31.2893 31.6716 31.1943C31.7882 30.9863 31.9093 30.7691 31.9183 30.5249C31.9318 30.5249 31.9676 30.5203 31.9856 30.5158C31.9721 22.1924 31.9856 13.8689 31.9766 5.54549Z" fill="url(#paint0_linear_357_26)" stroke="#FCD109" stroke-width="0.094"/>
<path d="M4.19274 0.0719249C4.57402 -0.0502125 4.97324 0.0312125 5.36349 0.00407082C12.6885 0.00859443 20.0135 0.00407082 27.3386 0.00407082C27.7737 -0.0140236 28.155 0.234775 28.5587 0.361436C28.8816 0.49262 29.218 0.596663 29.541 0.736895C29.6083 0.764037 29.6576 0.822844 29.707 0.872603C29.7025 1.46972 29.707 2.07136 29.707 2.673C29.7115 2.83133 29.6845 2.99418 29.7384 3.14798C29.8326 3.16155 29.8819 3.23393 29.9447 3.29273C30.2408 3.42844 30.492 3.6501 30.7611 3.83104C31.1648 4.12055 31.5954 4.37388 31.9902 4.67243C32.0081 4.79005 31.9946 4.91218 31.9588 5.02075C31.9184 5.14741 31.9453 5.28312 31.9318 5.40978C21.3054 5.41431 10.6834 5.40978 0.061481 5.41431C0.0390528 5.26503 0.0794235 5.11575 0.0166247 4.97552C0.00765347 4.8579 -0.0327172 4.7041 0.0794235 4.62267C0.527986 4.30602 1.00346 4.02103 1.44305 3.68629C1.71668 3.50987 1.98133 3.32892 2.24598 3.14798C2.29981 3.05751 2.28187 2.94442 2.28187 2.8449C2.28187 2.18897 2.28187 1.53305 2.28635 0.877127C2.43886 0.678088 2.70351 0.65547 2.91434 0.555951C3.34047 0.393101 3.77109 0.234775 4.19274 0.0719249ZM4.21966 0.148826C3.6455 0.370483 3.06685 0.583093 2.49269 0.804749C2.41643 0.81832 2.37606 0.886174 2.33569 0.944981C2.34018 0.98117 2.34466 1.0445 2.34466 1.08069C2.34018 1.62352 2.34466 2.16636 2.34018 2.70919C2.34466 2.8449 2.32672 2.9806 2.37606 3.10274C2.31775 3.16155 2.25495 3.22036 2.18318 3.26559C1.53277 3.69081 0.904778 4.15222 0.254363 4.57291C0.142222 4.64077 0.0166247 4.73124 0.0525097 4.88052C0.0300816 4.96194 0.0704522 5.0298 0.155679 5.00718C1.56417 4.99813 2.96817 5.01623 4.37665 4.99361C6.47144 4.99361 8.56174 4.99813 10.6565 4.99361L10.6879 4.98004C10.7821 5.00266 10.8763 4.99361 10.975 4.99361C14.7698 4.99361 18.5647 4.99813 22.364 4.99361C23.5572 4.99813 24.7548 4.99361 25.9525 4.99361C27.9262 4.99361 29.9043 5.0117 31.878 5.00266C31.9363 4.98909 31.9543 4.94837 31.9318 4.876C31.9274 4.80362 31.9543 4.7041 31.878 4.65886C31.564 4.50958 31.2949 4.27888 30.9944 4.09794C30.8867 4.00746 30.7476 3.9577 30.6669 3.83557C30.3574 3.65915 30.0703 3.44201 29.7653 3.2475C29.707 3.21131 29.6621 3.1525 29.6128 3.10274C29.6397 3.00775 29.6487 2.9037 29.6487 2.80418C29.6442 2.22969 29.6487 1.65519 29.6442 1.08069C29.6576 0.990217 29.6532 0.886174 29.5724 0.827367C29.0341 0.632852 28.5003 0.424766 27.9666 0.225728C27.8006 0.144303 27.6167 0.0990666 27.4373 0.0719249H4.51122C4.41254 0.0764485 4.31834 0.126208 4.21966 0.148826Z" fill="#F8F3B5" stroke="#F8F3B5" stroke-width="0.094"/>
<path d="M2.34457 1.08069C2.73931 1.24806 3.16096 1.34306 3.56018 1.50591C3.77549 1.59186 3.84277 1.82708 3.93697 2.01708C3.84277 2.11207 3.73063 2.18897 3.61849 2.26135C3.20581 2.54181 2.78416 2.81323 2.37597 3.10274C2.32663 2.9806 2.34457 2.8449 2.34009 2.70919C2.34457 2.16635 2.34009 1.62352 2.34457 1.08069ZM28.4285 1.50591C28.8277 1.34758 29.2449 1.23901 29.6441 1.08069C29.6486 1.65519 29.6441 2.22968 29.6486 2.80418C29.6486 2.9037 29.6396 3.00775 29.6127 3.10274C29.2628 2.85847 28.9084 2.62776 28.5586 2.38801C28.3881 2.26135 28.1997 2.16635 28.0472 2.01255C28.1414 1.82256 28.2132 1.59186 28.4285 1.50591Z" fill="#F7B402" stroke="#F7B402" stroke-width="0.094"/>
<path d="M9.18982 1.69138C9.68323 1.57377 10.235 2.01708 10.1946 2.53729C10.1991 3.04846 9.66529 3.46463 9.17636 3.34702C8.97899 3.27917 8.7906 3.17512 8.66948 2.9987C8.51249 2.75895 8.4766 2.43778 8.6022 2.17541C8.69191 1.92208 8.93413 1.75019 9.18982 1.69138ZM21.9873 1.97637C22.1936 1.74566 22.5211 1.61448 22.8261 1.6959C23.0549 1.76376 23.2792 1.91304 23.3778 2.13922C23.5752 2.52825 23.4227 3.05299 23.0369 3.25655C22.696 3.44654 22.2654 3.35607 22.0052 3.08013C21.7406 2.77705 21.7227 2.27945 21.9873 1.97637Z" fill="#BDA727" stroke="#BDA727" stroke-width="0.094"/>
<path d="M3.61846 2.26135C3.7306 2.18897 3.84274 2.11207 3.93694 2.01707L3.96834 2.04874C3.99974 2.28397 3.97731 2.52372 3.98628 2.75895C3.97282 3.46463 3.99974 4.17483 3.96834 4.88052C2.66302 4.88052 1.3577 4.87147 0.0523881 4.88052C0.0165031 4.73124 0.142101 4.64077 0.254241 4.57291C0.904657 4.15222 1.53264 3.69081 2.18306 3.26559C2.25483 3.22035 2.31763 3.16155 2.37594 3.10274C2.78413 2.81323 3.20578 2.54181 3.61846 2.26135ZM28.0023 2.17088C28.0023 2.11207 28.0158 2.06231 28.0472 2.01255C28.1997 2.16635 28.3881 2.26135 28.5585 2.38801C28.9084 2.62776 29.2628 2.85846 29.6127 3.10274C29.662 3.1525 29.7069 3.21131 29.7652 3.2475C30.0702 3.44201 30.3573 3.65914 30.6668 3.83556C30.7475 3.9577 30.8866 4.00746 30.9942 4.09793C31.2948 4.27888 31.5639 4.50958 31.8779 4.65886C31.9542 4.7041 31.9272 4.80362 31.9317 4.87599C30.6264 4.88052 29.3256 4.87147 28.0203 4.88052C27.9978 4.69957 28.0113 4.51863 28.0068 4.34221C28.0068 3.61843 27.9978 2.89465 28.0023 2.17088Z" fill="#F7E62D" stroke="#F7E62D" stroke-width="0.094"/>
<path d="M31.9318 4.87599C30.6265 4.88052 29.3257 4.87147 28.0204 4.88052C27.9979 4.69957 28.0114 4.51863 28.0069 4.34221C28.0069 3.61843 27.9979 2.89465 28.0024 2.17088C28.0024 2.11207 28.0159 2.06231 28.0473 2.01255C28.1415 1.82256 28.2133 1.59185 28.4286 1.50591C28.8278 1.34758 29.2449 1.23901 29.6442 1.08069C29.6576 0.990215 29.6531 0.886172 29.5724 0.827365C29.0341 0.63285 28.5003 0.424764 27.9665 0.225725C27.8006 0.1443 27.6167 0.0990639 27.4372 0.0719223H4.51121C4.41253 0.0764459 4.31833 0.126206 4.21965 0.148824C3.64549 0.37048 3.06684 0.58309 2.49268 0.804747C2.41642 0.818318 2.37605 0.886172 2.33568 0.944978C2.34017 0.981167 2.34465 1.0445 2.34465 1.08069C2.73939 1.24806 3.16104 1.34306 3.56026 1.50591C3.77557 1.59185 3.84285 1.82708 3.93705 2.01707L3.96845 2.04874C3.99985 2.28397 3.97742 2.52372 3.98639 2.75895C3.97294 3.46463 3.99985 4.17483 3.96845 4.88052C2.66313 4.88052 1.35782 4.87147 0.0525005 4.88052C0.0300724 4.96194 0.070443 5.0298 0.15567 5.00718C1.56416 4.99813 2.96816 5.01623 4.37664 4.99361C6.47143 4.99361 8.56173 4.99813 10.6565 4.99361L10.6879 4.98004C10.7821 5.00265 10.8763 4.99361 10.975 4.99361C14.7698 4.99361 18.5647 4.99813 22.364 4.99361C23.5572 4.99813 24.7548 4.99361 25.9525 4.99361C27.9262 4.99361 29.9043 5.0117 31.878 5.00265C31.9363 4.98908 31.9543 4.94837 31.9318 4.87599ZM8.6021 2.1754C8.69181 1.92208 8.93404 1.75018 9.18972 1.69137C9.68314 1.57376 10.2349 2.01707 10.1945 2.53729C10.199 3.04846 9.6652 3.46463 9.17626 3.34701C8.97889 3.27916 8.7905 3.17512 8.66939 2.9987C8.51239 2.75895 8.4765 2.43777 8.6021 2.1754ZM21.9872 1.97636C22.1935 1.74566 22.521 1.61447 22.826 1.6959C23.0548 1.76375 23.2791 1.91303 23.3778 2.13921C23.5751 2.52824 23.4226 3.05298 23.0368 3.25654C22.6959 3.44653 22.2653 3.35606 22.0052 3.08012C21.7405 2.77704 21.7226 2.27944 21.9872 1.97636Z" fill="url(#paint1_radial_357_26)" stroke="#FCD109" stroke-width="0.094"/>
<path d="M23.1306 6.86367C23.1934 6.87724 22.8036 6.48594 22.8798 6.46785C22.9516 6.4769 23.2239 6.26384 23.5527 6.43754C23.8814 6.61125 23.7998 7.01792 23.7626 7.16901C23.7182 7.3486 23.6047 7.46304 23.515 7.55352C23.4656 7.59423 23.3548 7.65756 23.2875 7.65304C23.3279 7.43138 23.1978 7.39519 23.1889 7.16901L23.1306 6.86367Z" fill="url(#paint2_linear_357_26)" stroke="#FCD109" stroke-width="0.094"/>
<path d="M8.7913 7.1093C8.78233 7.33548 8.65224 7.37167 8.69261 7.59333C8.62533 7.59785 8.51453 7.53452 8.46519 7.49381C8.37548 7.40334 8.26244 7.28889 8.21804 7.1093C8.1808 6.95867 8.09917 6.55199 8.42796 6.37783C8.75676 6.20368 9.02904 6.41719 9.10081 6.40814C9.17706 6.42624 8.78726 6.81753 8.85006 6.80396L8.7913 7.1093Z" fill="url(#paint3_linear_357_26)" stroke="#FCD109" stroke-width="0.094"/>
<path d="M22.5434 9.76149C22.6107 9.70223 22.6555 9.70223 22.7453 9.70223C22.207 10.8784 21.579 12.0545 20.6348 12.9701C20.5338 13.061 20.4271 13.1451 20.3154 13.2225C20.2073 13.3021 20.1014 13.3772 19.996 13.4532C19.8929 13.5256 19.7901 13.598 19.6905 13.674C19.4349 13.8142 19.2106 14.0087 18.928 14.0947C18.4121 14.3435 17.8559 14.5108 17.2952 14.6284C17.0754 14.6646 16.8511 14.7189 16.6269 14.7234C16.3488 14.8049 16.0527 14.7461 15.7701 14.7641C15.6131 14.7913 15.4741 14.7008 15.3216 14.7189C15.1892 14.6999 15.0573 14.6773 14.9259 14.6511C14.7927 14.6235 14.6604 14.5918 14.5294 14.5561C12.4732 13.9092 10.4546 12.3259 9.86658 10.1844C9.84012 10.0401 9.82666 9.89403 9.82666 9.74702C9.88946 9.87368 9.9545 9.99943 10.0218 10.1238C10.8584 11.9636 12.518 13.4111 14.4787 13.8477C14.6379 13.9209 14.8102 13.8952 14.9627 13.9585C15.1018 13.9585 15.2363 13.954 15.3709 13.9992C15.8329 14.0083 16.2949 14.0037 16.757 14.0037C16.8197 14.0083 16.8781 13.9766 16.9409 13.963C17.711 13.9368 18.4655 13.7251 19.168 13.4039C19.3084 13.3397 19.447 13.2709 19.5829 13.1985C19.7018 13.1352 19.8184 13.0669 19.9314 12.9932C20.0427 12.9208 20.1503 12.8439 20.2553 12.7625C21.0856 12.0993 21.8033 11.2398 22.2909 10.2514C22.3833 10.0745 22.4685 9.90987 22.5434 9.76149Z" fill="#BDA727" stroke="#BDA727" stroke-width="0.094"/>
<path d="M21.8123 13.783C23.1445 12.9959 24.6875 12.6159 26.2216 12.5435C26.7195 12.4983 27.2219 12.5118 27.7153 12.5752C28.0383 12.6521 28.3702 12.7426 28.6259 12.9642C28.4958 12.9733 28.3702 12.9144 28.2402 12.8964C27.8723 12.824 27.4911 12.8511 27.1188 12.8421C26.0377 12.8421 24.9477 12.928 23.9026 13.2266C23.3553 13.394 22.8081 13.5885 22.3102 13.878C21.4489 14.3575 20.6729 14.9908 20.0449 15.7508C18.9235 17.049 18.2641 18.6956 17.9457 20.3739C17.7931 21.2741 17.6182 22.1697 17.4791 23.0745C17.2549 23.0971 17.0261 23.0835 16.8018 23.0835C15.815 23.079 14.8281 23.0745 13.8413 23.0654C13.6305 23.0745 13.4241 23.0247 13.2133 23.0383C11.4191 23.0473 9.62482 23.0338 7.83057 23.0338L7.86645 23.0202C9.19868 22.88 10.5354 22.7216 11.8676 22.5904C13.5587 22.5814 15.2453 22.5859 16.9364 22.5904C16.9902 22.5814 17.0844 22.6085 17.0934 22.5316C17.2324 21.7988 17.367 21.066 17.5061 20.3332C17.6989 19.3154 18.004 18.3111 18.475 17.3838C19.2151 15.891 20.3858 14.6244 21.8123 13.783Z" fill="#0D69B3" stroke="#0D69B3" stroke-width="0.094"/>
<path d="M23.9026 13.2266C24.9478 12.928 26.0378 12.8421 27.1188 12.8421C27.4911 12.8511 27.8724 12.824 28.2402 12.8964C28.3703 12.9144 28.4959 12.9733 28.626 12.9642C28.8368 13.1361 28.9624 13.3894 29.0566 13.6427C29.2629 14.2444 29.3795 14.8686 29.4782 15.4974C29.4827 15.7508 29.5276 16.0357 29.393 16.2664C29.2674 16.4926 29.0162 16.6012 28.7785 16.669C27.9127 16.8952 27.0067 16.6826 26.1409 16.8952C25.4277 17.049 24.7638 17.4471 24.3108 18.0216C23.777 18.6911 23.4944 19.5234 23.3374 20.3558C23.2163 21.0977 23.0638 21.8395 22.9427 22.5859C22.8888 22.7533 22.8574 22.9342 22.8261 23.1107C23.6738 23.1242 24.5216 23.1107 25.3694 23.1197C25.6924 23.1107 26.0153 23.1288 26.3383 23.1061C26.5177 23.5223 26.4773 23.9928 26.419 24.4316C26.3473 24.9246 26.2306 25.4132 26.0108 25.8655C25.8269 26.25 25.5219 26.6029 25.1047 26.7386C24.8894 26.8245 24.6562 26.8064 24.4274 26.8064C23.6738 26.8064 22.9202 26.8155 22.1667 26.8064C22.0456 27.3629 21.9648 27.9328 21.8572 28.4983C21.6598 29.5975 21.4669 30.7013 21.2695 31.805C21.2651 31.8412 21.2606 31.9181 21.2606 31.9588V31.9634C19.3003 31.9634 17.3446 31.9679 15.3844 31.9634C15.3889 31.9453 15.3934 31.9136 15.3979 31.8955C15.4023 31.8729 15.4068 31.8231 15.4113 31.796C15.4158 31.8322 15.4203 31.9 15.4248 31.9317C15.5459 31.9453 15.7657 32.0086 15.7971 31.8322C16.1021 30.1675 16.3847 28.4938 16.6987 26.8291C16.5776 26.8019 16.452 26.8019 16.3264 26.8245C16.3084 26.8879 16.2905 26.9512 16.2681 27.0145L16.295 26.811C15.0749 26.8064 13.8503 26.811 12.6302 26.8064C12.3342 26.7974 12.0292 26.8064 11.7331 26.7703C11.2262 26.7476 10.7149 26.7657 10.208 26.716C9.58 26.716 8.9565 26.6572 8.32851 26.6572C7.83509 26.6074 7.33719 26.6255 6.83928 26.6029C6.51632 26.5622 6.18438 26.5803 5.85693 26.5667C5.32314 26.5079 4.78038 26.5486 4.24659 26.4898C3.6814 26.4943 3.11621 26.4446 2.55103 26.431C2.55551 26.4265 2.56 26.4084 2.56 26.4038C2.74839 26.4084 2.9323 26.3948 3.1207 26.3903C3.53786 26.336 3.95951 26.3722 4.37667 26.3134C4.81178 26.3134 5.2424 26.2546 5.67751 26.2546C6.06327 26.2003 6.45352 26.2319 6.83928 26.1777C7.29233 26.1777 7.73641 26.1189 8.18946 26.1143C8.56176 26.0646 8.93856 26.0917 9.31086 26.042C9.74597 26.0465 10.1766 25.9786 10.6117 25.9832C11.0378 25.9334 11.4729 25.947 11.8991 25.9017C11.8587 25.7344 11.8273 25.567 11.7914 25.3996C11.76 25.2956 11.6344 25.3182 11.5537 25.3046C10.5803 25.1644 9.6114 25.0241 8.6425 24.8884C8.7053 24.8387 8.79053 24.8613 8.8623 24.8522C9.61589 24.7934 10.365 24.7256 11.1186 24.6713C11.289 24.6623 11.455 24.6306 11.6254 24.6261C11.5492 24.3908 11.5043 24.133 11.4012 23.9159C9.79082 23.6671 8.18049 23.4454 6.57463 23.1785C6.99179 23.1107 7.41344 23.079 7.83061 23.0338C9.62486 23.0338 11.4191 23.0473 13.2134 23.0383C13.4242 23.0247 13.6305 23.0745 13.8413 23.0654C14.8282 23.0745 15.815 23.079 16.8019 23.0835C17.0261 23.0835 17.2549 23.0971 17.4792 23.0745C17.6182 22.1697 17.7932 21.2741 17.9457 20.3739C18.2642 18.6956 18.9236 17.049 20.045 15.7508C20.673 14.9908 21.449 14.3575 22.3102 13.878C22.8081 13.5885 23.3554 13.394 23.9026 13.2266Z" fill="#107BD4" stroke="#107BD4" stroke-width="0.094"/>
<path d="M22.9427 22.5859C23.795 22.5904 24.6518 22.5814 25.5085 22.5904C25.8494 22.5904 26.1993 22.7804 26.3384 23.1061C26.0154 23.1288 25.6924 23.1107 25.3695 23.1197C24.5217 23.1107 23.6739 23.1242 22.8261 23.1107C22.8575 22.9342 22.8889 22.7533 22.9427 22.5859ZM16.3264 26.8245C16.452 26.8019 16.5776 26.8019 16.6988 26.8291C16.3848 28.4938 16.1022 30.1675 15.7971 31.8322C15.7657 32.0086 15.5459 31.9453 15.4248 31.9317C15.4203 31.9 15.4159 31.8322 15.4114 31.796C15.694 30.2037 15.9676 28.6068 16.2681 27.0145C16.2906 26.9512 16.3085 26.8879 16.3264 26.8245Z" fill="#0D69B3" stroke="#0D69B3" stroke-width="0.094"/>
<path d="M23.3351 6.99033C23.2992 6.92248 23.2947 6.84105 23.2947 6.76415L23.2588 6.76867C23.205 6.56963 23.039 6.37964 22.8237 6.3706C22.6623 6.35702 22.4604 6.36155 22.3662 6.51535C22.1868 6.75963 22.272 7.07175 22.263 7.34769C22.263 7.36579 22.2675 7.39745 22.2675 7.41555C22.2675 7.60102 22.2451 7.78196 22.2137 7.96291C22.1868 8.01719 22.1733 8.076 22.1733 8.13933C22.0971 8.56454 21.9446 8.98524 21.7382 9.36975C21.6978 9.42403 21.6664 9.48284 21.653 9.54617C21.5184 9.7814 21.3569 9.99853 21.191 10.2157C21.1641 10.2383 21.1416 10.2654 21.1192 10.2926C21.0026 10.4373 20.877 10.5595 20.7469 10.6861C20.7155 10.7042 20.6931 10.7268 20.6662 10.7449C20.5136 10.8942 20.3432 11.0344 20.1593 11.1475C20.1369 11.1611 20.1144 11.1792 20.0875 11.1973C18.9392 11.9618 17.5442 12.2784 16.185 12.292C15.0322 12.3282 13.8704 12.0794 12.8298 11.5773C12.8118 11.5682 12.767 11.5501 12.749 11.5411C12.5741 11.4461 12.3947 11.3647 12.2332 11.247C12.1973 11.2289 12.1614 11.2063 12.121 11.1882C11.9551 11.0887 11.7981 10.9802 11.65 10.8535C11.6007 10.8083 11.5469 10.7721 11.4931 10.7314C11.3316 10.6002 11.1656 10.4599 11.0265 10.3016C10.9907 10.2609 10.9548 10.2247 10.9189 10.1885C10.43 9.67735 10.0487 9.05309 9.84683 8.37455C9.65394 7.83624 9.68086 7.24817 9.65843 6.68272C9.49695 6.43393 9.15604 6.29369 8.8869 6.4475C8.77476 6.52892 8.76131 6.6782 8.67608 6.78224C8.53702 8.27503 9.1695 9.7633 10.1788 10.8399C10.1788 10.8761 10.1967 10.8987 10.2281 10.9123C10.4075 11.0797 10.5825 11.2516 10.7619 11.4144C10.7933 11.4461 10.8292 11.4777 10.8695 11.5049C11.049 11.6542 11.2419 11.7899 11.4303 11.9301C11.4661 11.9573 11.502 11.9799 11.5424 12.0025C11.7891 12.1472 12.0224 12.3191 12.287 12.4187C12.3049 12.4322 12.3363 12.4548 12.3543 12.4639C13.2066 12.8755 14.1261 13.156 15.0681 13.2465C15.1713 13.2465 15.2744 13.2555 15.3776 13.2781C15.8262 13.3053 16.2747 13.2917 16.7233 13.2827C18.1093 13.1605 19.5403 12.8213 20.6976 11.998L20.711 12.0161C20.7469 11.9844 20.7783 11.9573 20.8142 11.9301C20.9981 11.7944 21.1775 11.6496 21.3569 11.5004C21.3973 11.4687 21.4422 11.4325 21.4825 11.3918C21.6799 11.1747 21.9087 10.9756 22.0746 10.7268L22.1016 10.7404C22.115 10.7178 22.1374 10.6725 22.1509 10.6499C22.3034 10.4418 22.4425 10.2247 22.577 10.0076C22.586 9.994 22.6084 9.97139 22.6174 9.95782L22.5995 9.93972C22.6129 9.92163 22.6443 9.88544 22.6578 9.86734C22.9045 9.3607 23.1243 8.83144 23.2005 8.27051C23.2319 8.25694 23.2499 8.2298 23.2499 8.19813C23.2544 8.01719 23.3172 7.84529 23.2992 7.66435C23.3396 7.44269 23.3441 7.21651 23.3351 6.99033Z" fill="white" stroke="white" stroke-width="0.094"/>
<mask id="mask0_357_26" style="mask-type:luminance" maskUnits="userSpaceOnUse" x="8" y="6" width="16" height="8">
<path d="M23.3351 6.99033C23.2992 6.92248 23.2947 6.84105 23.2947 6.76415L23.2588 6.76867C23.205 6.56963 23.039 6.37964 22.8237 6.3706C22.6623 6.35702 22.4604 6.36155 22.3662 6.51535C22.1868 6.75963 22.272 7.07175 22.263 7.34769C22.263 7.36579 22.2675 7.39745 22.2675 7.41555C22.2675 7.60102 22.2451 7.78196 22.2137 7.96291C22.1868 8.01719 22.1733 8.076 22.1733 8.13933C22.0971 8.56454 21.9446 8.98524 21.7382 9.36975C21.6978 9.42403 21.6664 9.48284 21.653 9.54617C21.5184 9.7814 21.3569 9.99853 21.191 10.2157C21.1641 10.2383 21.1416 10.2654 21.1192 10.2926C21.0026 10.4373 20.877 10.5595 20.7469 10.6861C20.7155 10.7042 20.6931 10.7268 20.6662 10.7449C20.5136 10.8942 20.3432 11.0344 20.1593 11.1475C20.1369 11.1611 20.1144 11.1792 20.0875 11.1973C18.9392 11.9618 17.5442 12.2784 16.185 12.292C15.0322 12.3282 13.8704 12.0794 12.8298 11.5773C12.8118 11.5682 12.767 11.5501 12.749 11.5411C12.5741 11.4461 12.3947 11.3647 12.2332 11.247C12.1973 11.2289 12.1614 11.2063 12.121 11.1882C11.9551 11.0887 11.7981 10.9802 11.65 10.8535C11.6007 10.8083 11.5469 10.7721 11.4931 10.7314C11.3316 10.6002 11.1656 10.4599 11.0265 10.3016C10.9907 10.2609 10.9548 10.2247 10.9189 10.1885C10.43 9.67735 10.0487 9.05309 9.84683 8.37455C9.65394 7.83624 9.68086 7.24817 9.65843 6.68272C9.49695 6.43393 9.15604 6.29369 8.8869 6.4475C8.77476 6.52892 8.76131 6.6782 8.67608 6.78224C8.53702 8.27503 9.1695 9.7633 10.1788 10.8399C10.1788 10.8761 10.1967 10.8987 10.2281 10.9123C10.4075 11.0797 10.5825 11.2516 10.7619 11.4144C10.7933 11.4461 10.8292 11.4777 10.8695 11.5049C11.049 11.6542 11.2419 11.7899 11.4303 11.9301C11.4661 11.9573 11.502 11.9799 11.5424 12.0025C11.7891 12.1472 12.0224 12.3191 12.287 12.4187C12.3049 12.4322 12.3363 12.4548 12.3543 12.4639C13.2066 12.8755 14.1261 13.156 15.0681 13.2465C15.1713 13.2465 15.2744 13.2555 15.3776 13.2781C15.8262 13.3053 16.2747 13.2917 16.7233 13.2827C18.1093 13.1605 19.5403 12.8213 20.6976 11.998L20.711 12.0161C20.7469 11.9844 20.7783 11.9573 20.8142 11.9301C20.9981 11.7944 21.1775 11.6496 21.3569 11.5004C21.3973 11.4687 21.4422 11.4325 21.4825 11.3918C21.6799 11.1747 21.9087 10.9756 22.0746 10.7268L22.1016 10.7404C22.115 10.7178 22.1374 10.6725 22.1509 10.6499C22.3034 10.4418 22.4425 10.2247 22.577 10.0076C22.586 9.994 22.6084 9.97139 22.6174 9.95782L22.5995 9.93972C22.6129 9.92163 22.6443 9.88544 22.6578 9.86734C22.9045 9.3607 23.1243 8.83144 23.2005 8.27051C23.2319 8.25694 23.2499 8.2298 23.2499 8.19813C23.2544 8.01719 23.3172 7.84529 23.2992 7.66435C23.3396 7.44269 23.3441 7.21651 23.3351 6.99033Z" fill="white"/>
</mask>
<g mask="url(#mask0_357_26)">
<path d="M8.33154 6.83789C8.69533 6.95279 9.53055 6.66373 9.76694 6.92836M8.54057 7.95341C8.88911 7.83127 9.63641 7.54176 9.94592 7.7123M8.89942 9.06938C9.06808 9.12457 9.40002 8.82601 9.56464 8.73871C9.81 8.60843 10.0616 8.50891 10.3348 8.46639M9.4377 10.2455C9.61129 9.99672 9.81942 9.78954 10.0702 9.61312C10.3191 9.43806 10.9996 8.96941 11.2916 9.13M9.94637 11.0901C10.1437 10.9322 10.224 10.6522 10.4308 10.4862C10.6811 10.2853 11.0651 10.2491 11.3217 10.1252M10.791 11.7157C10.8502 11.2783 11.2903 10.7508 11.7106 10.7884M11.4414 12.3264C11.6635 12.3038 11.8514 11.8025 12.0017 11.6329C12.2269 11.3787 12.4597 11.3 12.7575 11.2104M12.7275 12.8692C12.7131 12.5526 13.0374 11.6456 13.4151 11.6931M13.6842 13.1709C13.6685 12.7968 13.8601 11.6718 14.3122 11.6329M14.6711 13.7739C14.5854 13.251 14.5908 12.4942 14.9999 12.1151M15.897 13.8947C15.8512 13.4586 15.422 12.5774 15.897 12.2359M17.2131 13.593C17.0081 13.3532 16.8888 12.4074 16.974 12.1454M18.4691 13.3817C18.3107 13.0922 18.1147 12.8199 18.055 12.4838C18.0191 12.283 18.0819 11.9966 18.0505 11.8437M19.5156 12.9294C19.1724 12.7032 19.0773 11.8713 19.1868 11.5121M20.5324 12.477C20.2884 11.9491 20.0283 11.5397 20.0242 10.939M21.5193 11.5121C21.1402 11.2547 20.6562 10.7874 20.7119 10.2758M22.5658 10.6979C21.9898 10.569 21.2981 10.0492 20.951 9.58191M23.0444 9.70269C22.6286 9.61267 21.2555 9.07255 21.3399 8.52655M23.493 8.64733C22.9139 8.43336 22.0715 8.24066 21.609 7.83308M23.7917 7.68199C23.427 7.71366 22.9044 7.53543 22.5335 7.47074C22.1217 7.39927 21.74 7.25904 21.3394 7.16902M23.4328 6.74742C22.7295 6.78994 22.0692 6.54702 21.4291 6.32536" stroke="#D1D1D1" stroke-width="2"/>
</g>
</g>
<defs>
<linearGradient id="paint0_linear_357_26" x1="15.9966" y1="5.4097" x2="15.9966" y2="31.9978" gradientUnits="userSpaceOnUse">
<stop stop-color="#F7E830"/>
<stop offset="1" stop-color="#FDCB06"/>
</linearGradient>
<radialGradient id="paint1_radial_357_26" cx="0" cy="0" r="1" gradientUnits="userSpaceOnUse" gradientTransform="translate(15.8592 17.5365) scale(21.4449 21.6265)">
<stop offset="0.596" stop-color="#F29405"/>
<stop offset="0.736" stop-color="#F7D01E"/>
<stop offset="1" stop-color="#FDCB06"/>
</radialGradient>
<linearGradient id="paint2_linear_357_26" x1="23.3329" y1="6.36928" x2="23.3405" y2="7.62833" gradientUnits="userSpaceOnUse">
<stop stop-color="#FADA1C"/>
<stop offset="1" stop-color="#FDCB06"/>
</linearGradient>
<linearGradient id="paint3_linear_357_26" x1="8.64762" y1="6.30895" x2="8.64" y2="7.568" gradientUnits="userSpaceOnUse">
<stop stop-color="#FADA1C"/>
<stop offset="1" stop-color="#FDCB06"/>
</linearGradient>
<clipPath id="clip0_357_26">
<rect width="32" height="32" fill="white"/>
</clipPath>
</defs>
</svg>
