<svg width="32" height="32" viewBox="0 0 32 32" fill="none" xmlns="http://www.w3.org/2000/svg">
<path d="M0.187744 18.3929C0.656891 21.7712 2.25228 24.8681 4.69209 27.3079L10.1349 21.8651C10.1349 16.1408 13.1378 10.8857 18.1115 7.97653L0.187744 18.3929Z" fill="#9B65C3"/>
<path d="M10.1349 21.8651C7.31965 21.8651 4.59822 21.1143 2.15841 19.7067C1.50152 19.3314 0.844633 18.8622 0.187744 18.3929C0.656891 21.7712 2.25228 24.8681 4.69209 27.3079L10.1349 21.8651Z" fill="#9B65C3"/>
<path d="M10.1347 21.8651L4.69189 27.3079C7.13171 29.7477 10.2286 31.3431 13.6069 31.8123L23.9294 13.8885C21.1141 18.7684 15.859 21.8651 10.1347 21.8651Z" fill="#BE63C5"/>
<path d="M12.2932 29.8416C10.8855 27.4018 10.1347 24.6804 10.1347 21.8651L4.69189 27.3079C7.13171 29.7477 10.2286 31.3431 13.6069 31.8123C13.1376 31.1554 12.6684 30.4985 12.2932 29.8416Z" fill="#BF63C6"/>
<path d="M30.4985 0.844627L18.1115 7.97653C13.1378 10.7918 7.1319 10.7918 2.15841 7.97653C0.750759 10.4163 0 13.2316 0 16.0469C0 16.7977 0.0938706 17.6423 0.187741 18.3929C0.84463 18.8622 1.50152 19.3314 2.15841 19.7067C4.59822 21.1143 7.31964 21.8651 10.1349 21.8651L30.7801 1.2199C30.6862 1.12603 30.5924 1.03216 30.4985 0.844627Z" fill="#3278B1"/>
<path d="M2.15841 19.7067C4.59822 21.1143 7.31965 21.8651 10.1349 21.8651C10.1349 16.1408 13.1378 10.8857 18.1115 7.97653L0.187744 18.2992C0.844633 18.8622 1.50152 19.3314 2.15841 19.7067Z" fill="#3278B2"/>
<path d="M2.15841 7.97653C0.750759 10.4163 0 13.2316 0 16.0469C0 16.7977 0.0938706 17.6423 0.187741 18.3929L18.1115 7.97653C13.2316 10.8857 7.1319 10.8857 2.15841 7.97653Z" fill="#45A4EC"/>
<path d="M30.7801 1.21991C30.4985 0.9385 30.311 0.750759 30.0294 0.563018C29.4664 0.187741 28.7156 0 28.0587 0H15.9531C10.2289 0 4.97374 3.0967 2.15845 7.97653C7.13194 10.7918 13.1378 10.7918 18.1115 7.97653C13.1378 10.7918 10.135 16.1408 10.135 21.8651C15.8592 21.8651 21.1143 18.8622 24.0235 13.8885L31.1554 1.50152C30.9679 1.40765 30.874 1.31378 30.7801 1.21991Z" fill="#19BB7D"/>
<path d="M18.1115 7.97638L30.4985 0.844477C30.311 0.750606 30.2171 0.562865 30.0294 0.468994L2.15845 7.97638C7.13194 10.8855 13.2317 10.8855 18.1115 7.97638Z" fill="#08C7FB"/>
<path d="M27.9648 0H15.9531C10.2289 0 4.97374 3.0967 2.15845 7.97653L30.0294 0.469147C29.3725 0.187741 28.7156 0 27.9648 0Z" fill="#59F2F6"/>
<path d="M24.0234 13.8885L31.1553 1.50151C31.0614 1.40764 30.9678 1.31377 30.8739 1.12603L10.2288 21.7712C10.2288 24.5865 10.9795 27.3079 12.387 29.7477C12.7624 30.4046 13.2316 31.0615 13.7007 31.7184C14.4515 31.8123 15.2023 31.9061 15.953 31.9061C18.7683 31.9061 21.4897 31.1554 23.9295 29.7477C21.1143 24.8681 21.1143 18.7684 24.0234 13.8885Z" fill="#DA3757"/>
<path d="M10.135 21.8651C10.135 24.6804 10.8858 27.4018 12.2934 29.8416C12.6687 30.4985 13.1378 31.1554 13.6072 31.8123L23.9297 13.8885C21.1144 18.7684 15.8593 21.8651 10.135 21.8651Z" fill="#D33C4E"/>
<path d="M24.0236 13.8885L13.7009 31.8123C14.4517 31.9061 15.2024 32 16.0471 32C18.8624 32 21.5838 31.2492 24.0236 29.8416C21.1144 24.8681 21.1144 18.7684 24.0236 13.8885Z" fill="#EE5A24"/>
<path d="M31.4371 1.97066C31.1554 1.50152 30.874 1.12603 30.4986 0.844627L18.1115 7.97653C13.1378 10.7918 10.135 16.1408 10.135 21.8651C15.8593 21.8651 21.1144 18.8622 24.0235 13.8885C21.2082 18.8622 21.2082 24.8681 24.0235 29.8416C28.9034 27.0263 32.0001 21.7712 32.0001 16.1408V4.0352C32.0001 3.28444 31.8123 2.62755 31.4371 1.97066Z" fill="#8BDF55"/>
<path d="M30.4986 0.844627L18.1115 7.97653C13.1378 10.7918 10.135 16.1408 10.135 21.8651L30.7802 1.2199C30.6863 1.12603 30.5924 0.938498 30.4986 0.844627Z" fill="#25C16F"/>
<path d="M10.135 21.8651C15.8593 21.8651 21.1144 18.8622 24.0235 13.8885L31.1554 1.50151C31.0616 1.40764 30.9679 1.31377 30.874 1.12603L10.135 21.8651Z" fill="#8BDF55"/>
<path d="M31.1555 1.50152L24.0236 13.8885C21.2083 18.8622 21.2083 24.8681 24.0236 29.8416L31.531 1.97067C31.3432 1.78292 31.2494 1.68905 31.1555 1.50152Z" fill="#FFBB00"/>
<path d="M24.0234 29.8416C28.9971 27.0263 32 21.7712 32 16.0469V4.0352C32 3.28444 31.8122 2.62755 31.437 1.97066L24.0234 29.8416Z" fill="#FFA800"/>
</svg>
