<svg width="24" height="24" viewBox="0 0 24 24" fill="none" xmlns="http://www.w3.org/2000/svg">
<g clip-path="url(#clip0_53_1179)">
<path d="M20.1891 12.33H20.1881H20.1891ZM0.10612 14.677C3.23612 17.532 7.37812 19.25 11.9761 19.25C15.2561 19.25 19.0721 18.21 21.6981 16.25C22.1291 15.927 21.7541 15.435 21.3151 15.637C18.3691 16.895 15.1691 17.508 12.2551 17.508C7.93712 17.508 3.76212 16.306 0.37812 14.322C0.0821201 14.145 -0.14088 14.452 0.10612 14.677Z" fill="#FF9800"/>
<path d="M17.1809 5.15999C17.1809 5.02399 17.1079 4.95799 16.9809 4.95799H16.2399L16.2059 4.95699C16.1019 4.95699 16.0059 4.98699 15.9269 5.03899C15.8709 5.08699 15.8149 5.19299 15.7669 5.35399L14.3859 10.757L13.1249 5.35399C13.0939 5.19999 13.0369 5.08699 12.9739 5.03899C12.9099 4.98299 12.8059 4.95799 12.6539 4.95799H12.0179L11.9829 4.95699C11.8814 4.95654 11.7819 4.98498 11.6959 5.03899C11.6329 5.08699 11.5849 5.19299 11.5449 5.35399L10.2999 10.693L8.95792 5.35399C8.91092 5.19999 8.86292 5.08699 8.79792 5.03899C8.74292 4.98299 8.63892 4.95799 8.48792 4.95799H7.70492C7.57792 4.95799 7.51392 5.03099 7.51392 5.15999L7.51492 5.16599C7.52692 5.27999 7.55192 5.38999 7.58592 5.48399L9.46092 11.719C9.50892 11.872 9.56492 11.985 9.62892 12.033C9.69292 12.09 9.78892 12.114 9.93292 12.114L10.6189 12.113C10.7619 12.113 10.8739 12.089 10.9389 12.032C11.0019 11.975 11.0489 11.87 11.0889 11.709L12.3189 6.51599L13.5569 11.717C13.5879 11.879 13.6439 11.984 13.7069 12.04C13.7719 12.097 13.8759 12.121 14.0269 12.121H14.7129L14.7419 12.122C14.8439 12.122 14.9389 12.092 15.0169 12.04C15.0809 11.992 15.1369 11.887 15.1849 11.726L17.1079 5.49199L17.1049 5.49999C17.1311 5.43198 17.1508 5.36167 17.1639 5.28999C17.1719 5.24099 17.1809 5.20099 17.1809 5.15999ZM21.6819 10.202V10.224C21.6822 10.3732 21.6443 10.5199 21.5716 10.6502C21.4989 10.7805 21.394 10.8899 21.2669 10.968C20.9959 11.146 20.6039 11.235 20.1019 11.235C19.7819 11.235 19.4709 11.203 19.1519 11.138C18.85 11.0756 18.5557 10.9811 18.2739 10.856C18.1939 10.824 18.1219 10.791 18.0739 10.775C18.0275 10.7593 17.9789 10.7511 17.9299 10.751C17.8109 10.751 17.7469 10.832 17.7469 11.001V11.412C17.7479 11.494 17.7649 11.572 17.7949 11.638C17.8269 11.711 17.9139 11.792 18.0419 11.863C18.2499 11.984 18.5609 12.089 18.9599 12.186C19.3622 12.2821 19.7743 12.3304 20.1879 12.33C20.5747 12.3324 20.9595 12.2754 21.3289 12.161C21.6719 12.056 21.9669 11.911 22.2149 11.709C22.4619 11.515 22.6539 11.274 22.7979 10.999C22.9329 10.725 23.0049 10.41 23.0049 10.063C23.0049 9.64399 22.8849 9.26499 22.6379 8.93399C22.3909 8.60399 21.9749 8.34499 21.4009 8.15899L20.2669 7.79699C19.8439 7.65999 19.5489 7.50599 19.3899 7.35199C19.3121 7.27857 19.2505 7.18965 19.2091 7.09095C19.1678 6.99225 19.1476 6.88597 19.1499 6.77899C19.1499 6.44899 19.2779 6.21499 19.5249 6.06199C19.7719 5.90799 20.1319 5.83699 20.5869 5.83699H20.6429C21.1517 5.83498 21.655 5.94205 22.1189 6.15099L22.1149 6.14899C22.2095 6.20239 22.3139 6.23606 22.4219 6.24799C22.5419 6.24799 22.6059 6.15899 22.6059 5.98899V5.61399C22.612 5.51993 22.5871 5.42648 22.5349 5.34799L22.5339 5.34599C22.4702 5.26233 22.3885 5.19399 22.2949 5.14599C22.1893 5.08455 22.0768 5.03556 21.9599 4.99999C21.8098 4.95187 21.6581 4.90918 21.5049 4.87199C21.3369 4.83999 21.1699 4.80699 20.9869 4.78299C20.8095 4.7604 20.6308 4.74971 20.4519 4.75099C20.1009 4.75099 19.7659 4.79199 19.4459 4.88799C19.1259 4.98399 18.8559 5.12099 18.6159 5.30699C18.3791 5.48354 18.183 5.70897 18.0409 5.96799C17.8934 6.24288 17.819 6.55107 17.8249 6.86299C17.8269 7.30599 17.9769 7.71399 18.2249 8.03299C18.4879 8.39599 18.9189 8.66999 19.5019 8.85399L20.6589 9.21799C21.0499 9.34699 21.3219 9.48499 21.4659 9.63699C21.5999 9.77699 21.6819 9.96899 21.6819 10.18V10.202Z" fill="white"/>
<path d="M22.4241 18.169C23.8291 16.976 24.1961 14.484 23.9091 14.121C23.6221 13.766 21.1551 13.46 19.6551 14.524C19.4231 14.694 19.4631 14.92 19.7181 14.888C20.5721 14.783 22.4561 14.558 22.7921 14.992C23.1271 15.42 22.4171 17.219 22.0971 18.017C22.0011 18.258 22.2091 18.355 22.4241 18.169Z" fill="#FF9800"/>
<path d="M4.51992 7.944C4.2397 7.90334 3.95706 7.88163 3.67392 7.879C2.85192 7.879 2.20592 8.089 1.71892 8.508C1.23192 8.926 0.99292 9.484 0.99292 10.169C0.99292 10.815 1.19192 11.331 1.58292 11.718C1.97392 12.105 2.50892 12.298 3.17892 12.298C4.12092 12.298 4.90392 11.927 5.52592 11.186L5.54192 11.223C5.61792 11.383 5.70092 11.538 5.77392 11.661L5.77992 11.671C5.86292 11.803 5.95692 11.928 6.06092 12.04C6.13992 12.113 6.21992 12.154 6.29992 12.154H6.30092C6.37568 12.151 6.4478 12.1255 6.50792 12.081L7.01092 11.743C7.11492 11.662 7.16292 11.581 7.16292 11.501C7.16204 11.4353 7.14263 11.3712 7.10692 11.316C7.00744 11.1285 6.92188 10.934 6.85092 10.734C6.78629 10.5007 6.75663 10.259 6.76292 10.017L6.74692 10.018V7.404C6.74692 6.517 6.52392 5.855 6.08492 5.421C5.63792 4.985 4.94392 4.767 3.99392 4.767H3.94792C3.52192 4.767 3.10792 4.823 2.74792 4.92C2.39989 5.00131 2.06258 5.12314 1.74292 5.283L1.73892 5.284C1.6536 5.3218 1.57827 5.37898 1.51892 5.451C1.47892 5.508 1.46292 5.605 1.46292 5.734V6.129C1.46292 6.298 1.51892 6.379 1.63092 6.379H1.63192C1.67479 6.37731 1.71721 6.36957 1.75792 6.356L1.77392 6.352C1.86404 6.32375 1.95222 6.28968 2.03792 6.25C2.31692 6.137 2.60492 6.048 2.89992 5.975C3.19492 5.902 3.48292 5.871 3.76292 5.871C4.37692 5.871 4.80792 5.991 5.06292 6.242C5.31092 6.492 5.43792 6.919 5.43792 7.532V8.121C5.13463 8.04873 4.82834 7.98967 4.51992 7.944ZM5.45492 9.025V9.363C5.45492 9.637 5.42192 9.871 5.37492 10.064C5.32525 10.255 5.23217 10.4319 5.10292 10.581C4.89975 10.8163 4.63838 10.9943 4.34492 11.097C4.0807 11.19 3.80301 11.239 3.52292 11.242C3.15492 11.242 2.87592 11.145 2.68492 10.943C2.48492 10.75 2.38992 10.467 2.38992 10.088C2.38992 9.685 2.51692 9.379 2.77992 9.162C3.04392 8.944 3.43492 8.839 3.96992 8.839C4.23492 8.839 4.49492 8.857 4.71992 8.887L4.75392 8.891C5.00792 8.925 5.25692 8.973 5.45492 9.025Z" fill="white"/>
</g>
<defs>
<clipPath id="clip0_53_1179">
<rect width="24" height="24" fill="white"/>
</clipPath>
</defs>
</svg>
