<svg width="32" height="32" viewBox="0 0 32 32" fill="none" xmlns="http://www.w3.org/2000/svg">
<path d="M21.86 10.9475V10.88H21.75V10.9475H21.86ZM22.595 12.7175V12.75H22.6725C22.6732 12.7131 22.6808 12.6767 22.695 12.6425V12.575C22.6625 12.575 22.63 12.6275 22.6 12.72L22.595 12.7175ZM19.725 14.9475C19.5641 14.672 19.3664 14.4197 19.1375 14.1975C19.1375 14.1175 19.2625 14 19.535 13.8425L20.3125 13.165C20.5183 12.8438 20.6252 12.4691 20.62 12.0875V11.9725C20.59 11.6275 20.34 11.35 19.87 11.1375C19.59 10.9492 19.09 10.845 18.37 10.825C17.5532 10.9342 16.7556 11.1563 16 11.485C15.7083 11.6926 15.4053 11.8837 15.0925 12.0575V12.115C15.1252 12.1089 15.156 12.0952 15.1825 12.075C15.1903 12.0731 15.1985 12.073 15.2064 12.0748C15.2143 12.0766 15.2217 12.0801 15.228 12.0852C15.2343 12.0903 15.2393 12.0967 15.2427 12.1041C15.2461 12.1114 15.2477 12.1195 15.2475 12.1275L15.305 12.0975H15.3325V12.1225C15.1436 12.3153 14.9311 12.4833 14.7 12.6225L14.7325 12.6825H14.705L14.635 12.6575C14.635 12.6775 14.6075 12.6925 14.55 12.6975V12.7225L14.6175 12.8075C14.5838 12.8067 14.5506 12.799 14.52 12.785C14.4074 12.8008 14.3044 12.8567 14.23 12.9425L14.27 12.77C14.3983 12.2345 14.4952 11.6919 14.56 11.145V11.115C14.4521 11.0436 14.3566 10.9549 14.2775 10.8525C14.2802 10.8118 14.2802 10.7708 14.2775 10.73V10.705H14.25C13.9433 11.1667 13.3508 11.9542 12.4725 13.0675C11.8058 13.8592 11.4608 14.2992 11.4375 14.3875C11.165 14.67 11.035 14.84 11.0475 14.8875C10.975 14.935 10.945 14.98 10.9575 15.0325C10.9534 15.0341 10.949 15.0347 10.9446 15.0344C10.9403 15.034 10.936 15.0327 10.9322 15.0306C10.9284 15.0285 10.9251 15.0255 10.9226 15.022C10.92 15.0184 10.9183 15.0143 10.9175 15.01C10.8604 15.103 10.7848 15.1832 10.6953 15.2456C10.6058 15.3079 10.5044 15.3512 10.3975 15.3725L10.1475 15.4275C10.1396 15.4287 10.1321 15.4315 10.1253 15.4357C10.1186 15.44 10.1128 15.4456 10.1084 15.4521C10.1039 15.4587 10.1008 15.4661 10.0994 15.474C10.098 15.4818 10.0981 15.4898 10.1 15.4975V15.5275L10.19 15.5075V15.5325L9.98496 15.6125L9.62246 15.6975H9.43246C9.40496 15.725 9.58496 15.6975 9.51496 15.7125L9.26496 15.7675C9.11996 15.8 9.04246 15.7875 9.01496 15.73H8.98746C8.99188 15.7498 8.99188 15.7703 8.98746 15.79L9.01746 15.75L8.82746 15.795C8.81413 15.7067 8.55663 15.385 8.05496 14.83C8.05496 14.7225 8.22246 14.5675 8.58496 14.365L9.60496 13.4675C9.83329 13.1742 9.96913 12.7034 10.0125 12.055L9.99996 11.9075C9.95996 11.45 9.62996 11.0825 8.99996 10.7975C8.63246 10.5475 7.96996 10.415 7.01496 10.395C5.9504 10.5398 4.9102 10.8274 3.92246 11.25C3.53938 11.5236 3.14034 11.774 2.72746 12V12.08C2.77033 12.0727 2.8112 12.0566 2.84746 12.0325C2.85745 12.0299 2.86792 12.0295 2.87806 12.0315C2.8882 12.0335 2.89775 12.0378 2.90596 12.0441C2.91418 12.0504 2.92084 12.0585 2.92543 12.0677C2.93003 12.077 2.93243 12.0872 2.93246 12.0975L3.01246 12.0525H3.05246V12.09C2.79971 12.3377 2.51957 12.5558 2.21746 12.74L2.26246 12.81H2.22496L2.13996 12.78C2.13996 12.8025 2.10246 12.82 2.01996 12.8275V12.87L2.11246 12.9725C2.06959 12.9722 2.02718 12.9637 1.98746 12.9475C1.87567 12.9708 1.77021 13.0178 1.6783 13.0856C1.58639 13.1533 1.51021 13.2401 1.45496 13.34L1.49996 13.41C1.57695 13.3261 1.66632 13.2545 1.76496 13.1975V13.3125C1.72256 13.3215 1.68198 13.3375 1.64496 13.36L1.74996 13.5C1.9308 13.3087 2.13489 13.1407 2.35746 13C2.46746 13.0275 2.52496 13.0625 2.52746 13.1H2.61246C3.15327 12.6869 3.75561 12.3613 4.39746 12.135V12.215C4.28746 12.3817 4.21329 12.465 4.17496 12.465C4.17764 12.5191 4.19782 12.5709 4.23246 12.6125C4.24246 12.7125 3.97496 13.3875 3.42996 14.6375C2.20496 17.5259 1.17329 19.6642 0.334961 21.0525C0.342654 21.0934 0.359774 21.1319 0.384961 21.165C0.524637 21.1423 0.658196 21.0912 0.777461 21.015H0.822461V21.095H0.899961L0.979961 21.05C0.979961 21.0725 1.00746 21.085 1.06246 21.08V21.16C1.0525 21.2818 1.01115 21.399 0.942461 21.5C0.817143 21.6822 0.725681 21.8855 0.672461 22.1V22.1375H0.749961C1.05446 21.807 1.31189 21.436 1.51496 21.035C2.29094 20.8281 3.04459 20.5451 3.76496 20.19C4.19226 20.1781 4.60571 20.036 4.94996 19.7825V19.74L4.75496 19.7975H4.70996V19.755C4.99024 19.7359 5.26192 19.6502 5.50246 19.505C6.24579 18.9317 6.80746 18.5259 7.18746 18.2875C7.96746 17.7142 8.47329 17.1559 8.70496 16.6125L8.83496 16.5825C8.89741 16.586 8.96001 16.586 9.02246 16.5825C9.02246 16.5625 9.02246 16.55 9.04746 16.545C9.22246 16.5275 9.13746 16.545 9.24996 16.53L9.54246 16.4625C9.52496 16.4625 9.51746 16.4775 9.52246 16.495L9.56746 16.4675H9.54496H9.59496L9.57246 16.4825C9.60798 16.4893 9.64445 16.4893 9.67996 16.4825L9.69996 16.5675L8.34496 18.65L8.04996 19.02L7.90496 19.5H7.93246L8.07746 19.44L8.02996 19.6275L8.04496 19.6825L8.08496 19.7325C8.06746 19.7325 8.05996 19.75 8.06496 19.77V19.8L8.12496 19.785C8.21329 19.7084 8.25079 19.6384 8.23746 19.575C8.29945 19.591 8.36374 19.5961 8.42746 19.59V19.62C8.36996 19.635 8.33996 19.68 8.33496 19.76V19.79H8.36746C8.85246 19.26 10.04 17.4525 10.9925 16.2225C10.9625 16.0892 11.4625 15.9042 12.4925 15.6675H12.525C12.5616 15.8342 12.4783 16.2234 12.275 16.835C12.1954 17.0319 12.1359 17.2362 12.0975 17.445C11.9969 17.706 11.9199 17.9754 11.8675 18.25L11.505 19.44C11.2661 20.0646 11.0853 20.7098 10.965 21.3675C10.9979 21.3604 11.032 21.3604 11.065 21.3675L11.115 21.3225C11.1158 21.3268 11.1175 21.3309 11.1201 21.3345C11.1226 21.338 11.1259 21.341 11.1297 21.3431C11.1335 21.3452 11.1378 21.3465 11.1421 21.3469C11.1465 21.3472 11.1509 21.3466 11.155 21.345L11.1575 21.25H11.315C11.3625 21.25 11.4 21.18 11.435 21.0725C11.435 20.9125 11.46 20.8225 11.5325 20.8075C11.5693 20.6078 11.6297 20.4131 11.7125 20.2275C11.7509 20.0029 11.819 19.7843 11.915 19.5775C12.0525 19.0775 12.165 18.8275 12.2175 18.8125L12.2325 18.8725L12.1325 19.1225C12.0023 19.7475 11.8252 20.3618 11.6025 20.96L11.655 21.1825H11.6875C12.1208 20.2509 12.7441 18.4059 13.5575 15.6475C13.5664 15.5329 13.6027 15.4221 13.6631 15.3242C13.7235 15.2264 13.8065 15.1444 13.905 15.085L13.8575 15.035V15.01C13.9337 14.9983 14.003 14.9592 14.0525 14.9C14.0525 14.88 13.9675 14.8475 13.8025 14.8075L14.2075 13.0575C14.2522 13.0093 14.3046 12.9688 14.3625 12.9375V13.025C14.3298 13.0312 14.299 13.0449 14.2725 13.065L14.35 13.175C14.4861 13.0262 14.6397 12.8945 14.8075 12.7825C14.8925 12.805 14.9325 12.835 14.9375 12.8625H14.9975C15.4091 12.5505 15.8672 12.305 16.355 12.135V12.1925C16.2733 12.3159 16.2175 12.3784 16.1875 12.38C16.1908 12.42 16.2036 12.4586 16.225 12.4925C16.0645 13.0208 15.8631 13.5357 15.6225 14.0325C14.9423 15.711 14.154 17.3436 13.2625 18.92C13.2702 18.9512 13.2847 18.9802 13.305 19.005C13.4104 18.9881 13.5109 18.9489 13.6 18.89H13.6275V18.9475H13.6925L13.75 18.9175C13.75 18.9342 13.7708 18.9409 13.8125 18.9375V19C13.8039 19.0958 13.7693 19.1875 13.7125 19.265C13.6133 19.4018 13.5412 19.5562 13.5 19.72V19.75H13.56C13.7912 19.4991 13.9864 19.2173 14.14 18.9125C14.726 18.7547 15.2953 18.5403 15.84 18.2725C16.1662 18.2641 16.482 18.1559 16.745 17.9625V17.9325L16.5925 17.9775H16.56V17.9475C16.7724 17.932 16.9781 17.866 17.16 17.755C17.7225 17.3225 18.16 17.005 18.44 16.83C19.34 16.175 19.7575 15.5475 19.7075 14.9425L19.725 14.9475ZM19.5725 14.9875L19.5925 15.2225C19.565 15.28 19.535 15.31 19.5075 15.3125L19.4725 14.9125C19.5375 14.935 19.57 14.96 19.5725 14.9875V14.9875ZM1.93246 13.0925H1.89246V13.02L2.04746 13V13.0375C2.00544 13.0451 1.96544 13.0613 1.92996 13.085L1.93246 13.0925ZM1.14746 20.945C1.07008 20.9062 0.983934 20.8881 0.897461 20.8925V20.7775C0.897461 20.7325 0.917461 20.7025 0.974961 20.6925C1.03246 20.6825 1.05746 20.725 1.05996 20.8C1.12571 20.7096 1.20024 20.6258 1.28246 20.55L1.36746 20.585C1.33996 20.8175 1.26746 20.9375 1.15246 20.945H1.14746ZM9.53496 12.17C9.49496 12.17 9.41496 12.05 9.30246 11.8075V11.735C9.37746 11.735 9.45496 11.85 9.53496 12.0975V12.17ZM9.42496 11.3L9.39246 11.3775L8.24996 10.9025C9.00996 10.9275 9.40079 11.06 9.42246 11.3H9.42496ZM4.61496 15.43L4.45496 15.445V15.3725L4.61496 15.3575V15.43ZM4.48496 12.95H4.52496V13.065C4.48746 13.065 4.43996 13.1225 4.37746 13.23V13.15C4.44996 13.065 4.48746 12.9975 4.48246 12.9525L4.48496 12.95ZM4.14496 13.75L4.15996 13.9025H4.11996L4.10496 13.75H4.14496ZM3.96746 14.035H4.04496C4.04496 14.16 4.00246 14.2275 3.93996 14.2325H3.89996C3.9403 14.1761 3.96371 14.1093 3.96746 14.04V14.035ZM3.83496 14.43H3.87996V14.4675L3.80746 14.5875H3.72996V14.55C3.74563 14.5512 3.76136 14.5487 3.77588 14.5427C3.7904 14.5367 3.80329 14.5274 3.81352 14.5154C3.82375 14.5035 3.83102 14.4893 3.83474 14.474C3.83847 14.4588 3.83854 14.4428 3.83496 14.4275V14.43ZM3.70496 14.7875L3.68246 14.9775H3.64246L3.62496 14.79H3.70496V14.7875ZM2.39746 18.5C2.34496 18.75 2.28996 18.8925 2.23246 18.8975V18.86C2.22802 18.7911 2.24076 18.7221 2.26956 18.6592C2.29836 18.5964 2.34231 18.5417 2.39746 18.5V18.5ZM2.14746 19.02V19.0575C2.15028 19.068 2.15057 19.0789 2.1483 19.0894C2.14604 19.1 2.14128 19.1098 2.13442 19.1181C2.12757 19.1265 2.11882 19.133 2.10891 19.1373C2.099 19.1415 2.08822 19.1433 2.07746 19.1425V19.105C2.07746 19.06 2.10079 19.0317 2.14746 19.02ZM2.07746 20.0975H2.19746V20.14C2.15459 20.1474 2.11372 20.1635 2.07746 20.1875H1.99996C1.99996 20.1475 2.01996 20.1175 2.06996 20.1025L2.07746 20.0975ZM5.52496 19.0325C5.10148 19.216 4.69913 19.4449 4.32496 19.715C3.59663 19.97 3.23829 20.1292 3.24996 20.1925C2.80606 20.3527 2.37197 20.5388 1.94996 20.75C1.87575 20.7489 1.80289 20.7301 1.73746 20.695C1.73279 20.6296 1.74703 20.5641 1.7785 20.5065C1.80997 20.4489 1.85734 20.4015 1.91496 20.37C2.02657 20.3598 2.139 20.3769 2.24246 20.42C2.4455 20.3291 2.65748 20.2595 2.87496 20.2125V20.1325L2.62496 20.1525C2.84461 20.0162 3.07956 19.9063 3.32496 19.825H3.44496V19.8625C3.23746 19.88 3.12246 19.9425 3.09746 20.05C3.09746 20.1 3.12996 20.12 3.18246 20.115C3.33746 20.0175 3.41496 19.96 3.41246 19.9425C3.70913 19.8859 4.52663 19.4584 5.86496 18.66V18.7325C5.86496 18.7675 5.75246 18.865 5.52246 19.0325H5.52496ZM3.46996 19.7075C3.65909 19.6924 3.8365 19.6099 3.96996 19.475C4.02496 19.475 4.05496 19.4925 4.05746 19.54C3.86216 19.5919 3.67704 19.6764 3.50996 19.79H3.46996V19.7125V19.7075ZM6.79746 17.16L5.76996 17.975C5.37681 18.253 4.965 18.5036 4.53746 18.725C3.32079 19.3917 2.56496 19.7392 2.26996 19.7675H2.22496C2.26163 19.6309 2.80329 18.5217 3.84996 16.44C4.60045 16.3193 5.33229 16.1025 6.02746 15.795L6.27746 15.775C6.47424 15.7399 6.67627 15.7474 6.86991 15.797C7.06355 15.8466 7.2443 15.9371 7.39996 16.0625L7.41496 16.215C7.22829 16.75 7.02413 17.0634 6.80246 17.155L6.79746 17.16ZM4.79746 16.03L4.96246 16.015V16.0525L4.79746 16.0675V16.03ZM7.11996 15.6375H7.23996C7.35246 15.69 7.40996 15.7375 7.41496 15.78V15.8175C7.35501 15.8183 7.29591 15.8033 7.24366 15.7738C7.19142 15.7444 7.14788 15.7017 7.11746 15.65L7.11996 15.6375ZM7.44746 13.7675C7.18041 14.0191 6.88511 14.2389 6.56746 14.4225C6.40996 14.4375 5.81746 14.6725 4.79996 15.1125C4.74909 15.0895 4.69309 15.08 4.63746 15.085V15.0125C4.64299 14.8113 4.71214 14.617 4.83496 14.4575C4.91496 14.0375 4.99996 13.7975 5.08496 13.74L5.93496 11.8275C5.92496 11.7092 6.10663 11.6184 6.47996 11.555H6.59996V11.665C6.96496 11.61 7.19496 11.5775 7.28246 11.57C7.95746 11.5125 8.30996 11.65 8.33746 11.9775H8.41496L8.39746 11.785L8.49996 11.75C8.58244 11.784 8.65501 11.8383 8.71095 11.9078C8.76689 11.9772 8.80438 12.0597 8.81996 12.1475C8.81214 12.2965 8.7509 12.4376 8.64746 12.545C8.59746 12.545 8.56496 12.5125 8.56246 12.4375H8.47746L8.45996 12.67C8.11829 13.1817 7.86829 13.445 7.70996 13.46C7.56996 13.6525 7.48496 13.75 7.45996 13.75L7.44746 13.7675ZM7.96996 15.1075C7.92208 15.0693 7.86362 15.0466 7.80246 15.0425V14.9275H7.87996L8.04996 15.0275C8.05278 15.038 8.05307 15.0489 8.05081 15.0594C8.04854 15.07 8.04378 15.0798 8.03692 15.0881C8.03007 15.0965 8.02132 15.103 8.01141 15.1073C8.0015 15.1115 7.99072 15.1133 7.97996 15.1125L7.96996 15.1075ZM8.49996 15.75C8.57496 15.78 8.61996 15.8125 8.62746 15.8425H8.56746L8.51246 15.8875L8.49996 15.75ZM8.55246 16.0725V16.0425L8.64996 16.02V16.05L8.55246 16.0725ZM8.78746 16.335C8.88746 16.3175 8.93746 16.3125 9.12246 16.27V16.3L8.76746 16.3825C8.7683 16.3667 8.7683 16.3509 8.76746 16.335H8.78746ZM9.13246 16.4825C9.01257 16.4851 8.8934 16.5019 8.77746 16.5325V16.5025L9.07246 16.4075L9.21496 16.375L9.22996 16.43C9.16746 16.445 9.21246 16.445 9.13996 16.4825H9.13246ZM9.44746 16.4075C9.43909 16.4098 9.43035 16.4103 9.42176 16.4092C9.41317 16.408 9.40491 16.4051 9.39745 16.4007C9.39 16.3962 9.3835 16.3904 9.37835 16.3834C9.3732 16.3764 9.3695 16.3685 9.36746 16.36L9.45746 16.34C9.46551 16.3369 9.47419 16.3357 9.4828 16.3365C9.49141 16.3373 9.49971 16.3401 9.50701 16.3448C9.51432 16.3494 9.52043 16.3557 9.52485 16.3631C9.52927 16.3705 9.53188 16.3789 9.53246 16.3875L9.44746 16.4075V16.4075ZM10.3 15.49V15.46L10.4475 15.425L10.4625 15.48H10.3075L10.3 15.49ZM11.21 21.075C11.2162 21.0445 11.2162 21.0131 11.21 20.9825H11.2425C11.25 20.9794 11.2581 20.978 11.2663 20.9786C11.2744 20.9791 11.2823 20.9815 11.2893 20.9857C11.2964 20.9898 11.3024 20.9955 11.3068 21.0023C11.3113 21.0092 11.314 21.0169 11.315 21.025V21.055L11.195 21.0825L11.21 21.075ZM11.85 15.7275H11.785C11.699 15.7633 11.6104 15.7926 11.52 15.815L11.46 15.83C11.4521 15.8327 11.4438 15.8337 11.4355 15.833C11.4272 15.8323 11.4192 15.8298 11.4119 15.8258C11.4046 15.8218 11.3982 15.8164 11.3931 15.8098C11.3881 15.8032 11.3844 15.7956 11.3825 15.7875L11.81 15.69L11.95 15.625L11.9975 15.6775C11.9448 15.6848 11.8948 15.7054 11.8525 15.7375L11.85 15.7275ZM12.1775 15.6225V15.5925C12.2084 15.5827 12.2361 15.5645 12.2575 15.54L12.56 15.47V15.5C12.4293 15.529 12.3013 15.5692 12.1775 15.62V15.6225ZM12.225 15C12.1934 15.0117 12.1645 15.0295 12.14 15.0525C12.14 15.0325 12.0925 15.0325 12.015 15.0525C12 14.995 12.225 14.9125 12.6875 14.8025L12.7525 14.7875L12.7675 14.8425C12.4425 14.9375 12.2675 14.9925 12.225 14.9975V15ZM13.04 14.12C13 14.5 12.8775 14.7075 12.645 14.75V14.72L12.44 14.8L12.35 14.82C12.3091 14.8316 12.2658 14.8316 12.225 14.82L12.1975 14.75C12.4686 14.323 12.7659 13.913 13.0875 13.5225H13.1575C13.1664 13.7285 13.1253 13.9335 13.0375 14.12H13.04ZM14.4825 12.885H14.455V12.8275H14.575V12.8575C14.5435 12.8663 14.5133 12.8789 14.485 12.895L14.4825 12.885ZM13.8875 18.86C13.8297 18.8298 13.7651 18.8152 13.7 18.8175V18.73C13.7 18.7 13.7183 18.6792 13.755 18.6675C13.795 18.6675 13.8175 18.69 13.8225 18.7525C13.87 18.6816 13.9263 18.617 13.99 18.56L14.0525 18.585C14.03 18.7625 13.975 18.855 13.8925 18.8625L13.8875 18.86ZM20.25 12.1975C20.22 12.1975 20.1625 12.1075 20.07 11.9175V11.86C20.1275 11.86 20.19 11.945 20.25 12.1325V12.1975V12.1975ZM20.165 11.5325L20.1375 11.5925L19.275 11.2325C19.85 11.25 20.1475 11.3525 20.165 11.5325V11.5325ZM16.5175 14.6675H16.3975V14.61H16.5175V14.665V14.6675ZM16.4175 12.7825H16.45V12.87C16.42 12.87 16.3825 12.9117 16.3375 12.995V12.9375C16.3796 12.8958 16.4069 12.8413 16.415 12.7825H16.4175ZM16.1675 13.3875V13.5025H16.135V13.3875H16.1675ZM16.03 13.605H16.09C16.09 13.7034 16.0641 13.755 16.0125 13.76H15.98C16.0095 13.7144 16.0267 13.6618 16.03 13.6075V13.605ZM15.9325 13.9025H15.96V13.9325L15.9075 14.025H15.8475V14C15.91 14 15.9375 13.9625 15.9325 13.905V13.9025ZM15.835 14.1725L15.815 14.3225H15.7875V14.175H15.8475L15.835 14.1725ZM14.835 16.9975C14.795 17.1925 14.7533 17.2925 14.71 17.2975V17.2725C14.7079 17.2199 14.7184 17.1675 14.7406 17.1197C14.7627 17.0719 14.7959 17.03 14.8375 16.9975H14.835ZM14.65 17.39V17.415C14.6525 17.4233 14.6529 17.432 14.6512 17.4404C14.6496 17.4489 14.6458 17.4568 14.6404 17.4634C14.635 17.4701 14.628 17.4753 14.6201 17.4787C14.6121 17.482 14.6035 17.4833 14.595 17.4825V17.4525C14.595 17.4225 14.6133 17.4017 14.65 17.39V17.39ZM14.5975 18.21H14.69V18.24C14.6581 18.2462 14.6276 18.258 14.6 18.275H14.54C14.54 18.2417 14.5583 18.2209 14.595 18.2125L14.5975 18.21ZM17.2125 17.4025C16.8924 17.5444 16.5868 17.7169 16.3 17.9175C15.74 18.1125 15.465 18.235 15.4675 18.2825C15.1365 18.408 14.8135 18.5533 14.5 18.7175C14.4439 18.7151 14.3891 18.6997 14.34 18.6725C14.3344 18.6221 14.3444 18.5712 14.3685 18.5265C14.3926 18.4819 14.4297 18.4456 14.475 18.4225C14.5601 18.4145 14.6459 18.4274 14.725 18.46C14.8806 18.3934 15.0421 18.3415 15.2075 18.305V18.2475L15.0175 18.2625C15.1853 18.1584 15.3649 18.0745 15.5525 18.0125H15.645V18.0375C15.4875 18.0525 15.395 18.0975 15.38 18.1825C15.3797 18.1906 15.3814 18.1987 15.3847 18.206C15.3881 18.2134 15.3932 18.2198 15.3995 18.2249C15.4057 18.23 15.4131 18.2335 15.421 18.2353C15.4289 18.2371 15.4371 18.237 15.445 18.235C15.5625 18.1575 15.6175 18.115 15.6175 18.1C15.8408 18.06 16.4608 17.735 17.4775 17.125V17.1825C17.4775 17.2075 17.3925 17.2825 17.2275 17.41L17.2125 17.4025ZM15.6525 17.9025C15.7981 17.8913 15.9352 17.8294 16.04 17.7275C16.0478 17.7256 16.056 17.7255 16.0639 17.7273C16.0718 17.729 16.0792 17.7326 16.0855 17.7377C16.0918 17.7428 16.0968 17.7492 16.1002 17.7566C16.1036 17.7639 16.1052 17.772 16.105 17.78C15.9584 17.8177 15.8184 17.8775 15.69 17.9575H15.6575V17.9025H15.6525ZM18.175 15.9825L17.4 16.6075C17.1003 16.822 16.7853 17.0142 16.4575 17.1825C15.5358 17.6825 14.9616 17.9459 14.735 17.9725H14.7025C14.7308 17.8675 15.1433 17.0259 15.94 15.4475C16.5098 15.3516 17.0651 15.1836 17.5925 14.9475L17.78 14.93C17.9293 14.9035 18.0826 14.9097 18.2294 14.9481C18.3761 14.9865 18.5128 15.0563 18.63 15.1525V15.2675C18.4875 15.6675 18.335 15.9025 18.1675 15.975L18.175 15.9825ZM16.6525 15.125H16.7725V15.155H16.6525V15.125ZM18.415 14.825H18.5075C18.5925 14.8675 18.6375 14.905 18.64 14.935V14.96C18.594 14.9618 18.5484 14.9508 18.5083 14.9283C18.4681 14.9058 18.435 14.8727 18.4125 14.8325L18.415 14.825ZM18.665 13.4075C18.4636 13.5996 18.2404 13.7674 18 13.9075C17.5392 14.0444 17.0902 14.2183 16.6575 14.4275C16.6183 14.4134 16.5766 14.4075 16.535 14.41V14.3525C16.5389 14.1998 16.5904 14.052 16.6825 13.93C16.7425 13.6075 16.81 13.43 16.88 13.3875L17.53 11.935C17.53 11.85 17.66 11.78 17.94 11.725H18.0325V11.8125C18.3075 11.7675 18.48 11.7417 18.55 11.735C19.05 11.69 19.33 11.7925 19.3525 12.045H19.4125V11.905H19.4725C19.5363 11.928 19.593 11.9674 19.6369 12.0191C19.6808 12.0709 19.7103 12.1333 19.7225 12.2C19.7099 12.3148 19.6567 12.4212 19.5725 12.5C19.5325 12.5 19.51 12.4775 19.505 12.415H19.445L19.4275 12.59C19.1775 12.9825 18.98 13.1875 18.8625 13.195C18.7575 13.3375 18.6925 13.41 18.6625 13.4125L18.665 13.4075ZM18.9375 14.3775V14.29H18.9975L19.1275 14.37C19.1285 14.3779 19.1279 14.3858 19.1256 14.3934C19.1234 14.401 19.1195 14.408 19.1143 14.4139C19.109 14.4198 19.1026 14.4246 19.0954 14.4278C19.0882 14.431 19.0804 14.4326 19.0725 14.4325C19.0354 14.4043 18.9913 14.387 18.945 14.3825L18.9375 14.3775ZM8.08996 20.0325L8.02996 20.0475L7.97746 20.0925C7.97838 20.1007 7.98117 20.1084 7.98562 20.1153C7.99006 20.1221 7.99604 20.1278 8.00308 20.1319C8.01011 20.1361 8.01801 20.1385 8.02615 20.139C8.03429 20.1396 8.04244 20.1382 8.04996 20.135C8.08996 20.135 8.10496 20.1025 8.09746 20.065V20.035L8.08996 20.0325ZM7.85996 19.5725V19.6025C7.89996 19.6025 7.91496 19.57 7.90746 19.5325V19.5025C7.89942 19.5033 7.89166 19.5059 7.88472 19.51C7.87777 19.5141 7.87182 19.5197 7.86729 19.5264C7.86276 19.5331 7.85975 19.5407 7.85848 19.5487C7.85722 19.5566 7.85772 19.5648 7.85996 19.5725ZM9.49996 15.6725L9.56996 15.655L9.55496 15.595L9.48496 15.6125L9.49996 15.6725ZM30.6375 17.4475C30.3294 17.5333 30.0121 17.5811 29.6925 17.59V17.6475H29.7925L29.87 17.6175C30.57 17.54 30.6525 17.5675 30.645 17.49V17.4625L30.6375 17.4475ZM26.825 17.9475V18.005V17.9475ZM26.3875 16.4125L26.325 16.3925C26.2897 16.4724 26.2645 16.5564 26.25 16.6425V16.6675C26.3 16.6675 26.3425 16.5825 26.385 16.4175L26.3875 16.4125ZM30.7825 17.43V17.4875L30.885 17.505V17.4475L30.7825 17.43ZM25.96 18.025L25.8025 18.0075L25.775 18.0675V18.0975L26.7175 18.0175V17.96L25.9675 18.025H25.96ZM25.5325 15.96V15.93H25.5L25.4425 15.9675L25.475 16.0225C25.52 16.0225 25.54 15.9975 25.535 15.9575L25.5325 15.96ZM31.2275 17H31.2725C31.2975 17 31.31 16.9775 31.3075 16.94L31.2825 16.885C31.1549 16.8843 31.0293 16.9162 30.9175 16.9775V16.95L30.725 16.9675C30.725 16.91 30.705 16.88 30.6775 16.8825H30.5775C30.46 16.8825 30.405 16.8825 30.3475 16.9325C30.3475 16.9125 30.3475 16.9025 30.3275 16.9025H30.215L30.15 16.94C30.15 16.92 30.15 16.91 30.13 16.91L30.09 16.945V16.915H29.8975V16.9725L29.9775 16.9925H30.0525C30.0781 17.0076 30.108 17.0137 30.1375 17.01L30.2025 16.9775V17C30.0003 17.0526 29.7948 17.0919 29.5875 17.1175C29.5699 17.1026 29.548 17.0938 29.525 17.0925C29.5184 17.0922 29.512 17.0906 29.506 17.0878C29.5001 17.085 29.4947 17.081 29.4903 17.0762C29.4859 17.0713 29.4825 17.0656 29.4803 17.0594C29.4781 17.0532 29.4771 17.0466 29.4775 17.04L29.6075 17.0225C29.6362 17.0317 29.6654 17.0392 29.695 17.045C29.8 16.9925 29.805 16.9725 29.86 16.9675V16.91C29.6406 16.9504 29.418 16.9713 29.195 16.9725H29.175V16.915C29.7525 16.845 29.56 16.885 29.7575 16.83C29.7575 16.85 29.7575 16.86 29.7775 16.86C29.7988 16.838 29.827 16.8239 29.8575 16.82H29.8975C30.124 16.827 30.3503 16.7974 30.5675 16.7325V16.7575L30.6325 16.725H30.6925C30.6925 16.6675 30.7775 16.6575 30.8075 16.655V16.5925C30.105 16.735 29.92 16.695 29.725 16.75V16.725C29.6431 16.744 29.5588 16.7507 29.475 16.745C29.4526 16.7518 29.4327 16.7648 29.4175 16.7825C29.4175 16.7625 29.4175 16.7525 29.395 16.7525L28.7975 16.85C28.7975 16.8325 28.7975 16.825 28.775 16.8275C28.5663 16.8886 28.3518 16.9272 28.135 16.9425C28.1071 16.9476 28.0806 16.9587 28.0575 16.975C28.0575 16.9575 28.0575 16.95 28.025 16.9525L27.775 16.9725L27.605 17.015C27.605 16.9975 27.605 16.99 27.5725 16.9925C27.4908 17.0162 27.4071 17.0321 27.3225 17.04C27.28 17.04 27.3425 17.04 27.3225 17.015L27.27 17.045H26.98C26.53 17.1 26.58 17.1075 26.53 17.11H26.3625C26.3633 17.1136 26.3633 17.1173 26.3624 17.1209C26.3615 17.1244 26.3597 17.1277 26.3572 17.1304C26.3548 17.1331 26.3517 17.1352 26.3482 17.1364C26.3448 17.1377 26.3411 17.1381 26.3375 17.1375C26.1475 17.1125 26.0475 17.0825 26.0475 17.0475C26.0725 16.8659 26.1166 16.7725 26.18 16.7675H26.2125L26.185 16.8275H26.2175C26.2775 16.795 26.305 16.765 26.3025 16.7375V16.675H26.2425V16.6175C26.2369 16.5775 26.2429 16.5367 26.26 16.5L26.3975 16.2775V16.335H26.4625V16.2775L26.425 16.225C26.4572 16.1922 26.4978 16.1688 26.5425 16.1575V16.1275H26.455V16.04C26.5676 15.8385 26.6517 15.6222 26.705 15.3975L26.7675 15.4225C26.8075 15.4225 26.825 15.3975 26.8225 15.355H26.7625V15.33C26.7581 15.2879 26.766 15.2454 26.785 15.2075C26.8277 15.1694 26.8615 15.1223 26.884 15.0696C26.9065 15.0168 26.917 14.9598 26.915 14.9025C26.9325 14.9025 26.9425 14.9025 26.945 14.93C27.0275 14.8825 27.09 14.76 27.135 14.555C27.3606 14.0507 27.5502 13.5311 27.7025 13C28.2025 11.62 28.2025 11.475 28.265 11.1475H28.205C28.2095 11.1889 28.2017 11.2307 28.1825 11.2675C28.1518 11.2536 28.1186 11.2459 28.085 11.245V11.22C28.0875 11.0647 28.1411 10.9144 28.2375 10.7925H28.25L28.3025 10.9925H28.3625C28.3725 10.9082 28.3884 10.8247 28.41 10.7425C28.41 10.7125 28.385 10.6925 28.3375 10.69L28.28 10.7275V10.4025H28.25C28.2096 10.3704 28.1814 10.3254 28.17 10.275L27.8375 10.3075C27.8312 10.2714 27.8185 10.2367 27.8 10.205C27.8 10.175 27.8725 10.145 28.025 10.115L28.0925 10.14L28.155 10.1025C28.155 10.1225 28.17 10.1325 28.1925 10.13L28.255 10.0925C28.255 10.1125 28.27 10.1225 28.2925 10.12H28.3225V10.0525H27.9575L27.895 10.095V10.05C26.3316 10.1784 25.4441 10.2525 25.2325 10.2725H24.9025C24.9025 10.2975 24.8825 10.3125 24.835 10.3175L24.7675 10.2875L24.54 10.345C24.4501 10.3531 24.3598 10.3531 24.27 10.345C24.2334 10.3741 24.189 10.3916 24.1425 10.395L24.81 10.3525C24.7619 10.3852 24.7055 10.4034 24.6475 10.405C24.602 10.4112 24.5558 10.4034 24.515 10.3825C24.3511 10.433 24.1841 10.4722 24.015 10.5L23.9475 10.475L22.8575 10.6425C22.8113 10.6215 22.7603 10.6137 22.71 10.62C22.6118 10.6329 22.5148 10.6538 22.42 10.6825L21.8925 10.9025L21.9325 10.9675C21.9708 10.9607 22.0073 10.9463 22.04 10.925L22.2275 10.9425L22.205 11.1175C22.1309 11.1439 22.0647 11.1883 22.0123 11.2468C21.9599 11.3054 21.923 11.3761 21.905 11.4525C21.655 11.5675 21.5175 11.6475 21.5175 11.7025V11.7325H21.5575L21.6275 11.695L21.71 11.7925V11.9275C21.71 11.9692 21.2758 12.8859 20.4075 14.6775C19.6575 16.4025 19.2575 17.345 19.22 17.515C18.97 17.5875 18.8125 17.6925 18.7675 17.8325C18.7675 17.8775 18.85 17.9075 18.9975 17.9175V17.985L18.93 18.0975V18.2325C18.93 18.3025 19.1183 18.3559 19.495 18.3925C19.495 18.37 19.495 18.355 19.53 18.3525C19.5275 18.5215 19.504 18.6894 19.46 18.8525H19.5C19.6323 18.7233 19.7199 18.5551 19.75 18.3725H19.7825C19.82 18.3725 19.86 18.4125 19.905 18.5025C19.8583 18.5209 19.6916 18.8917 19.405 19.615L19.445 19.68H19.5C19.8416 18.8134 20.0566 18.3342 20.145 18.2425C20.595 18.2025 21.3725 18.1192 22.4775 17.9925L22.5475 17.95C22.5472 17.9553 22.5482 17.9605 22.5504 17.9653C22.5527 17.9701 22.556 17.9743 22.5602 17.9775C22.5644 17.9807 22.5693 17.9828 22.5744 17.9837C22.5796 17.9846 22.585 17.9842 22.59 17.9825H22.6625L22.7325 17.94C22.7322 17.9453 22.7332 17.9505 22.7354 17.9553C22.7377 17.9601 22.741 17.9643 22.7452 17.9675C22.7494 17.9707 22.7543 17.9728 22.7594 17.9737C22.7646 17.9746 22.77 17.9742 22.775 17.9725L23.6125 17.9C23.835 17.8825 23.9375 17.815 23.93 17.7C23.93 17.67 24.0575 17.635 24.3225 17.5975C24.3617 17.5971 24.4007 17.6039 24.4375 17.6175C24.4375 17.5975 24.5675 17.575 24.8325 17.5525C24.8325 17.4125 24.885 17.3375 24.9625 17.33V17.2625C24.8773 17.2724 24.7934 17.2917 24.7125 17.32C24.6005 17.3186 24.489 17.3052 24.38 17.28C24.3471 17.3009 24.3107 17.3153 24.2725 17.3225L23.69 17.34L23.62 17.3775C23.62 17.3559 23.6058 17.3467 23.5775 17.35H23.545L23.47 17.3875C23.47 17.3675 23.4075 17.35 23.285 17.335L23.21 17.38H23.065V17.3425C23.815 17.2609 24.185 17.1592 24.175 17.0375C24.1849 17.0352 24.1952 17.0352 24.2051 17.0375C24.215 17.0399 24.2242 17.0445 24.232 17.0511C24.2398 17.0577 24.2459 17.066 24.2499 17.0753C24.2539 17.0847 24.2556 17.0949 24.255 17.105L24.475 17.05V16.9825L22.68 17.0325C22.68 17.055 22.68 17.07 22.645 17.0725L22.425 17.055C22.3745 17.058 22.3259 17.0754 22.285 17.105L22.2025 17.075C22.0334 17.0855 21.8659 17.1132 21.7025 17.1575C21.5361 17.1444 21.3689 17.1444 21.2025 17.1575L20.8 17.1925L20.6125 17.1725C20.6125 17.0525 20.835 16.47 21.31 15.4225C21.3803 15.1735 21.5128 14.9464 21.695 14.7625C21.7349 14.7631 21.7741 14.7725 21.81 14.79L22.0975 14.6925L22.245 14.715C22.5406 14.6827 22.8306 14.6112 23.1075 14.5025C23.1705 14.4935 23.2347 14.4995 23.295 14.52L23.515 14.4675L24.1675 14.4125C24.4749 14.3834 24.7783 14.3213 25.0725 14.2275V14.16C24.9525 14.16 24.8875 14.16 24.885 14.1025C24.885 14.0125 24.79 13.975 24.62 13.9875V13.92L24.8 13.8675L25.27 13.8275V13.76H24.98V13.6875L25.1625 13.67C25.2125 13.67 25.2325 13.6425 25.2275 13.595C24.9775 13.595 24.86 13.595 24.8575 13.5575C23.1525 13.6409 22.2975 13.6567 22.2925 13.605C22.2538 13.6134 22.2172 13.6296 22.185 13.6525L22.14 13.5825C22.5916 12.6225 22.8566 12.1392 22.935 12.1325C22.9303 12.1963 22.9106 12.258 22.8775 12.3125V12.3425H22.95C23.13 11.915 23.28 11.6925 23.4075 11.6825C23.9425 11.635 23.3325 11.6 24.48 11.4325C24.5114 11.4498 24.5466 11.4592 24.5825 11.46C25.0325 11.37 25.6591 11.275 26.4625 11.175V11.1075L26.035 11.1475V11.08C26.0815 11.0766 26.1259 11.0591 26.1625 11.03V11.0675C26.198 11.059 26.2313 11.0428 26.26 11.02C26.3174 11.0104 26.3764 11.0173 26.43 11.04C26.5472 11.0071 26.6667 10.9829 26.7875 10.9675L27.055 10.9425C27.12 10.9 27.15 10.8625 27.1475 10.8275V10.7975C27.0688 10.8035 26.9897 10.7985 26.9125 10.7825C26.9114 10.7737 26.9122 10.7647 26.9146 10.7561C26.9171 10.7475 26.9212 10.7395 26.9268 10.7325C26.9324 10.7255 26.9393 10.7197 26.9471 10.7155C26.955 10.7112 26.9636 10.7085 26.9725 10.7075L27.4725 10.66L27.7 10.6025C27.7 10.6275 27.715 10.6375 27.7325 10.6375C27.768 10.629 27.8013 10.6128 27.83 10.59H27.8675C27.8271 10.6781 27.7936 10.7692 27.7675 10.8625H27.7025C27.699 10.8203 27.6862 10.7793 27.665 10.7425H27.6325C27.0275 12.43 26.7575 13.215 26.1975 14.51C26.095 14.84 26.01 15.025 25.935 15.065C25.9347 15.0731 25.9364 15.0812 25.9397 15.0885C25.9431 15.0959 25.9482 15.1023 25.9545 15.1074C25.9607 15.1125 25.9681 15.116 25.976 15.1178C25.9839 15.1196 25.9921 15.1195 26 15.1175C26.0129 15.2864 25.9727 15.4551 25.885 15.6C25.635 16.35 25.455 16.7525 25.365 16.8275L25.4225 17.18C25.4235 17.1879 25.4229 17.1958 25.4206 17.2034C25.4184 17.211 25.4145 17.218 25.4093 17.2239C25.404 17.2298 25.3976 17.2346 25.3904 17.2378C25.3832 17.241 25.3754 17.2426 25.3675 17.2425H25.3075C25.3075 17.145 25.2625 17.0975 25.2 17.105H25.1675C25.0836 17.2372 25.0227 17.3826 24.9875 17.535H25.0475C25.0822 17.5178 25.1113 17.491 25.1312 17.4578C25.1511 17.4246 25.1611 17.3863 25.16 17.3475H25.28L25.35 17.3725C25.3029 17.4337 25.2758 17.5079 25.2725 17.585L25.305 17.64L25.225 17.8275V17.8575C25.3058 17.8543 25.3856 17.8771 25.4525 17.9225C25.5194 17.9133 25.583 17.8875 25.6375 17.8475H26.4175L26.6425 17.77C26.8035 17.7708 26.9645 17.7641 27.125 17.75H27.2225L27.275 17.715V17.745C27.4326 17.7219 27.5929 17.7236 27.75 17.75V17.78H27.6125V17.8375C27.6526 17.8349 27.691 17.8201 27.7225 17.795C27.7575 17.795 27.7775 17.8125 27.78 17.8525C27.716 17.8593 27.6531 17.8736 27.5925 17.895L27.5325 17.875C27.4375 17.9 27.4575 17.9075 27.3925 17.9125L27.2975 17.895C27.2982 17.8984 27.2982 17.9019 27.2974 17.9052C27.2966 17.9085 27.2951 17.9117 27.2929 17.9143C27.2908 17.917 27.288 17.9191 27.2849 17.9205C27.2818 17.9219 27.2784 17.9226 27.275 17.9225C27.2745 17.93 27.2757 17.9375 27.2785 17.9444C27.2813 17.9513 27.2856 17.9575 27.2912 17.9626C27.2967 17.9676 27.3032 17.9713 27.3104 17.9735C27.3175 17.9756 27.3251 17.9762 27.3325 17.975H27.43L27.93 17.93L28.1225 17.8875C28.1225 17.905 28.1225 17.9125 28.1475 17.91L28.24 17.875L28.415 17.86C28.55 17.86 28.5475 17.84 28.84 17.7925C28.84 17.775 28.84 17.7675 28.8575 17.765V17.79C29.0548 17.7661 29.2503 17.7285 29.4425 17.6775V17.6925C29.5625 17.665 29.495 17.6725 29.5275 17.6475C29.5275 17.6675 29.5275 17.6775 29.5475 17.6775H29.6325V17.615H29.4225C29.3598 17.6268 29.2961 17.6318 29.2325 17.63L28.805 17.6525V17.6225L29.055 17.59H29.14L29.19 17.555V17.585C29.525 17.5575 29.645 17.64 31.19 17.31C31.275 17.31 31.2675 17.2325 31.32 17.0875C31.2913 17.09 31.2626 17.0839 31.2375 17.07C31.0923 17.1053 30.9441 17.1271 30.795 17.135C30.775 17.135 30.7575 17.1175 30.75 17.0825V17.0575H31C31.0886 17.0481 31.174 17.0191 31.25 16.9725C31.25 16.9925 31.2025 17.005 31.2325 17.0025L31.2275 17ZM19.75 17.1925H19.64C19.6766 17.0191 19.7354 16.851 19.815 16.6925H19.8875C19.8646 16.8647 19.8184 17.0329 19.75 17.1925V17.1925ZM19.8825 16.6625V16.6325C19.8825 16.595 19.9025 16.57 19.955 16.5575V16.5875C19.955 16.6325 19.935 16.6575 19.8825 16.6625ZM21.3375 17.7875V17.8175L21.155 17.835V17.805L21.3375 17.7875ZM21.1175 17.77C21.1175 17.8075 21.065 17.85 20.9425 17.89L20.72 17.8725H20.6475V17.805L21.125 17.76L21.1175 17.77ZM22.6 11H22.5V10.9625C22.5 10.925 22.5175 10.9 22.565 10.8875H22.605L22.68 10.9175C22.6815 10.9271 22.6808 10.9369 22.6781 10.9461C22.6753 10.9554 22.6705 10.9639 22.6641 10.9711C22.6576 10.9783 22.6496 10.984 22.6407 10.9877C22.6318 10.9914 22.6221 10.993 22.6125 10.9925L22.6 11ZM24.265 10.675H24.3V10.7425H24.2C24.1989 10.7337 24.1997 10.7247 24.2021 10.7161C24.2046 10.7075 24.2087 10.6995 24.2143 10.6925C24.2199 10.6855 24.2268 10.6797 24.2346 10.6755C24.2425 10.6712 24.2511 10.6685 24.26 10.6675L24.265 10.675ZM23.845 10.8225L23.68 10.805V10.75C23.8235 10.7405 23.9654 10.7136 24.1025 10.67C24.1025 10.695 24.1275 10.705 24.17 10.7V10.7675H24.105C24.0595 10.7737 24.0133 10.7659 23.9725 10.745C23.9344 10.7709 23.8907 10.7872 23.845 10.7925V10.8225ZM24.0525 11.425V11.395L24.32 11.37V11.4L24.0525 11.425ZM24.34 11.1925V11.155H24.47V11.1925H24.34ZM24.37 10.735H24.335L24.365 10.6625L24.6625 10.635V10.6725C24.5626 10.6843 24.4639 10.7043 24.3675 10.7325L24.37 10.735ZM24.5225 11.3775V11.31H24.6525C24.6975 11.31 24.7208 11.3309 24.7225 11.3725L24.5275 11.39L24.5225 11.3775ZM25.3125 10.3025L25.145 10.35H25.115C25.0143 10.359 24.9131 10.359 24.8125 10.35C25.03 10.335 25.2375 10.32 25.3125 10.3075V10.3025ZM25.1325 11.0525V11.0825L24.9025 11.1025V11.0725L25.1325 11.0525ZM25.51 11.2325C25.51 11.205 25.4625 11.185 25.3725 11.1775L25.1425 11.2425H24.965C24.925 11.215 24.905 11.195 24.9025 11.1825H25.1075L25.5675 11.1075H25.8025V11.145C25.7022 11.1538 25.6032 11.1739 25.5075 11.205L25.51 11.2325ZM27.8825 10.62H27.935C28.0148 10.5406 28.109 10.477 28.2125 10.4325C28.1612 10.7366 28.0251 11.0199 27.82 11.25L27.69 11.17C27.7668 10.9897 27.8311 10.8043 27.8825 10.615V10.62ZM27.4825 11.3075H27.515C27.47 11.3925 27.43 11.435 27.3975 11.4375V11.35C27.4303 11.3444 27.4613 11.3307 27.4875 11.31L27.4825 11.3075ZM27.2325 11.925C27.2525 11.7681 27.3147 11.6195 27.4125 11.495V11.5C27.38 11.7325 27.3275 11.8575 27.26 11.865V12.0125C27.2142 12.065 27.1862 12.1307 27.18 12.2H27.1475L27.13 11.9975C27.1675 11.9975 27.1975 11.96 27.2175 11.9L27.2325 11.925ZM27.1325 12.26C27.1229 12.3463 27.1001 12.4307 27.065 12.51H27.0325V12.4225C27.0775 12.32 27.115 12.2675 27.14 12.2675L27.1325 12.26ZM25.25 17.7V17.675H25.31V17.7625C25.2775 17.7625 25.255 17.745 25.245 17.705L25.25 17.7ZM27.935 17.77C27.935 17.75 27.935 17.74 27.9025 17.7425L27.75 17.75V17.725L28.1075 17.695V17.725C28.0418 17.7201 27.9762 17.7358 27.92 17.77H27.935ZM27.755 17.695C27.77 17.695 27.755 17.71 27.755 17.7125C27.755 17.715 27.7375 17.7125 27.755 17.695ZM27.7725 17.275L27.5725 17.2925V17.25H27.75L27.9075 17.21C27.9075 17.2275 27.9075 17.235 27.94 17.2325C28.1275 17.2 28.11 17.19 28.19 17.1825C28.22 17.1825 28.24 17.2 28.2425 17.235L27.76 17.2775L27.7725 17.275ZM28.4725 17.215C28.4075 17.2019 28.3412 17.1968 28.275 17.2V17.175L28.455 17.1575V17.1825C28.4375 17.1825 28.505 17.1825 28.4725 17.2125V17.215ZM28.4875 17.1825V17.1575H28.585V17.1825H28.4875ZM28.705 17.165V17.14C28.7309 17.1332 28.7549 17.1204 28.775 17.1025C28.7845 17.1011 28.7943 17.1018 28.8037 17.1043C28.813 17.1069 28.8217 17.1114 28.8292 17.1175C28.8368 17.1236 28.8429 17.1312 28.8474 17.1398C28.8518 17.1484 28.8544 17.1579 28.855 17.1675L28.705 17.165ZM28.9825 17.13V17.1H29.1025V17.13H28.9825ZM29.1475 17.115C29.1475 17.08 29.1475 17.06 29.19 17.055L29.23 17.1075C29.2292 17.1046 29.2291 17.1015 29.2296 17.0985C29.2301 17.0955 29.2312 17.0926 29.2328 17.09C29.2345 17.0875 29.2366 17.0853 29.2391 17.0835C29.2416 17.0818 29.2445 17.0806 29.2475 17.08L29.2775 17.135L29.1475 17.1175V17.115ZM27.3975 17.865V17.8075H27.38V17.865H27.3975ZM31.49 16.805C31.5075 16.805 31.5175 16.7825 31.4725 16.775C31.4275 16.7675 31.495 16.805 31.45 16.8075V16.8275L31.475 16.81L31.45 16.83L31.4 16.8925L31.4975 16.8575V16.8L31.49 16.805ZM31.66 16.9375H31.6425V16.995H31.78C31.78 16.9575 31.6875 16.945 31.6575 16.945L31.66 16.9375Z" fill="black"/>
<path d="M22.5 12.5326V12.5701H22.5775C22.5782 12.5331 22.5858 12.4967 22.6 12.4626V12.3951C22.5675 12.3951 22.535 12.4476 22.505 12.5401L22.5 12.5326ZM21.75 10.7501V10.6826H21.64V10.7501H21.75ZM19.62 14.7501C19.4591 14.4746 19.2614 14.2223 19.0325 14.0001C19.0325 13.9201 19.1575 13.8026 19.43 13.6451L20.21 13.0001C20.4158 12.6788 20.5228 12.3041 20.5175 11.9226V11.8076C20.4875 11.4626 20.2375 11.1851 19.7675 10.9726C19.4875 10.7842 18.9875 10.6801 18.2675 10.6601C17.4574 10.766 16.6658 10.9831 15.915 11.3051C15.6233 11.5126 15.3204 11.7037 15.0075 11.8776V11.9351C15.0401 11.9288 15.0709 11.9151 15.0975 11.8951C15.1053 11.8931 15.1135 11.8931 15.1214 11.8948C15.1293 11.8966 15.1367 11.9001 15.143 11.9052C15.1493 11.9103 15.1543 11.9168 15.1577 11.9241C15.1611 11.9315 15.1627 11.9395 15.1625 11.9476L15.22 11.9176H15.2475V11.9426C15.0594 12.1351 14.8477 12.3031 14.6175 12.4426L14.65 12.5026H14.6225L14.5525 12.4776C14.5525 12.4976 14.525 12.5126 14.4675 12.5176V12.5426L14.535 12.6276C14.5013 12.6267 14.4681 12.6191 14.4375 12.6051C14.325 12.6208 14.2219 12.6767 14.1475 12.7626L14.1875 12.5901C14.3159 12.0545 14.4127 11.5119 14.4775 10.9651V10.9351C14.3696 10.8636 14.2741 10.7749 14.195 10.6726C14.1977 10.6318 14.1977 10.5909 14.195 10.5501V10.5251H14.1675C13.8591 10.9867 13.2666 11.7742 12.39 12.8876C11.7233 13.6792 11.3783 14.1192 11.355 14.2076C11.0825 14.4901 10.9525 14.6601 10.965 14.7076C10.8925 14.7551 10.8625 14.8001 10.875 14.8526C10.8709 14.8541 10.8665 14.8547 10.8621 14.8544C10.8578 14.8541 10.8536 14.8528 10.8497 14.8506C10.8459 14.8485 10.8426 14.8455 10.8401 14.842C10.8375 14.8384 10.8358 14.8344 10.835 14.8301C10.7779 14.923 10.7023 15.0032 10.6128 15.0656C10.5233 15.1279 10.4219 15.1712 10.315 15.1926L10.065 15.2476C10.0571 15.2487 10.0496 15.2515 10.0429 15.2558C10.0361 15.26 10.0303 15.2656 10.0259 15.2722C10.0214 15.2787 10.0184 15.2862 10.0169 15.294C10.0155 15.3018 10.0157 15.3098 10.0175 15.3176V15.3476L10.1075 15.3276V15.3526L9.90248 15.4326L9.53998 15.5176H9.34998C9.32248 15.5451 9.50248 15.5176 9.43248 15.5326L9.18248 15.5876C9.03748 15.6201 8.95998 15.6076 8.93248 15.5501H8.90498C8.90948 15.5698 8.90948 15.5903 8.90498 15.6101L8.88998 15.5526L8.69998 15.5976C8.68665 15.5092 8.42915 15.1876 7.92748 14.6326C7.92748 14.5251 8.09498 14.3701 8.45748 14.1676L9.49998 13.2851C9.72831 12.9917 9.86415 12.5209 9.90748 11.8726L9.89248 11.7201C9.85248 11.2626 9.52248 10.8951 8.89248 10.6101C8.52498 10.3601 7.86248 10.2276 6.90748 10.2076C5.84435 10.3485 4.80503 10.6319 3.81748 11.0501C3.4344 11.3236 3.03536 11.574 2.62248 11.8001V11.8801C2.66535 11.8728 2.70622 11.8566 2.74248 11.8326C2.75247 11.8299 2.76294 11.8295 2.77308 11.8315C2.78322 11.8336 2.79277 11.8379 2.80098 11.8441C2.8092 11.8504 2.81586 11.8585 2.82045 11.8678C2.82505 11.877 2.82745 11.8872 2.82748 11.8976L2.90748 11.8526H2.94748V11.8901C2.69473 12.1377 2.41459 12.3558 2.11248 12.5401L2.15748 12.6101H2.12248L2.03748 12.5801C2.03748 12.6026 1.99998 12.6201 1.91748 12.6276V12.6701L2.00998 12.7726C1.96711 12.7722 1.9247 12.7637 1.88498 12.7476C1.77319 12.7708 1.66773 12.8179 1.57582 12.8856C1.48391 12.9533 1.40773 13.0401 1.35248 13.1401L1.39748 13.2101C1.47541 13.1268 1.56562 13.056 1.66498 13.0001V13.1151C1.62258 13.124 1.582 13.1401 1.54498 13.1626L1.63998 13.3076C1.82084 13.1162 2.02493 12.9483 2.24748 12.8076C2.35748 12.8351 2.41498 12.8701 2.41748 12.9076H2.50248C3.04329 12.4944 3.64563 12.1688 4.28748 11.9426V12.0226C4.17748 12.1892 4.10331 12.2726 4.06498 12.2726C4.06766 12.3267 4.08784 12.3784 4.12248 12.4201C4.13248 12.5201 3.86498 13.1951 3.31998 14.4451C2.10665 17.3367 1.07665 19.4776 0.22998 20.8676C0.237761 20.9084 0.254873 20.9469 0.27998 20.9801C0.419639 20.9572 0.553184 20.9062 0.67248 20.8301H0.71748V20.9101H0.79498L0.87498 20.8651C0.87498 20.8876 0.90248 20.9001 0.95748 20.8951V20.9751C0.94715 21.103 0.902213 21.2257 0.82748 21.3301C0.70221 21.5122 0.610753 21.7155 0.55748 21.9301V21.9676H0.63498C0.939458 21.637 1.19688 21.266 1.39998 20.8651C2.17594 20.6581 2.92959 20.375 3.64998 20.0201C4.07728 20.0082 4.49073 19.866 4.83498 19.6126V19.5701L4.63998 19.6276H4.59498V19.5851C4.87526 19.5659 5.14694 19.4802 5.38748 19.3351C6.13081 18.7617 6.69248 18.3559 7.07248 18.1176C7.85248 17.5442 8.35915 16.9859 8.59248 16.4426L8.72248 16.4126C8.78493 16.416 8.84753 16.416 8.90998 16.4126C8.90998 16.3926 8.90998 16.3801 8.93498 16.3751C9.10998 16.3576 9.02498 16.3751 9.13748 16.3601L9.42248 16.2501H9.47248L9.44998 16.2651C9.48549 16.2719 9.52197 16.2719 9.55748 16.2651L9.57748 16.3501L8.24998 18.4626L7.95498 18.8326L7.80998 19.3176H7.83748L7.98248 19.2576L7.93498 19.4451L7.94998 19.5001L7.98998 19.5501C7.97248 19.5501 7.96498 19.5676 7.96998 19.5876V19.6176L8.02998 19.6026C8.11831 19.5259 8.15581 19.4559 8.14248 19.3926C8.20447 19.4085 8.26876 19.4136 8.33248 19.4076V19.4376C8.27498 19.4526 8.24498 19.4976 8.23998 19.5776V19.6076H8.27248C8.75748 19.0776 9.94498 17.2701 10.8975 16.0401C10.8675 15.9067 11.3675 15.7217 12.3975 15.4851H12.43C12.4666 15.6517 12.3833 16.0409 12.18 16.6526C12.1063 16.8459 12.0519 17.046 12.0175 17.2501C11.9169 17.511 11.8399 17.7804 11.7875 18.0551L11.4225 19.2501C11.1836 19.8746 11.0028 20.5198 10.8825 21.1776C10.9155 21.1708 10.9495 21.1708 10.9825 21.1776L11.035 21.1326C11.0358 21.1369 11.0375 21.1409 11.0401 21.1445C11.0426 21.148 11.0459 21.151 11.0497 21.1531C11.0536 21.1553 11.0578 21.1566 11.0621 21.1569C11.0665 21.1572 11.0709 21.1566 11.075 21.1551L11.055 21.0701H11.2125C11.26 21.0701 11.2975 21.0001 11.3325 20.8926C11.3325 20.7326 11.3575 20.6426 11.43 20.6276C11.4669 20.4278 11.5273 20.2331 11.61 20.0476C11.6484 19.8229 11.7165 19.6043 11.8125 19.3976C11.95 18.8976 12.0625 18.6476 12.115 18.6326L12.13 18.6926L12.03 18.9426C11.9001 19.5692 11.7229 20.1852 11.5 20.7851L11.5525 21.0076H11.585C12.0183 20.0759 12.6416 18.2309 13.455 15.4726C13.464 15.3579 13.5002 15.2471 13.5606 15.1492C13.6211 15.0514 13.704 14.9694 13.8025 14.9101L13.755 14.8601V14.8351C13.8312 14.8233 13.9005 14.7842 13.95 14.7251C13.95 14.7051 13.865 14.6726 13.7 14.6326L14.105 12.8826C14.1498 12.8344 14.2021 12.7938 14.26 12.7626V12.8501C14.2273 12.8563 14.1965 12.87 14.17 12.8901L14.25 13.0001C14.3861 12.8513 14.5397 12.7195 14.7075 12.6076C14.7925 12.6301 14.8325 12.6601 14.8375 12.6876H14.8975C15.3078 12.3769 15.7641 12.1323 16.25 11.9626V12.0201C16.1683 12.1434 16.1125 12.2059 16.0825 12.2076C16.0858 12.2475 16.0986 12.2861 16.12 12.3201C15.9595 12.8483 15.758 13.3632 15.5175 13.8601C14.8399 15.5392 14.0541 17.1727 13.165 18.7501C13.1727 18.7812 13.1872 18.8102 13.2075 18.8351C13.312 18.8178 13.4117 18.7786 13.5 18.7201H13.5275V18.7776H13.5925L13.65 18.7476C13.65 18.7642 13.6708 18.7709 13.7125 18.7676V18.8301C13.7038 18.9258 13.6692 19.0174 13.6125 19.0951C13.5133 19.2318 13.4412 19.3863 13.4 19.5501V19.5801H13.46C13.6912 19.3291 13.8864 19.0473 14.04 18.7426C14.6299 18.5813 15.2026 18.3627 15.75 18.0901C16.0762 18.0816 16.3921 17.9734 16.655 17.7801V17.7501L16.5025 17.7951H16.475V17.7651C16.6874 17.7495 16.8931 17.6835 17.075 17.5726C17.6375 17.1401 18.075 16.8226 18.355 16.6476C19.25 16.0001 19.67 15.3651 19.62 14.7501ZM19.465 14.7901L19.485 15.0251C19.4575 15.0826 19.4275 15.1126 19.4 15.1151L19.365 14.7151C19.43 14.7376 19.4625 14.7626 19.465 14.7901V14.7901ZM1.82748 12.9051H1.78748V12.8326L1.94748 12.8176V12.8551C1.90546 12.8626 1.86546 12.8788 1.82998 12.9026L1.82748 12.9051ZM1.04248 20.7501C0.965099 20.7112 0.878954 20.6931 0.79248 20.6976V20.5826C0.79248 20.5376 0.81248 20.5076 0.86998 20.4976C0.92748 20.4876 0.95248 20.5301 0.95498 20.6051C1.02072 20.5146 1.09525 20.4309 1.17748 20.3551L1.26248 20.3901C1.23498 20.6226 1.16248 20.7426 1.04748 20.7501H1.04248ZM9.42998 11.9751C9.38998 11.9751 9.30998 11.8551 9.19748 11.6126V11.5401C9.27248 11.5401 9.34998 11.6551 9.42998 11.9026V11.9751ZM9.31748 11.1051L9.28498 11.1826L8.14498 10.7076C8.90498 10.7326 9.29581 10.8651 9.31748 11.1051V11.1051ZM4.49998 15.2501L4.33998 15.2651V15.1926L4.49998 15.1776V15.2501ZM4.36998 12.7701H4.40998V12.8851C4.37248 12.8851 4.32498 12.9426 4.26248 13.0501V12.9701C4.33498 12.8851 4.37248 12.8176 4.36748 12.7726L4.36998 12.7701ZM4.03248 13.5676L4.04748 13.7201H4.00748L3.99998 13.5626L4.03248 13.5676ZM3.85498 13.8526H3.93248C3.93248 13.9776 3.88998 14.0451 3.82748 14.0501H3.78748C3.82782 13.9936 3.85123 13.9268 3.85498 13.8576V13.8526ZM3.72998 14.2501H3.77498V14.2876L3.70248 14.4076H3.62498V14.3701C3.64065 14.3713 3.65638 14.3688 3.6709 14.3627C3.68542 14.3567 3.69831 14.3474 3.70854 14.3354C3.71877 14.3235 3.72604 14.3093 3.72976 14.2941C3.73349 14.2788 3.73356 14.2629 3.72998 14.2476V14.2501ZM3.59998 14.6076L3.57748 14.7976H3.53748L3.51998 14.6101H3.59998V14.6076ZM2.29248 18.3126C2.23998 18.5626 2.18498 18.7051 2.12748 18.7101V18.6726C2.12332 18.6034 2.13645 18.5342 2.16569 18.4714C2.19494 18.4085 2.23937 18.354 2.29498 18.3126H2.29248ZM2.04248 18.8326V18.8701C2.0453 18.8805 2.04559 18.8914 2.04332 18.9019C2.04106 18.9125 2.0363 18.9223 2.02944 18.9307C2.02259 18.939 2.01384 18.9455 2.00393 18.9498C1.99402 18.954 1.98323 18.9558 1.97248 18.9551V18.9176C1.97248 18.8726 1.99581 18.8442 2.04248 18.8326ZM1.97248 19.9101H2.09248V19.9526C2.04961 19.9599 2.00874 19.9761 1.97248 20.0001H1.89498C1.89498 19.9601 1.91498 19.9301 1.96498 19.9151L1.97248 19.9101ZM5.41998 18.8451C4.99651 19.0286 4.59416 19.2574 4.21998 19.5276C3.49165 19.7842 3.13081 19.9417 3.13748 20.0001C2.69571 20.1662 2.26413 20.3582 1.84498 20.5751C1.77077 20.574 1.69791 20.5551 1.63248 20.5201C1.62781 20.4546 1.64205 20.3891 1.67352 20.3315C1.70499 20.2739 1.75236 20.2265 1.80998 20.1951C1.922 20.1864 2.03445 20.2052 2.13748 20.2501C2.34051 20.1591 2.5525 20.0895 2.76998 20.0426V19.9626L2.51998 19.9826C2.73965 19.8463 2.9746 19.7364 3.21998 19.6551H3.33998V19.6926C3.13248 19.7101 3.01748 19.7726 2.99248 19.8801C2.99248 19.9301 3.02498 19.9501 3.07748 19.9451C3.23248 19.8476 3.30998 19.7901 3.30748 19.7726C3.60248 19.7159 4.41998 19.2884 5.75998 18.4901V18.5626C5.75998 18.5976 5.64748 18.6951 5.41748 18.8626L5.41998 18.8451ZM3.36498 19.5201C3.5541 19.5049 3.73152 19.4224 3.86498 19.2876C3.91998 19.2876 3.94998 19.3051 3.95248 19.3526C3.75719 19.4044 3.57209 19.489 3.40498 19.6026H3.36498V19.5251V19.5201ZM6.69248 16.9751L5.66498 17.7901C5.27162 18.069 4.85891 18.3197 4.42998 18.5401C3.21331 19.2067 2.45748 19.5542 2.16248 19.5826H2.11748C2.15415 19.4459 2.69581 18.3367 3.74248 16.2551C4.49296 16.1343 5.22479 15.9175 5.91998 15.6101L6.16998 15.5901C6.36676 15.5549 6.56879 15.5624 6.76243 15.612C6.95607 15.6616 7.13682 15.7522 7.29248 15.8776L7.30748 16.0301C7.12248 16.5626 6.91748 16.8751 6.69748 16.9676L6.69248 16.9751ZM4.69248 15.8451L4.85748 15.8301V15.8676L4.69248 15.8826V15.8451ZM6.99998 15.4526H7.11998C7.23248 15.5051 7.28998 15.5526 7.29498 15.5951V15.6326C7.23421 15.6317 7.17479 15.6145 7.12291 15.5828C7.07102 15.5512 7.02858 15.5062 6.99998 15.4526ZM7.32748 13.5826C7.06043 13.8342 6.76513 14.054 6.44748 14.2376C6.28998 14.2526 5.69748 14.4876 4.67998 14.9276C4.62911 14.9045 4.57311 14.895 4.51748 14.9001V14.8276C4.52301 14.6263 4.59216 14.4321 4.71498 14.2726C4.79498 13.8526 4.87998 13.6126 4.96498 13.5551L5.81498 11.6426C5.80498 11.5242 5.98665 11.4334 6.35998 11.3701H6.47998V11.4801C6.84498 11.4251 7.07498 11.3926 7.16248 11.3851C7.83748 11.3276 8.18998 11.4651 8.21748 11.7926H8.29498L8.27748 11.6001H8.36248C8.44496 11.634 8.51753 11.6883 8.57347 11.7578C8.62941 11.8273 8.6669 11.9097 8.68248 11.9976C8.67466 12.1465 8.61342 12.2876 8.50998 12.3951C8.45748 12.3951 8.42748 12.3626 8.42498 12.2876H8.33998L8.32248 12.5201C7.98081 13.0317 7.73081 13.2951 7.57248 13.3101C7.43248 13.5026 7.34748 13.6001 7.32248 13.6001L7.32748 13.5826ZM7.84998 14.9226C7.8021 14.8843 7.74364 14.8616 7.68248 14.8576V14.7426H7.75998L7.92998 14.8426C7.9328 14.853 7.93309 14.8639 7.93082 14.8744C7.92856 14.885 7.92379 14.8948 7.91694 14.9032C7.91009 14.9115 7.90134 14.918 7.89143 14.9223C7.88152 14.9265 7.87073 14.9283 7.85998 14.9276L7.84998 14.9226ZM8.38998 15.5626C8.46498 15.5926 8.50998 15.6251 8.51748 15.6551H8.45748L8.40248 15.7001L8.38748 15.5451L8.38998 15.5626ZM8.43998 15.8851V15.8551L8.53748 15.8326V15.8626L8.43998 15.8851ZM8.67498 16.1476C8.77498 16.1301 8.82498 16.1251 9.00998 16.0826V16.1126L8.65498 16.1951C8.65579 16.1792 8.65579 16.1634 8.65498 16.1476H8.67498ZM9.01998 16.2951C8.90009 16.2976 8.78092 16.3144 8.66498 16.3451V16.3151L8.96248 16.2201L9.10498 16.1876L9.11998 16.2426C9.05498 16.2576 9.10248 16.2576 9.02748 16.2951H9.01998ZM9.33498 16.2201C9.32661 16.2223 9.31787 16.2229 9.30928 16.2217C9.30069 16.2205 9.29243 16.2176 9.28497 16.2132C9.27752 16.2087 9.27102 16.2029 9.26587 16.1959C9.26072 16.1889 9.25702 16.181 9.25498 16.1726L9.34498 16.1526C9.35303 16.1494 9.36171 16.1482 9.37032 16.149C9.37893 16.1498 9.38723 16.1527 9.39453 16.1573C9.40184 16.1619 9.40795 16.1682 9.41237 16.1756C9.41679 16.1831 9.4194 16.1914 9.41998 16.2001L9.33498 16.2201V16.2201ZM10.1875 15.3026V15.2726L10.335 15.2376L10.35 15.2926H10.195L10.1875 15.3026ZM11.0975 20.8876C11.1037 20.8571 11.1037 20.8256 11.0975 20.7951H11.13C11.1375 20.7919 11.1457 20.7905 11.1538 20.7911C11.1619 20.7916 11.1698 20.7941 11.1769 20.7982C11.1839 20.8023 11.1899 20.808 11.1943 20.8148C11.1988 20.8217 11.2016 20.8295 11.2025 20.8376V20.8676L11.0825 20.8951L11.0975 20.8876ZM11.75 15.5401H11.685C11.599 15.5759 11.5104 15.6051 11.42 15.6276L11.36 15.6426C11.3521 15.6452 11.3438 15.6462 11.3355 15.6455C11.3272 15.6448 11.3192 15.6423 11.3119 15.6383C11.3046 15.6343 11.2982 15.6289 11.2932 15.6223C11.2881 15.6157 11.2845 15.6081 11.2825 15.6001L11.7025 15.5001L11.8425 15.4351L11.89 15.4876C11.8373 15.4949 11.7874 15.5156 11.745 15.5476L11.75 15.5401ZM12.0775 15.4351V15.4051C12.1085 15.3952 12.1361 15.3771 12.1575 15.3526L12.46 15.2826V15.3126C12.3293 15.3416 12.2013 15.3817 12.0775 15.4326V15.4351ZM12.125 14.8226C12.0934 14.8342 12.0645 14.852 12.04 14.8751C12.04 14.8551 11.9925 14.8551 11.915 14.8751C11.9 14.8176 12.125 14.7351 12.5875 14.6251L12.6525 14.6101L12.6675 14.6651C12.3425 14.7601 12.1675 14.8151 12.125 14.8201V14.8226ZM12.94 13.9426C12.9075 14.3126 12.7775 14.5226 12.5475 14.5751V14.5451L12.3425 14.6251L12.2525 14.6451C12.2116 14.6567 12.1683 14.6567 12.1275 14.6451L12.11 14.5626C12.3812 14.1355 12.6784 13.7256 13 13.3351H13.07C13.079 13.541 13.0378 13.7461 12.95 13.9326L12.94 13.9426ZM14.3825 12.7076H14.355V12.6501H14.475V12.6801C14.4435 12.6888 14.4133 12.7014 14.385 12.7176L14.3825 12.7076ZM13.7825 18.6726C13.7248 18.6422 13.6601 18.6276 13.595 18.6301V18.5426C13.595 18.5126 13.6133 18.4917 13.65 18.4801C13.69 18.4801 13.7125 18.5026 13.7175 18.5651C13.7651 18.4942 13.8213 18.4295 13.885 18.3726L13.9475 18.3976C13.925 18.5751 13.87 18.6676 13.7875 18.6751L13.7825 18.6726ZM20.15 12.0001C20.12 12.0001 20.0625 11.9101 19.97 11.7201V11.6626C20.0275 11.6626 20.09 11.7476 20.15 11.9351V12.0001ZM20.065 11.3351L20.0375 11.3951L19.175 11.0351C19.75 11.0526 20.0475 11.1551 20.065 11.3351V11.3351ZM16.4125 14.4826H16.2925V14.4251H16.4125V14.4826ZM16.3125 12.5976H16.345V12.6851C16.315 12.6851 16.2775 12.7267 16.2325 12.8101V12.7526C16.2746 12.7108 16.3019 12.6563 16.31 12.5976H16.3125ZM16.0625 13.2026V13.3176H16.03V13.2026H16.0625ZM15.925 13.4201H15.985C15.985 13.5184 15.9591 13.5692 15.9075 13.5726H15.875C15.9045 13.5269 15.9218 13.4744 15.925 13.4201V13.4201ZM15.8275 13.7176H15.855V13.7501L15.8025 13.8426H15.7425V13.8126C15.805 13.8126 15.8325 13.7751 15.8275 13.7176ZM15.725 14.0001L15.705 14.1501H15.675V14.0026H15.735L15.725 14.0001ZM14.725 16.8251C14.685 17.0201 14.6433 17.1201 14.6 17.1251V17.1001C14.5979 17.0474 14.6084 16.995 14.6306 16.9472C14.6527 16.8994 14.686 16.8575 14.7275 16.8251H14.725ZM14.54 17.2176V17.2426C14.5425 17.2508 14.5429 17.2595 14.5412 17.2679C14.5396 17.2764 14.5359 17.2843 14.5304 17.2909C14.525 17.2976 14.518 17.3028 14.5101 17.3062C14.5022 17.3095 14.4935 17.3108 14.485 17.3101V17.2801C14.485 17.2501 14.5033 17.2292 14.54 17.2176V17.2176ZM14.5 18.0276H14.5925V18.0576C14.5606 18.0637 14.5301 18.0755 14.5025 18.0926H14.4425C14.4425 18.0592 14.4608 18.0384 14.4975 18.0301L14.5 18.0276ZM17.115 17.2201C16.7949 17.362 16.4894 17.5344 16.2025 17.7351C15.6425 17.9301 15.3675 18.0526 15.37 18.1001C15.0366 18.2236 14.711 18.3672 14.395 18.5301C14.3389 18.5277 14.2841 18.5123 14.235 18.4851C14.2294 18.4346 14.2394 18.3837 14.2635 18.339C14.2876 18.2944 14.3248 18.2581 14.37 18.2351C14.4551 18.227 14.5409 18.2399 14.62 18.2726C14.7756 18.2059 14.9372 18.154 15.1025 18.1176V18.0601L14.915 18.0776C15.0828 17.9734 15.2624 17.8895 15.45 17.8276H15.5425V17.8526C15.385 17.8676 15.2925 17.9126 15.2775 17.9976C15.2772 18.0057 15.2789 18.0137 15.2823 18.021C15.2856 18.0284 15.2907 18.0348 15.297 18.0399C15.3033 18.045 15.3106 18.0486 15.3185 18.0503C15.3264 18.0521 15.3346 18.052 15.3425 18.0501C15.46 17.9726 15.515 17.9301 15.515 17.9151C15.7383 17.8751 16.3583 17.5501 17.375 16.9401V16.9976C17.375 17.0201 17.29 17.0951 17.125 17.2226L17.115 17.2201ZM15.555 17.7201C15.7006 17.7088 15.8377 17.6469 15.9425 17.5451C15.9825 17.5451 16.005 17.5601 16.0075 17.5976C15.8609 17.6352 15.7209 17.695 15.5925 17.7751H15.56V17.7201H15.555ZM18.075 15.7851L17.3 16.4101C16.9992 16.6299 16.6825 16.8271 16.3525 17.0001C15.4308 17.5001 14.8566 17.7634 14.63 17.7901H14.5975C14.6258 17.6851 15.0383 16.8434 15.835 15.2651C16.4048 15.1691 16.9601 15.0011 17.4875 14.7651L17.675 14.7501C17.8243 14.7236 17.9776 14.7297 18.1244 14.7681C18.2711 14.8065 18.4078 14.8763 18.525 14.9726V15.0876C18.3925 15.5001 18.25 15.7251 18.07 15.7951L18.075 15.7851ZM16.5525 14.9276H16.6725V14.9576H16.5525V14.9276ZM18.315 14.6276H18.4075C18.4925 14.6701 18.5375 14.7076 18.54 14.7376V14.7626C18.494 14.7643 18.4484 14.7533 18.4083 14.7308C18.3681 14.7083 18.335 14.6752 18.3125 14.6351L18.315 14.6276ZM18.565 13.2101C18.3636 13.4021 18.1404 13.5699 17.9 13.7101C17.436 13.853 16.9845 14.0336 16.55 14.2501C16.5108 14.236 16.4691 14.23 16.4275 14.2326V14.1751C16.4285 14.0222 16.4775 13.8736 16.5675 13.7501C16.6275 13.4276 16.695 13.2501 16.765 13.2076L17.4175 11.7501C17.4175 11.6651 17.5475 11.5951 17.8275 11.5401H17.92V11.6276C18.195 11.5826 18.3675 11.5567 18.4375 11.5501C18.9375 11.5051 19.2175 11.6076 19.24 11.8601H19.3V11.7201H19.36C19.4238 11.743 19.4805 11.7824 19.5244 11.8342C19.5683 11.8859 19.5978 11.9483 19.61 12.0151C19.6061 12.1279 19.5628 12.2359 19.4875 12.3201C19.4475 12.3201 19.425 12.2976 19.42 12.2351H19.36L19.3425 12.4101C19.0625 12.7901 18.875 13.0001 18.75 13.0001C18.645 13.1426 18.58 13.2151 18.55 13.2176L18.565 13.2101ZM18.8375 14.1801V14.0926H18.8975L19.0275 14.1726C19.0286 14.1804 19.0279 14.1884 19.0257 14.1959C19.0234 14.2035 19.0195 14.2105 19.0143 14.2164C19.0091 14.2223 19.0026 14.2271 18.9954 14.2303C18.9882 14.2335 18.9804 14.2351 18.9725 14.2351C18.9355 14.2069 18.8913 14.1895 18.845 14.1851L18.8375 14.1801ZM7.98498 19.8476L7.92498 19.8626L7.87248 19.9076C7.8734 19.9157 7.87619 19.9235 7.88064 19.9303C7.88508 19.9371 7.89106 19.9428 7.8981 19.947C7.90513 19.9511 7.91303 19.9535 7.92117 19.9541C7.92931 19.9546 7.93746 19.9532 7.94498 19.9501C7.98498 19.9501 7.99998 19.9176 7.99248 19.8801V19.8501L7.98498 19.8476ZM7.74998 19.3876V19.4176C7.78998 19.4176 7.80498 19.3851 7.79748 19.3476V19.3176C7.78944 19.3184 7.78168 19.3209 7.77474 19.325C7.76779 19.3291 7.76184 19.3347 7.75731 19.3414C7.75278 19.3481 7.74977 19.3557 7.7485 19.3637C7.74724 19.3717 7.74774 19.3798 7.74998 19.3876V19.3876ZM9.39998 16.2901L9.44498 16.2626H9.42248C9.41559 16.2643 9.40966 16.2687 9.40593 16.2748C9.4022 16.2808 9.40096 16.2881 9.40248 16.2951L9.39998 16.2901ZM9.39998 15.4876L9.46998 15.4701L9.45498 15.4101L9.38498 15.4276L9.39998 15.4876ZM25.8625 17.8401L25.705 17.8226L25.6775 17.8826V17.9126L26.62 17.8326V17.7751L25.87 17.8401H25.8625ZM26.725 17.7676V17.8251V17.7676ZM30.675 17.2501V17.3076L30.7775 17.3251V17.2676L30.675 17.2501ZM30.53 17.2501C30.222 17.3358 29.9046 17.3837 29.585 17.3926V17.4501H29.685L29.7625 17.4201C30.4625 17.3426 30.545 17.3701 30.5375 17.2926V17.2501H30.53ZM26.28 16.2201L26.2175 16.2001C26.1822 16.28 26.157 16.3639 26.1425 16.4501V16.4751C26.1925 16.4751 26.235 16.3901 26.2775 16.2251L26.28 16.2201ZM25.4275 15.7601V15.7501H25.395L25.3375 15.7876L25.37 15.8426C25.415 15.8426 25.435 15.8176 25.43 15.7776L25.4275 15.7601ZM27.28 17.6751V17.6176H27.25V17.6751H27.28ZM31.1225 16.8076H31.1675C31.1925 16.8076 31.205 16.7851 31.2025 16.7476L31.1775 16.6926C31.0499 16.6919 30.9243 16.7237 30.8125 16.7851V16.7551L30.62 16.7726C30.62 16.7151 30.6 16.6851 30.5725 16.6876H30.4725C30.355 16.6876 30.3 16.6876 30.2425 16.7376C30.2425 16.7176 30.2425 16.7076 30.2225 16.7076H30.11L30.045 16.7451C30.045 16.7251 30.045 16.7151 30.025 16.7151L29.985 16.7501H29.7925V16.8076L29.8725 16.8276H29.9475C29.9731 16.8426 30.003 16.8487 30.0325 16.8451L30.0975 16.8126V16.8376C29.8953 16.8902 29.6898 16.9294 29.4825 16.9551C29.4649 16.9403 29.443 16.9315 29.42 16.9301C29.4134 16.9297 29.407 16.9281 29.401 16.9253C29.3951 16.9225 29.3898 16.9186 29.3853 16.9137C29.3809 16.9088 29.3775 16.9031 29.3753 16.8969C29.3731 16.8907 29.3721 16.8841 29.3725 16.8776L29.5025 16.8601C29.5312 16.8692 29.5604 16.8767 29.59 16.8826C29.695 16.8301 29.7 16.8101 29.755 16.8051V16.7476C29.5356 16.7879 29.3131 16.8088 29.09 16.8101H29.07V16.7526C29.6475 16.6826 29.455 16.7226 29.6525 16.6676C29.6525 16.6876 29.6525 16.6976 29.6725 16.6976C29.6938 16.6755 29.722 16.6614 29.7525 16.6576H29.7925C30.0191 16.6645 30.2453 16.635 30.4625 16.5701V16.5951L30.5275 16.5626H30.5875C30.5875 16.5051 30.6725 16.4951 30.7025 16.4926V16.4301C30 16.5726 29.815 16.5326 29.62 16.5876V16.5626C29.5381 16.5815 29.4538 16.5883 29.37 16.5826C29.3476 16.5893 29.3277 16.6023 29.3125 16.6201C29.3125 16.6001 29.3125 16.5901 29.29 16.5901L28.6925 16.6876C28.6925 16.6701 28.6925 16.6626 28.67 16.6651C28.4614 16.7262 28.2468 16.7647 28.03 16.7801C28.0021 16.7851 27.9756 16.7962 27.9525 16.8126C27.9525 16.7951 27.9525 16.7876 27.92 16.7901L27.67 16.8101L27.5 16.8526C27.5 16.8351 27.5 16.8276 27.4675 16.8301C27.3858 16.8537 27.3021 16.8696 27.2175 16.8776C27.175 16.8776 27.2375 16.8776 27.2175 16.8526L27.165 16.8826H26.875C26.425 16.9376 26.475 16.9451 26.425 16.9476H26.2575C26.2583 16.9511 26.2583 16.9548 26.2574 16.9584C26.2565 16.9619 26.2547 16.9652 26.2522 16.9679C26.2498 16.9706 26.2467 16.9727 26.2432 16.9739C26.2398 16.9752 26.2361 16.9756 26.2325 16.9751C26.0425 16.9501 25.9425 16.9201 25.9425 16.8851C25.9675 16.7034 26.0116 16.6101 26.075 16.6051H26.1075L26.08 16.6651H26.1125C26.1725 16.6326 26.2 16.6026 26.1975 16.5751V16.5126H26.1375V16.4551C26.1319 16.415 26.138 16.3742 26.155 16.3376L26.2925 16.1151V16.1726H26.3575V16.1151L26.32 16.0626C26.3522 16.0297 26.3928 16.0063 26.4375 15.9951V15.9651H26.35V15.8776C26.4626 15.676 26.5467 15.4598 26.6 15.2351L26.6625 15.2601C26.7025 15.2601 26.72 15.2351 26.7175 15.1926H26.6575V15.1676C26.6532 15.1254 26.661 15.0829 26.68 15.0451C26.7227 15.0069 26.7565 14.9598 26.779 14.9071C26.8015 14.8544 26.812 14.7973 26.81 14.7401C26.8275 14.7401 26.8375 14.7401 26.84 14.7676C26.9225 14.7201 26.985 14.5976 27.03 14.3926C27.2729 13.8872 27.4793 13.365 27.6475 12.8301C28.16 11.4501 28.1475 11.3051 28.21 10.9776H28.15C28.1545 11.0189 28.1467 11.0607 28.1275 11.0976C28.0968 11.0836 28.0637 11.0759 28.03 11.0751V11.0501C28.0325 10.8947 28.0861 10.7445 28.1825 10.6226H28.21L28.2625 10.8226H28.3225C28.3325 10.7382 28.3484 10.6547 28.37 10.5726C28.37 10.5426 28.345 10.5226 28.2975 10.5201L28.24 10.5576V10.2326H28.21C28.1696 10.2004 28.1414 10.1554 28.13 10.1051L27.7975 10.1376C27.7912 10.1014 27.7785 10.0667 27.76 10.0351C27.76 10.0051 27.8325 9.97507 27.985 9.94507L28.0525 9.97007L28.115 9.93257C28.115 9.95257 28.13 9.96257 28.1525 9.96007L28.215 9.92257C28.215 9.94257 28.23 9.95257 28.2525 9.95007H28.2825V9.88257H27.9175L27.855 9.92507V9.88757C26.2916 10.0159 25.4041 10.0901 25.1925 10.1101H24.8625C24.8625 10.1351 24.8425 10.1501 24.795 10.1551L24.7275 10.1251L24.5 10.1826C24.4102 10.1906 24.3198 10.1906 24.23 10.1826C24.1935 10.2117 24.149 10.2291 24.1025 10.2326L24.77 10.1901C24.7219 10.2227 24.6655 10.2409 24.6075 10.2426C24.5621 10.2487 24.5158 10.2409 24.475 10.2201C24.3112 10.2705 24.1441 10.3098 23.975 10.3376L23.9075 10.3126L22.8175 10.4801C22.7714 10.459 22.7203 10.4512 22.67 10.4576C22.5718 10.4704 22.4748 10.4913 22.38 10.5201L21.8525 10.7401L21.8925 10.8051C21.9308 10.7982 21.9673 10.7837 22 10.7626L22.1875 10.7801L22.165 10.9551C22.0854 10.9696 22.011 11.0043 21.9488 11.056C21.8866 11.1077 21.8388 11.1745 21.81 11.2501C21.56 11.3651 21.4225 11.4451 21.4225 11.5001V11.5301H21.4625L21.5325 11.4926L21.615 11.5901V11.7251C21.615 11.7667 21.1808 12.6834 20.3125 14.4751C19.5625 16.2001 19.1625 17.1426 19.125 17.3126C18.875 17.3851 18.7175 17.4901 18.6725 17.6301C18.6725 17.6751 18.755 17.7051 18.9025 17.7151V17.7826L18.835 17.8951V18.0301C18.835 18.1001 19.0233 18.1534 19.4 18.1901C19.4 18.1676 19.4 18.1526 19.435 18.1501C19.4324 18.319 19.4089 18.4869 19.365 18.6501H19.405C19.518 18.5298 19.5943 18.3797 19.625 18.2176H19.6575C19.695 18.2176 19.735 18.2576 19.78 18.3476C19.7333 18.3659 19.5666 18.7367 19.28 19.4601L19.32 19.5251H19.36C19.7016 18.6584 19.9166 18.1792 20.005 18.0876C20.455 18.0476 21.2325 17.9642 22.3375 17.8376L22.4075 17.7951C22.4072 17.8003 22.4082 17.8056 22.4105 17.8103C22.4127 17.8151 22.416 17.8193 22.4202 17.8225C22.4244 17.8257 22.4293 17.8278 22.4345 17.8287C22.4396 17.8296 22.445 17.8292 22.45 17.8276H22.5225L22.5925 17.7851C22.5922 17.7903 22.5932 17.7956 22.5955 17.8003C22.5977 17.8051 22.601 17.8093 22.6052 17.8125C22.6094 17.8157 22.6143 17.8178 22.6195 17.8187C22.6247 17.8196 22.63 17.8192 22.635 17.8176L23.5 17.7176C23.7225 17.7001 23.825 17.6326 23.8175 17.5176C23.8175 17.4876 23.945 17.4526 24.21 17.4151C24.2492 17.4146 24.2882 17.4214 24.325 17.4351C24.325 17.4151 24.455 17.3926 24.72 17.3701C24.72 17.2301 24.77 17.1551 24.85 17.1476V17.0801C24.7648 17.0899 24.6809 17.1092 24.6 17.1376C24.488 17.1362 24.3766 17.1228 24.2675 17.0976C24.2347 17.1184 24.1982 17.1328 24.16 17.1401L23.5775 17.1576L23.5075 17.1951C23.5075 17.1734 23.4933 17.1642 23.465 17.1676H23.4325L23.3575 17.2051C23.3575 17.1851 23.295 17.1676 23.1725 17.1526L23.0975 17.1976H22.9525V17.1751C23.7025 17.0934 24.0725 16.9917 24.0625 16.8701C24.0724 16.8677 24.0827 16.8677 24.0926 16.87C24.1025 16.8724 24.1118 16.877 24.1195 16.8836C24.1273 16.8902 24.1335 16.8985 24.1374 16.9079C24.1414 16.9172 24.1432 16.9274 24.1425 16.9376L24.3625 16.8826V16.8151L22.5675 16.8651C22.5675 16.8876 22.5675 16.9026 22.5325 16.9051L22.3125 16.8876C22.262 16.8905 22.2134 16.9079 22.1725 16.9376L22.09 16.9076C21.921 16.9181 21.7534 16.9457 21.59 16.9901C21.4236 16.977 21.2564 16.977 21.09 16.9901L20.6875 17.0251L20.475 17.0001C20.475 16.8801 20.6975 16.2976 21.1725 15.2501C21.2428 15.001 21.3753 14.7739 21.5575 14.5901C21.5974 14.5906 21.6367 14.6 21.6725 14.6176L21.96 14.5201L22.1075 14.5426C22.4031 14.5102 22.6931 14.4387 22.97 14.3301C23.033 14.3211 23.0972 14.3271 23.1575 14.3476L23.3775 14.2951L24.0225 14.2501C24.3299 14.2209 24.6333 14.1589 24.9275 14.0651V13.9976C24.8075 13.9976 24.7425 13.9976 24.74 13.9401C24.74 13.8501 24.645 13.8126 24.475 13.8251V13.7576L24.655 13.7051L25.125 13.6651V13.5976H24.835V13.5251L25.0175 13.5076C25.0675 13.5076 25.0875 13.4801 25.0825 13.4326C24.8325 13.4326 24.715 13.4326 24.7125 13.3951C23.0075 13.4784 22.1525 13.4942 22.1475 13.4426C22.1088 13.451 22.0722 13.4671 22.04 13.4901L21.995 13.4201C22.4466 12.4601 22.7116 11.9767 22.79 11.9701C22.7854 12.0334 22.7666 12.095 22.735 12.1501V12.1801H22.8075C22.9875 11.7526 23.1375 11.5301 23.265 11.5201C23.8 11.4726 23.19 11.4376 24.3375 11.2701C24.3689 11.2874 24.4041 11.2968 24.44 11.2976C24.89 11.2059 25.5166 11.1109 26.32 11.0126V10.9451L25.8925 10.9851V10.9176C25.939 10.9141 25.9835 10.8967 26.02 10.8676V10.9051C26.0556 10.8966 26.0888 10.8803 26.1175 10.8576C26.1749 10.848 26.2338 10.8549 26.2875 10.8776C26.4055 10.8445 26.5259 10.8203 26.6475 10.8051L26.915 10.7801C26.98 10.7376 27.01 10.7001 27.0075 10.6651V10.6351C26.9288 10.6411 26.8497 10.636 26.7725 10.6201C26.7714 10.6112 26.7722 10.6022 26.7746 10.5936C26.7771 10.585 26.7812 10.577 26.7868 10.57C26.7924 10.5631 26.7993 10.5573 26.8071 10.553C26.815 10.5487 26.8236 10.546 26.8325 10.5451L27.3325 10.4976L27.56 10.4401C27.56 10.4651 27.575 10.4751 27.5925 10.4751C27.6281 10.4666 27.6613 10.4503 27.69 10.4276H27.7275C27.6871 10.5157 27.6537 10.6068 27.6275 10.7001H27.5625C27.5591 10.6578 27.5463 10.6168 27.525 10.5801H27.4925C26.8875 12.2676 26.6175 13.0526 26.0575 14.3476C25.955 14.6776 25.87 14.8626 25.795 14.9026C25.7947 14.9107 25.7964 14.9187 25.7998 14.926C25.8031 14.9334 25.8082 14.9398 25.8145 14.9449C25.8208 14.95 25.8281 14.9536 25.836 14.9553C25.8439 14.9571 25.8521 14.957 25.86 14.9551C25.8729 15.124 25.8327 15.2927 25.745 15.4376C25.495 16.1876 25.315 16.5901 25.225 16.6651L25.25 17.0001C25.2511 17.0079 25.2504 17.0159 25.2482 17.0234C25.2459 17.031 25.242 17.038 25.2368 17.0439C25.2316 17.0498 25.2251 17.0546 25.2179 17.0578C25.2107 17.061 25.2029 17.0626 25.195 17.0626H25.135C25.135 16.9651 25.09 16.9176 25.0275 16.9251H24.995C24.9111 17.0572 24.8503 17.2026 24.815 17.3551H24.875C24.9097 17.3379 24.9388 17.311 24.9587 17.2778C24.9787 17.2446 24.9886 17.2063 24.9875 17.1676H25.1075L25.1775 17.1926C25.1302 17.2537 25.1032 17.3279 25.1 17.4051L25.1325 17.4601L25.0525 17.6476V17.6776C25.1333 17.6743 25.2131 17.6971 25.28 17.7426C25.3469 17.7333 25.4105 17.7075 25.465 17.6676H26.245L26.47 17.5901C26.656 17.5942 26.8421 17.5883 27.0275 17.5726H27.125L27.1775 17.5376V17.5676C27.3308 17.5501 27.4859 17.556 27.6375 17.5851V17.6151H27.5V17.6726C27.5401 17.6699 27.5785 17.6551 27.61 17.6301C27.645 17.6301 27.665 17.6476 27.6675 17.6876C27.6035 17.6943 27.5406 17.7086 27.48 17.7301L27.42 17.7101C27.325 17.7351 27.345 17.7426 27.28 17.7476L27.185 17.7301C27.1857 17.7334 27.1857 17.7369 27.1849 17.7402C27.1842 17.7436 27.1826 17.7467 27.1805 17.7493C27.1783 17.752 27.1755 17.7541 27.1724 17.7555C27.1693 17.757 27.1659 17.7577 27.1625 17.7576C27.162 17.765 27.1632 17.7725 27.166 17.7794C27.1688 17.7863 27.1732 17.7925 27.1787 17.7976C27.1842 17.8026 27.1908 17.8063 27.1979 17.8085C27.2051 17.8107 27.2126 17.8112 27.22 17.8101H27.3175L27.8175 17.7651L28.01 17.7226C28.01 17.7401 28.01 17.7476 28.035 17.7451L28.1275 17.7101L28.3025 17.6951C28.4375 17.6951 28.435 17.6751 28.73 17.6276C28.73 17.6101 28.73 17.6026 28.7475 17.6001V17.6251C28.951 17.5978 29.1524 17.5561 29.35 17.5001V17.5151C29.47 17.4876 29.4025 17.4951 29.435 17.4701C29.435 17.4901 29.435 17.5001 29.455 17.5001H29.54V17.4376H29.33C29.2674 17.4493 29.2037 17.4543 29.14 17.4526L28.7125 17.4751V17.4451L28.9625 17.4126H29.0475L29.0975 17.3776V17.4076C29.4325 17.3801 29.5525 17.4626 31.0975 17.1326C31.1825 17.1326 31.175 17.0551 31.2275 16.9101C31.1989 16.9125 31.1701 16.9064 31.145 16.8926C30.9998 16.9278 30.8517 16.9496 30.7025 16.9576C30.6825 16.9576 30.665 16.9401 30.6575 16.9051V16.8801H30.9075C30.9961 16.8707 31.0815 16.8416 31.1575 16.7951C31.1575 16.8151 31.1075 16.8276 31.1375 16.8251L31.1225 16.8076ZM19.6525 17.0001H19.5425C19.5791 16.8266 19.6379 16.6585 19.7175 16.5001H19.79C19.7672 16.6722 19.7209 16.8404 19.6525 17.0001V17.0001ZM19.785 16.4701V16.4401C19.785 16.4026 19.805 16.3776 19.8575 16.3651V16.3951C19.8575 16.4401 19.8375 16.4651 19.785 16.4701ZM21.25 17.6001V17.6301L21.0675 17.6476V17.6176L21.25 17.6001ZM21.03 17.5826C21.03 17.6201 20.9775 17.6626 20.855 17.7026L20.6325 17.6851H20.56V17.6176L21.0375 17.5726L21.03 17.5826ZM22.5 10.8051H22.39V10.7676C22.39 10.7301 22.4075 10.7051 22.455 10.6926H22.495L22.57 10.7226C22.5715 10.7321 22.5708 10.7419 22.5681 10.7511C22.5653 10.7604 22.5605 10.7689 22.5541 10.7761C22.5476 10.7833 22.5396 10.789 22.5307 10.7927C22.5218 10.7964 22.5121 10.7981 22.5025 10.7976L22.5 10.8051ZM24.165 10.4801H24.2V10.5476H24.1C24.0989 10.5387 24.0997 10.5297 24.1021 10.5211C24.1046 10.5125 24.1087 10.5045 24.1143 10.4975C24.1199 10.4906 24.1268 10.4848 24.1346 10.4805C24.1425 10.4762 24.1511 10.4735 24.16 10.4726L24.165 10.4801ZM23.75 10.6251L23.585 10.6076V10.5751C23.7258 10.5665 23.8651 10.5414 24 10.5001C24 10.5251 24.025 10.5351 24.0675 10.5301V10.5976H24.0025C23.9571 10.6037 23.9108 10.5959 23.87 10.5751C23.8319 10.601 23.7882 10.6173 23.7425 10.6226L23.75 10.6251ZM23.9575 11.2276V11.1976L24.225 11.1726V11.2026L23.9575 11.2276ZM24.235 11.0001V10.9626H24.365V11.0001H24.235ZM24.265 10.5426H24.23L24.26 10.4701L24.5575 10.4426V10.4801C24.4576 10.4918 24.359 10.5119 24.2625 10.5401L24.265 10.5426ZM24.4175 11.1851V11.1176H24.5475C24.5925 11.1176 24.6158 11.1384 24.6175 11.1801L24.4225 11.1976L24.4175 11.1851ZM25.2075 10.1101L25.04 10.1576H25C24.8993 10.1665 24.7981 10.1665 24.6975 10.1576C24.915 10.1426 25.1225 10.1276 25.1975 10.1151L25.2075 10.1101ZM25.0275 10.8601V10.8901L24.7975 10.9101V10.8801L25.0275 10.8601ZM25.405 11.0401C25.405 11.0126 25.3575 10.9926 25.2675 10.9851L25.0375 11.0501H24.86C24.82 11.0226 24.8 11.0026 24.7975 10.9901H25.0025L25.4625 10.9151H25.6975V10.9526C25.5972 10.9613 25.4982 10.9814 25.4025 11.0126L25.405 11.0401ZM27.7775 10.4276H27.83C27.9098 10.3481 28.004 10.2845 28.1075 10.2401C28.0562 10.5441 27.9202 10.8275 27.715 11.0576L27.585 10.9776C27.6619 10.7972 27.7262 10.6118 27.7775 10.4226V10.4276ZM27.3775 11.1151H27.41C27.365 11.2001 27.325 11.2426 27.2925 11.2451V11.1576C27.3254 11.152 27.3563 11.1383 27.3825 11.1176L27.3775 11.1151ZM27.1275 11.7326C27.1475 11.5756 27.2097 11.427 27.3075 11.3026V11.3326C27.275 11.5651 27.2225 11.6901 27.155 11.6976V11.8451C27.1092 11.8976 27.0812 11.9632 27.075 12.0326H27.0425L27.025 11.8301C27.0625 11.8301 27.0925 11.7926 27.1125 11.7326H27.1275ZM27.0275 12.0676C27.0178 12.1539 26.9951 12.2382 26.96 12.3176H26.9275V12.2301C26.9725 12.1276 27.01 12.0751 27.035 12.0751L27.0275 12.0676ZM25.1475 17.5226V17.4976H25.2075V17.5851C25.175 17.5851 25.1525 17.5676 25.1425 17.5276L25.1475 17.5226ZM27.8325 17.5926C27.8325 17.5726 27.8325 17.5626 27.8 17.5651L27.6475 17.5801V17.5501H27.6625L28 17.5001V17.5301C27.9343 17.5251 27.8687 17.5408 27.8125 17.5751L27.8325 17.5926ZM27.6525 17.5176C27.6675 17.5176 27.6525 17.5326 27.6525 17.5351C27.6525 17.5376 27.635 17.5351 27.6525 17.5176ZM27.67 17.0976L27.47 17.1151V17.0751L27.6525 17.0576L27.81 17.0176C27.81 17.0351 27.81 17.0426 27.8425 17.0401C28.03 17.0076 28.0125 16.9976 28.0925 16.9901C28.1225 16.9901 28.1425 17.0076 28.145 17.0426L27.6625 17.0851L27.67 17.0976ZM28.37 17.0376C28.305 17.0244 28.2387 17.0193 28.1725 17.0226V17.0001L28.3525 16.9826V17.0001C28.335 17.0001 28.4025 17.0001 28.37 17.0301V17.0376ZM28.385 17.0051V16.9801H28.4825V17.0051H28.385ZM28.6025 16.9876V16.9626C28.6284 16.9558 28.6524 16.9429 28.6725 16.9251C28.6821 16.9237 28.6918 16.9243 28.7012 16.9268C28.7105 16.9294 28.7192 16.9339 28.7268 16.94C28.7343 16.9461 28.7404 16.9537 28.7449 16.9623C28.7493 16.971 28.7519 16.9804 28.7525 16.9901L28.6025 16.9876ZM28.88 16.9526V16.9226H29V16.9526H28.88ZM29.045 16.9376C29.045 16.9026 29.045 16.8826 29.0875 16.8776L29.1275 16.9301C29.1267 16.9271 29.1266 16.924 29.1271 16.921C29.1276 16.918 29.1287 16.9151 29.1303 16.9126C29.132 16.91 29.1341 16.9078 29.1366 16.9061C29.1391 16.9043 29.142 16.9032 29.145 16.9026L29.175 16.9576L29.045 16.9401V16.9376ZM31.38 16.6376C31.3975 16.6376 31.4075 16.6151 31.3625 16.6076C31.3175 16.6001 31.385 16.6376 31.34 16.6401V16.6601L31.365 16.6426L31.34 16.6626L31.29 16.7251L31.3875 16.6901V16.6326L31.38 16.6376ZM31.55 16.7701H31.5325V16.8276H31.67C31.67 16.7901 31.5775 16.7776 31.5475 16.7776L31.55 16.7701Z" fill="#F9DC3E"/>
</svg>
