<svg width="32" height="32" viewBox="0 0 32 32" fill="none" xmlns="http://www.w3.org/2000/svg">
<path d="M4.91748 6.5L6.93473 29.1232L15.9862 31.6357L25.063 29.12L27.0825 6.5H4.91748ZM22.22 19.122L21.6325 24.595L21.6347 25.0637L16 26.6375V26.6378L15.9955 26.6415L10.3157 25.0853L9.93148 20.75H12.7167L12.9142 22.9415L16.001 23.7652L16 23.769V23.761L19.0985 22.8873L19.4255 19.25H12.9487L12.8932 18.6612L12.7667 17.2495L12.7005 16.5H19.672L19.9255 13.75H9.30723L9.25148 13.1027L9.12498 11.5953L9.05873 10.75H22.958L22.8912 11.5835L22.22 19.122ZM22.25 3.5935L20.4627 1.5H22.25V0.25H18.25V1.34075L20.3475 3.25H18.25V4.5H22.25V3.5935ZM17.5 3.5935L15.7982 1.5H17.5V0.25H13.75V1.34075L15.6832 3.25H13.75V4.5H17.5V3.5935ZM13 3.25H11V1.5H13V0.25H9.49998V4.5H13V3.25Z" fill="#1572B6"/>
</svg>
