<svg width="32" height="32" viewBox="0 0 32 32" fill="none" xmlns="http://www.w3.org/2000/svg">
<path d="M29.5401 15.9915C30.8458 14.4275 31.6321 12.4372 31.6321 10.2465C31.6321 5.27425 27.5881 1.25 22.6161 1.25H11.9966C14.5903 3 16.7381 5.25 18.2016 7.75H22.6161C24.0036 7.75 25.1321 8.8625 25.1321 10.25C25.1321 11.6375 24.0033 12.75 22.6161 12.75H20.0118C20.2168 14 20.3268 14.905 20.3268 16.0245C20.3268 17.127 20.2186 18.25 20.0208 19.25H22.6163C24.0038 19.25 25.1323 20.4875 25.1323 21.875C25.1323 23.2625 24.0033 24.5 22.6161 24.5H18.2301C17.9013 25 17.5326 25.685 17.1351 26.245C15.7843 28.1475 14.0633 29.75 12.0726 31H22.6158C27.4496 31 31.4058 27.0635 31.6218 22.281C31.6176 22.3585 31.6111 22.3785 31.6053 22.4555C31.6208 22.2435 31.6321 22.0022 31.6321 21.786C31.6316 19.5945 30.8451 17.556 29.5396 15.9915H29.5401Z" fill="url(#paint0_linear_358_99)"/>
<path d="M15.2575 24.3857L15.2583 24.3407C15.2758 24.3157 15.2928 24.2677 15.31 24.2432C15.3293 24.2137 15.348 24.1745 15.367 24.1453C15.3675 24.1448 15.367 24.1377 15.3678 24.1367C16.9028 21.8042 17.7995 19.0342 17.7995 16.0392C17.7992 7.875 11.156 1.25 2.9905 1.25H0.25V7.75H2.9905C7.5705 7.75 11.298 11.4557 11.298 16.036C11.298 17.282 11.0198 18.4548 10.526 19.517C10.5245 19.5203 10.5227 19.607 10.521 19.6105C9.1975 22.4455 6.32075 24.5 2.99075 24.5H0.25V31H2.9905C8.0895 31 12.593 28.3195 15.2575 24.3857Z" fill="url(#paint1_linear_358_99)"/>
<defs>
<linearGradient id="paint0_linear_358_99" x1="21.3101" y1="24.401" x2="22.7633" y2="-12.3788" gradientUnits="userSpaceOnUse">
<stop stop-color="#F9A03C"/>
<stop offset="1" stop-color="#F7974E"/>
</linearGradient>
<linearGradient id="paint1_linear_358_99" x1="8.40675" y1="24.4285" x2="9.8455" y2="-11.9812" gradientUnits="userSpaceOnUse">
<stop stop-color="#F9A03C"/>
<stop offset="1" stop-color="#F7974E"/>
</linearGradient>
</defs>
</svg>
