<svg width="32" height="32" viewBox="0 0 32 32" fill="none" xmlns="http://www.w3.org/2000/svg">
<path fill-rule="evenodd" clip-rule="evenodd" d="M4.9999 24.2249V22.1999C4.9999 21.9249 5.1749 21.7249 5.4499 21.7249H5.5249C5.7999 21.7249 5.9749 21.9499 5.9749 22.1999V26.4499C5.9749 27.4749 5.4749 28.2999 4.5749 28.8249C4.1499 29.0749 3.6999 29.1999 3.2249 29.1999H3.0249C1.9999 29.1999 1.1749 28.6999 0.649902 27.7999C0.399902 27.3749 0.274902 26.9249 0.274902 26.4499V26.2499C0.274902 25.2249 0.774902 24.3999 1.6749 23.8749C2.0999 23.6249 2.5499 23.4999 3.0249 23.4999H3.2249C3.8999 23.5249 4.4999 23.7749 4.9999 24.2249V24.2249ZM1.2249 26.3499C1.2249 27.0999 1.5999 27.6499 2.2499 28.0249C2.5249 28.1749 2.7999 28.2499 3.0999 28.2499C3.8249 28.2499 4.3749 27.8999 4.7499 27.2749C4.9249 26.9749 4.9999 26.6749 4.9999 26.3249C4.9999 25.6749 4.6999 25.1749 4.1749 24.7999C3.8499 24.5749 3.4999 24.4499 3.1249 24.4499C2.3249 24.4499 1.7499 24.8499 1.3999 25.5749C1.2749 25.8249 1.2249 26.0999 1.2249 26.3499V26.3499ZM9.2749 23.5249H9.3999C10.4999 23.5249 11.3499 24.0499 11.8749 25.0249C12.0999 25.3999 12.1999 25.8249 12.1999 26.2749V26.4749C12.1999 27.4999 11.6999 28.3249 10.7999 28.8499C10.3749 29.0999 9.9249 29.2249 9.4499 29.2249H9.2499C8.2249 29.2249 7.3999 28.7249 6.8749 27.8249C6.6249 27.3999 6.4999 26.9499 6.4999 26.4749V26.2749C6.4999 25.2499 7.0249 24.4249 7.8999 23.8999C8.3249 23.6249 8.7999 23.5249 9.2749 23.5249ZM7.4749 26.3499C7.4749 27.0749 7.8249 27.5999 8.4499 27.9749C8.7499 28.1499 9.0499 28.2249 9.3999 28.2249C10.1249 28.2249 10.6499 27.8499 11.0249 27.2499C11.1999 26.9499 11.2749 26.6499 11.2749 26.2999C11.2749 25.6249 10.9499 25.0999 10.3999 24.7249C10.0999 24.5249 9.7499 24.4249 9.3999 24.4249C8.5999 24.4249 8.0249 24.8249 7.6749 25.5499C7.5249 25.8249 7.4749 26.0999 7.4749 26.3499ZM16.1749 24.5499C16.0249 24.4749 15.7499 24.4499 15.5999 24.4499C14.7999 24.4249 14.2249 24.8749 13.8749 25.5749C13.7499 25.8249 13.6999 26.0749 13.6999 26.3499C13.6999 27.1749 14.1249 27.7499 14.8499 28.0999C15.1249 28.2249 15.4499 28.2499 15.7499 28.2499C15.9999 28.2499 16.3749 28.0999 16.5999 27.9749L16.6499 27.9499H16.8499C17.0749 27.9999 17.2249 28.1249 17.2249 28.3749V28.4749C17.2249 29.0499 16.1499 29.1999 15.7499 29.2249C14.3249 29.3249 13.2499 28.5499 12.8499 27.1749C12.7749 26.9499 12.7499 26.6999 12.7499 26.4499V26.2499C12.7499 25.2249 13.2749 24.3999 14.1499 23.8749C14.5749 23.6249 15.0249 23.4999 15.4999 23.4999H15.6999C16.1999 23.4999 16.6749 23.6499 17.0999 23.9249L17.1249 23.9499L17.1499 23.9749C17.1999 24.0499 17.2249 24.1249 17.2249 24.2249V24.3249C17.2249 24.5749 17.0499 24.6999 16.8249 24.7499H16.7499C16.6249 24.7499 16.2999 24.5999 16.1749 24.5499ZM19.2749 25.1999C19.6499 24.8249 20.0249 24.4499 20.3999 24.0999C20.4999 23.9999 20.8999 23.5749 21.0499 23.5749H21.2499C21.4749 23.6249 21.6249 23.7499 21.6249 23.9999V24.0999C21.6249 24.2499 21.4499 24.4499 21.3249 24.5499L20.6499 25.2249L19.4999 26.3999C19.9999 26.8999 20.4999 27.3999 20.9749 27.8999L21.3749 28.3249C21.4249 28.3749 21.4999 28.4249 21.5249 28.4999C21.5749 28.5749 21.5999 28.6499 21.5999 28.7249V28.8499C21.5499 29.0749 21.3999 29.2499 21.1749 29.2499H21.0999C20.9499 29.2499 20.7749 29.0749 20.6499 28.9749C20.4249 28.7749 20.1999 28.5499 19.9999 28.3249L19.2749 27.5999V28.7499C19.2749 29.0249 19.0999 29.2249 18.8249 29.2249H18.7499C18.4749 29.2249 18.2999 28.9999 18.2999 28.7499V22.2249C18.2999 21.9499 18.4749 21.7499 18.7499 21.7499H18.8249C19.0999 21.7499 19.2749 21.9499 19.2749 22.2249V25.1999V25.1999ZM31.1749 23.5499H31.2749C31.5499 23.5499 31.7499 23.7499 31.7499 24.0249C31.7499 24.4249 31.3749 24.5249 31.0499 24.5249C30.6249 24.5249 30.1999 24.7749 29.9249 25.0749C29.5499 25.4499 29.3999 25.8999 29.3999 26.4249V28.7249C29.3999 28.9999 29.2249 29.1999 28.9499 29.1999H28.8749C28.5999 29.1999 28.4249 28.9749 28.4249 28.7249V26.2749C28.4249 25.3249 28.8749 24.5749 29.6499 24.0249C30.0999 23.7249 30.6249 23.5499 31.1749 23.5499V23.5499ZM24.3999 28.1249C24.7499 28.2499 25.1499 28.2249 25.4999 28.1749C25.6749 28.0999 26.1499 27.8999 26.3249 27.9249H26.3749C26.4749 27.9749 26.5749 28.0499 26.6249 28.1499C26.7499 28.3999 26.6999 28.6499 26.4499 28.7999L26.3749 28.8499C25.4749 29.3749 24.4999 29.2999 23.5999 28.7999C23.1749 28.5749 22.8499 28.2249 22.5999 27.7999L22.5499 27.6999C21.9749 26.6999 22.0499 25.6249 22.6999 24.6749C22.9249 24.3499 23.2249 24.0999 23.5749 23.8999L23.6999 23.8249C24.5499 23.3249 25.4749 23.3749 26.3499 23.7999C26.8249 24.0249 27.1999 24.3749 27.4749 24.8249L27.5249 24.8999C27.7249 25.2249 27.4749 25.5249 27.2249 25.7249C26.9249 25.9499 26.6249 26.2249 26.3499 26.4749C25.6749 27.0249 25.0249 27.5749 24.3999 28.1249ZM23.5749 27.5499L25.6999 25.7249C25.9499 25.5249 26.1999 25.2999 26.4499 25.0749C26.2499 24.8249 25.9249 24.6499 25.6749 24.5499C25.1249 24.3499 24.5749 24.3999 24.0749 24.6999C23.4249 25.0749 23.1249 25.6999 23.1499 26.4499C23.1499 26.7499 23.2499 27.0249 23.3999 27.2999C23.4499 27.3999 23.4999 27.4749 23.5749 27.5499M18.4249 8.4249H21.2499V11.2999H22.6749C23.3249 11.2999 23.9999 11.1749 24.6249 10.9749C24.9249 10.8749 25.2749 10.7249 25.5749 10.5499C25.1749 10.0249 24.9749 9.3749 24.9249 8.7249C24.8499 7.8499 25.0249 6.6999 25.6249 6.0249L25.9249 5.6749L26.2749 5.9499C27.1749 6.6749 27.8999 7.6499 28.0499 8.7999C29.1249 8.4749 30.3749 8.5499 31.3249 9.0999L31.6999 9.3249L31.4999 9.7249C30.6999 11.2749 29.0249 11.7749 27.3999 11.6749C24.9499 17.7499 19.6499 20.6249 13.1999 20.6249C9.8749 20.6249 6.8249 19.3749 5.0749 16.4249L5.0499 16.3749L4.7999 15.8499C4.1999 14.5499 4.0249 13.1249 4.1499 11.6999L4.1999 11.2749H6.5999V8.4249H9.4249V5.5999H15.0499V2.7749H18.4249V8.4249V8.4249Z" fill="#3A4D54"/>
<path d="M27.5502 9.4748C27.7502 7.9998 26.6502 6.8498 25.9502 6.2998C25.1752 7.1998 25.0502 9.5998 26.2752 10.5998C25.5752 11.1998 24.1502 11.7748 22.6502 11.7748H4.60019C4.45019 13.3248 4.72519 14.7498 5.35019 15.9748L5.55019 16.3498C5.67519 16.5748 5.82519 16.7748 5.97519 16.9998C6.72519 17.0498 7.40019 17.0748 8.02519 17.0498C9.25019 17.0248 10.2502 16.8748 11.0252 16.6248C11.1502 16.5748 11.2502 16.6498 11.3002 16.7498C11.3502 16.8748 11.2752 16.9748 11.1752 17.0248C11.0752 17.0498 10.9752 17.0998 10.8502 17.1248C10.2502 17.2998 9.60019 17.3998 8.77519 17.4498H8.62519C8.30019 17.4748 7.95019 17.4748 7.57519 17.4748C7.17519 17.4748 6.80019 17.4748 6.35019 17.4498C7.85019 19.1498 10.2002 20.1498 13.1502 20.1498C19.4002 20.1498 24.7002 17.3748 27.0252 11.1748C28.7002 11.3498 30.3002 10.9248 31.0252 9.4998C29.9002 8.8498 28.4002 9.0498 27.5502 9.4748V9.4748Z" fill="#00AADA"/>
<path d="M27.55 9.4748C27.75 7.9998 26.65 6.8498 25.95 6.2998C25.175 7.1998 25.05 9.5998 26.275 10.5998C25.575 11.1998 24.15 11.7748 22.65 11.7748H5.64996C5.57496 14.1498 6.44996 15.9498 8.02496 17.0248C9.24996 16.9998 10.25 16.8498 11.025 16.5998C11.15 16.5498 11.25 16.6248 11.3 16.7248C11.35 16.8498 11.275 16.9498 11.175 16.9998C11.075 17.0248 10.975 17.0748 10.85 17.0998C10.25 17.2748 9.54996 17.3998 8.72496 17.4498L8.69996 17.4248C10.825 18.5248 13.9 18.4998 17.45 17.1498C21.4 15.6248 25.1 12.7248 27.675 9.4248C27.625 9.4498 27.6 9.4748 27.55 9.4748V9.4748Z" fill="#28B8EB"/>
<path d="M4.625 13.6499C4.725 14.4749 4.975 15.2499 5.35 15.9749L5.55 16.3499C5.675 16.5749 5.825 16.7749 5.975 16.9999C6.725 17.0499 7.4 17.0749 8.025 17.0499C9.25 17.0249 10.25 16.8749 11.025 16.6249C11.15 16.5749 11.25 16.6499 11.3 16.7499C11.35 16.8749 11.275 16.9749 11.175 17.0249C11.075 17.0499 10.975 17.0999 10.85 17.1249C10.25 17.2999 9.55 17.4249 8.725 17.4749H8.625C8.3 17.4999 7.95 17.4999 7.6 17.4999C7.2 17.4999 6.8 17.4999 6.375 17.4749C7.875 19.1749 10.25 20.1749 13.2 20.1749C18.55 20.1749 23.2 18.1499 25.9 13.6749H4.625V13.6499Z" fill="#028BB8"/>
<path d="M5.8252 13.6499C6.1502 15.0999 6.9002 16.2499 8.0252 17.0249C9.2502 16.9999 10.2502 16.8499 11.0252 16.5999C11.1502 16.5499 11.2502 16.6249 11.3002 16.7249C11.3502 16.8499 11.2752 16.9499 11.1752 16.9999C11.0752 17.0249 10.9752 17.0749 10.8502 17.0999C10.2502 17.2749 9.5502 17.3999 8.7002 17.4499C10.8252 18.5499 13.9002 18.5249 17.4252 17.1749C19.5502 16.3499 21.6252 15.1249 23.4752 13.6499H5.8252Z" fill="#019BC6"/>
<path fill-rule="evenodd" clip-rule="evenodd" d="M7.0498 8.8752H9.4998V11.3252H7.0498V8.8752ZM7.2498 9.1002H7.4498V11.1252H7.2498V9.1002ZM7.6248 9.1002H7.8248V11.1252H7.6248V9.1002ZM7.9998 9.1002H8.1998V11.1252H7.9998V9.1002ZM8.3498 9.1002H8.5498V11.1252H8.3498V9.1002ZM8.7248 9.1002H8.9248V11.1252H8.7248V9.1002ZM9.0998 9.1002H9.2998V11.1252H9.0998V9.1002ZM9.8748 6.0752H12.3248V8.5002H9.8748V6.0752V6.0752ZM10.0748 6.2752H10.2748V8.3002H10.0748V6.2752V6.2752ZM10.4498 6.2752H10.6498V8.3002H10.4498V6.2752V6.2752ZM10.7998 6.2752H10.9998V8.3002H10.7998V6.2752V6.2752ZM11.1748 6.2752H11.3748V8.3002H11.1748V6.2752V6.2752ZM11.5498 6.2752H11.7498V8.3002H11.5498V6.2752V6.2752ZM11.9248 6.2752H12.1248V8.3002H11.9248V6.2752V6.2752Z" fill="#00ACD3"/>
<path fill-rule="evenodd" clip-rule="evenodd" d="M9.875 8.875H12.325V11.325H9.875V8.875ZM10.075 9.1H10.275V11.125H10.075V9.1ZM10.45 9.1H10.65V11.125H10.45V9.1ZM10.8 9.1H11V11.125H10.8V9.1ZM11.175 9.1H11.375V11.125H11.175V9.1ZM11.55 9.1H11.75V11.125H11.55V9.1ZM11.925 9.1H12.125V11.125H11.925V9.1Z" fill="#23C2EE"/>
<path fill-rule="evenodd" clip-rule="evenodd" d="M12.7002 8.875H15.1502V11.325H12.7002V8.875ZM12.9002 9.1H13.1002V11.125H12.9002V9.1ZM13.2502 9.1H13.4502V11.125H13.2502V9.1V9.1ZM13.6252 9.1H13.8252V11.125H13.6252V9.1ZM14.0002 9.1H14.2002V11.125H14.0002V9.1V9.1ZM14.3752 9.1H14.5752V11.125H14.3752V9.1ZM14.7252 9.1H14.9252V11.125H14.7252V9.1Z" fill="#00ACD3"/>
<path fill-rule="evenodd" clip-rule="evenodd" d="M12.7002 6.0752H15.1502V8.5002H12.7002V6.0752ZM12.9002 6.2752H13.1002V8.3002H12.9002V6.2752ZM13.2502 6.2752H13.4502V8.3002H13.2502V6.2752V6.2752ZM13.6252 6.2752H13.8252V8.3002H13.6252V6.2752ZM14.0002 6.2752H14.2002V8.3002H14.0002V6.2752V6.2752ZM14.3752 6.2752H14.5752V8.3002H14.3752V6.2752ZM14.7252 6.2752H14.9252V8.3002H14.7252V6.2752ZM15.5002 8.8752H17.9502V11.3252H15.5002V8.8752ZM15.7252 9.1002H15.9252V11.1252H15.7252V9.1002ZM16.0752 9.1002H16.2752V11.1252H16.0752V9.1002ZM16.4502 9.1002H16.6502V11.1252H16.4502V9.1002ZM16.8252 9.1002H17.0252V11.1252H16.8252V9.1002ZM17.1752 9.1002H17.3752V11.1252H17.1752V9.1002ZM17.5502 9.1002H17.7502V11.1252H17.5502V9.1002Z" fill="#23C2EE"/>
<path fill-rule="evenodd" clip-rule="evenodd" d="M15.5 6.0752H17.95V8.5002H15.5V6.0752ZM15.725 6.2752H15.925V8.3002H15.725V6.2752ZM16.075 6.2752H16.275V8.3002H16.075V6.2752ZM16.45 6.2752H16.65V8.3002H16.45V6.2752ZM16.825 6.2752H17.025V8.3002H16.825V6.2752ZM17.175 6.2752H17.375V8.3002H17.175V6.2752ZM17.55 6.2752H17.75V8.3002H17.55V6.2752Z" fill="#00ACD3"/>
<path fill-rule="evenodd" clip-rule="evenodd" d="M15.5 3.25H17.95V5.7H15.5V3.25ZM15.725 3.45H15.925V5.5H15.725V3.45ZM16.075 3.45H16.275V5.5H16.075V3.45ZM16.45 3.45H16.65V5.5H16.45V3.45ZM16.825 3.45H17.025V5.5H16.825V3.45ZM17.175 3.45H17.375V5.5H17.175V3.45ZM17.55 3.45H17.75V5.5H17.55V3.45Z" fill="#23C2EE"/>
<path fill-rule="evenodd" clip-rule="evenodd" d="M18.3252 8.875H20.7752V11.325H18.3252V8.875ZM18.5252 9.1H18.7252V11.125H18.5252V9.1ZM18.9002 9.1H19.1002V11.125H18.9002V9.1ZM19.2752 9.1H19.4752V11.125H19.2752V9.1ZM19.6252 9.1H19.8252V11.125H19.6252V9.1ZM20.0002 9.1H20.2002V11.125H20.0002V9.1ZM20.3752 9.1H20.5752V11.125H20.3752V9.1Z" fill="#00ACD3"/>
<path fill-rule="evenodd" clip-rule="evenodd" d="M12.1501 15.2998C12.5251 15.2998 12.8251 15.5998 12.8251 15.9748C12.8251 16.3498 12.5251 16.6498 12.1501 16.6498C11.7751 16.6498 11.4751 16.3498 11.4751 15.9748C11.5001 15.5998 11.8001 15.2998 12.1501 15.2998Z" fill="#D4EEF1"/>
<path fill-rule="evenodd" clip-rule="evenodd" d="M12.15 15.4751C12.2 15.4751 12.275 15.4751 12.325 15.5001C12.275 15.5251 12.225 15.6001 12.225 15.6751C12.225 15.7751 12.325 15.8751 12.425 15.8751C12.5 15.8751 12.575 15.8251 12.6 15.7751C12.625 15.8251 12.625 15.9001 12.625 15.9501C12.625 16.2251 12.4 16.4251 12.15 16.4251C11.875 16.4251 11.675 16.2001 11.675 15.9501C11.675 15.7001 11.9 15.4751 12.15 15.4751M0.25 13.9001H31.575C30.9 13.7251 29.425 13.5001 29.65 12.6001C28.4 14.0251 25.425 13.6001 24.65 12.9001C23.8 14.1251 18.9 13.6501 18.575 12.7001C17.525 13.9501 14.25 13.9501 13.2 12.7001C12.85 13.6501 7.95 14.1251 7.125 12.9001C6.375 13.6001 3.375 14.0251 2.125 12.6001C2.4 13.4751 0.925 13.7251 0.25 13.9001" fill="#3A4D54"/>
<path d="M13.9498 20.1501C12.2748 19.3501 11.3748 18.2751 10.8498 17.1001C10.2248 17.2751 9.4748 17.4001 8.6248 17.4501C8.2998 17.4751 7.9498 17.4751 7.5998 17.4751C7.1748 17.4751 6.7498 17.4751 6.2998 17.4501C7.8248 18.9751 9.7248 20.1501 13.1998 20.1751C13.4498 20.1501 13.6998 20.1501 13.9498 20.1501V20.1501Z" fill="#BFDBE0"/>
<path d="M11.475 18.1751C11.25 17.8501 11.025 17.4751 10.85 17.1001C10.225 17.2751 9.475 17.4001 8.625 17.4501C9.225 17.7751 10.075 18.0751 11.475 18.1751V18.1751Z" fill="#D4EEF1"/>
</svg>
