<svg width="32" height="32" viewBox="0 0 32 32" fill="none" xmlns="http://www.w3.org/2000/svg">
<path d="M12.2675 8.16501C8.67498 7.51001 5.83748 8.19501 4.70498 10.165C3.85998 11.6275 4.10248 13.5675 5.28998 15.64C5.31411 15.682 5.34628 15.7189 5.38466 15.7485C5.42303 15.7781 5.46686 15.7998 5.51364 15.8125C5.56042 15.8251 5.60923 15.8284 5.65729 15.8222C5.70534 15.816 5.75171 15.8004 5.79373 15.7763C5.83575 15.7521 5.87261 15.72 5.9022 15.6816C5.93179 15.6432 5.95353 15.5994 5.96619 15.5526C5.97884 15.5058 5.98215 15.457 5.97594 15.409C5.96973 15.3609 5.95411 15.3145 5.92998 15.2725C4.85998 13.405 4.64998 11.73 5.34248 10.5225C6.28248 8.89501 8.81498 8.27251 12.135 8.88751C12.2311 8.90508 12.3303 8.88374 12.4107 8.82818C12.4911 8.77262 12.5462 8.6874 12.5637 8.59126C12.5813 8.49512 12.56 8.39593 12.5044 8.31553C12.4488 8.23512 12.3636 8.18008 12.2675 8.16251V8.16501ZM7.15748 18.1525C8.75932 19.8692 10.6141 21.3311 12.6575 22.4875C17.8675 25.4875 23.4075 26.3 26.1575 24.435C26.238 24.38 26.2934 24.2952 26.3115 24.1993C26.3295 24.1034 26.3088 24.0043 26.2537 23.9238C26.1987 23.8432 26.1139 23.7878 26.018 23.7697C25.9222 23.7517 25.823 23.7725 25.7425 23.8275C23.2775 25.5 18 24.73 13.0175 21.8475C11.0429 20.7284 9.25066 19.3146 7.70248 17.655C7.63618 17.5827 7.54388 17.5398 7.44589 17.5355C7.3479 17.5313 7.25225 17.5662 7.17998 17.6325C7.10771 17.6988 7.06474 17.7911 7.06052 17.8891C7.0563 17.9871 7.09118 18.0827 7.15748 18.155V18.1525Z" fill="#47848F"/>
<path d="M25.2649 17.7026C27.6174 14.9251 28.4374 12.1301 27.3074 10.1751C26.4774 8.73507 24.7199 7.97507 22.3849 7.94507C22.2871 7.94507 22.1933 7.98392 22.1241 8.05307C22.055 8.12223 22.0161 8.21602 22.0161 8.31382C22.0161 8.41162 22.055 8.50541 22.1241 8.57456C22.1933 8.64372 22.2871 8.68257 22.3849 8.68257C24.4849 8.71007 25.9974 9.36507 26.6799 10.5451C27.6174 12.1701 26.8849 14.6626 24.7124 17.2301C24.6812 17.267 24.6576 17.3097 24.6429 17.3558C24.6282 17.4018 24.6228 17.4503 24.6268 17.4985C24.6309 17.5467 24.6444 17.5936 24.6666 17.6365C24.6888 17.6795 24.7192 17.7176 24.7561 17.7488C24.7931 17.78 24.8358 17.8036 24.8819 17.8183C24.9279 17.833 24.9764 17.8384 25.0246 17.8344C25.0728 17.8303 25.1197 17.8168 25.1626 17.7946C25.2055 17.7724 25.2437 17.742 25.2749 17.7051L25.2649 17.7026ZM19.2224 8.28757C16.9141 8.8114 14.7006 9.68839 12.6599 10.8876C7.28239 14.0001 3.77239 18.5726 4.24989 21.8926C4.26415 21.992 4.31733 22.0817 4.39774 22.142C4.47814 22.2022 4.57919 22.2281 4.67864 22.2138C4.7781 22.1996 4.86782 22.1464 4.92807 22.066C4.98831 21.9856 5.01415 21.8845 4.99989 21.7851C4.55739 18.8376 7.88239 14.5001 13.0274 11.5276C15.0014 10.3633 17.1433 9.51078 19.3774 9.00007C19.4247 8.98989 19.4695 8.9705 19.5093 8.94301C19.549 8.91551 19.583 8.88045 19.6093 8.83983C19.6355 8.7992 19.6535 8.75381 19.6621 8.70623C19.6708 8.65866 19.6701 8.60984 19.6599 8.56257C19.6497 8.51529 19.6303 8.47048 19.6028 8.4307C19.5753 8.39092 19.5403 8.35694 19.4997 8.33071C19.459 8.30448 19.4136 8.2865 19.3661 8.27781C19.3185 8.26912 19.2697 8.26989 19.2224 8.28007V8.28757Z" fill="#47848F"/>
<path d="M10.5 24.195C11.75 27.6275 13.75 29.75 16.0125 29.75C17.6625 29.75 19.1875 28.625 20.3775 26.645C20.4299 26.5617 20.4471 26.4611 20.4253 26.3653C20.4035 26.2694 20.3445 26.1861 20.2613 26.1337C20.178 26.0813 20.0774 26.0641 19.9816 26.0859C19.8857 26.1078 19.8024 26.1667 19.75 26.25C18.68 28.03 17.3675 29 16.015 29C14.135 29 12.3425 27.115 11.205 23.94C11.1719 23.8481 11.1036 23.7732 11.0152 23.7317C10.9268 23.6902 10.8256 23.6856 10.7338 23.7187C10.6419 23.7519 10.567 23.8201 10.5255 23.9085C10.484 23.9969 10.4794 24.0981 10.5125 24.19L10.5 24.195ZM21.75 23.5225C22.4151 21.3091 22.7446 19.0085 22.7275 16.6975C22.7275 10.595 20.5925 5.33746 17.55 3.98496C17.4605 3.94517 17.3589 3.94258 17.2674 3.97774C17.176 4.01291 17.1023 4.08295 17.0625 4.17246C17.0227 4.26197 17.0201 4.36362 17.0553 4.45504C17.0905 4.54646 17.1605 4.62017 17.25 4.65996C19.9625 5.86496 22 10.855 22 16.6975C22.0166 18.934 21.6981 21.1603 21.055 23.3025C21.0258 23.3956 21.0349 23.4965 21.0801 23.583C21.1253 23.6695 21.2031 23.7345 21.2963 23.7637C21.3894 23.7929 21.4903 23.7839 21.5768 23.7386C21.6634 23.6934 21.7283 23.6156 21.7575 23.5225H21.75ZM28.6775 23.1625C28.6775 22.8139 28.5741 22.4731 28.3805 22.1833C28.1868 21.8934 27.9115 21.6675 27.5895 21.5341C27.2674 21.4007 26.9131 21.3658 26.5712 21.4338C26.2293 21.5018 25.9152 21.6697 25.6687 21.9162C25.4222 22.1627 25.2544 22.4767 25.1864 22.8186C25.1184 23.1605 25.1533 23.5149 25.2867 23.8369C25.4201 24.159 25.646 24.4343 25.9358 24.6279C26.2257 24.8216 26.5664 24.925 26.915 24.925C27.1465 24.925 27.3757 24.8794 27.5895 24.7908C27.8033 24.7022 27.9976 24.5724 28.1613 24.4087C28.3249 24.2451 28.4548 24.0508 28.5433 23.8369C28.6319 23.6231 28.6775 23.3939 28.6775 23.1625V23.1625ZM27.94 23.1625C27.94 23.3652 27.8799 23.5634 27.7673 23.7319C27.6546 23.9005 27.4946 24.0319 27.3073 24.1094C27.12 24.187 26.9139 24.2073 26.715 24.1678C26.5162 24.1282 26.3336 24.0306 26.1902 23.8872C26.0469 23.7439 25.9493 23.5613 25.9097 23.3624C25.8702 23.1636 25.8905 22.9575 25.968 22.7702C26.0456 22.5829 26.177 22.4228 26.3456 22.3102C26.5141 22.1976 26.7123 22.1375 26.915 22.1375C27.1869 22.1375 27.4476 22.2454 27.6398 22.4377C27.832 22.6299 27.94 22.8906 27.94 23.1625V23.1625ZM5.08501 24.925C5.4336 24.925 5.77436 24.8216 6.0642 24.6279C6.35404 24.4343 6.57995 24.159 6.71335 23.8369C6.84675 23.5149 6.88165 23.1605 6.81364 22.8186C6.74564 22.4767 6.57778 22.1627 6.33129 21.9162C6.0848 21.6697 5.77075 21.5018 5.42886 21.4338C5.08697 21.3658 4.73259 21.4007 4.41053 21.5341C4.08848 21.6675 3.81321 21.8934 3.61954 22.1833C3.42588 22.4731 3.32251 22.8139 3.32251 23.1625C3.32251 23.6299 3.5082 24.0782 3.83873 24.4087C4.16927 24.7393 4.61757 24.925 5.08501 24.925V24.925ZM5.08501 24.1875C4.88228 24.1875 4.68411 24.1273 4.51555 24.0147C4.34699 23.9021 4.21561 23.742 4.13803 23.5547C4.06045 23.3674 4.04016 23.1613 4.0797 22.9625C4.11925 22.7637 4.21688 22.581 4.36023 22.4377C4.50357 22.2943 4.68621 22.1967 4.88504 22.1572C5.08387 22.1176 5.28997 22.1379 5.47726 22.2155C5.66455 22.2931 5.82464 22.4244 5.93727 22.593C6.04989 22.7616 6.11001 22.9597 6.11001 23.1625C6.11001 23.4343 6.00202 23.695 5.80979 23.8872C5.61757 24.0795 5.35686 24.1875 5.08501 24.1875V24.1875Z" fill="#47848F"/>
<path d="M16.0125 5.78257C16.3611 5.78257 16.7018 5.6792 16.9917 5.48553C17.2815 5.29187 17.5074 5.0166 17.6408 4.69455C17.7742 4.37249 17.8091 4.01811 17.7411 3.67622C17.6731 3.33433 17.5053 3.02028 17.2588 2.77379C17.0123 2.5273 16.6982 2.35944 16.3563 2.29144C16.0145 2.22343 15.6601 2.25833 15.338 2.39173C15.016 2.52513 14.7407 2.75104 14.547 3.04088C14.3534 3.33072 14.25 3.67148 14.25 4.02007C14.25 4.48751 14.4357 4.93581 14.7662 5.26635C15.0968 5.59688 15.5451 5.78257 16.0125 5.78257V5.78257ZM16.0125 5.04507C15.8098 5.04507 15.6116 4.98495 15.443 4.87233C15.2745 4.7597 15.1431 4.59961 15.0655 4.41232C14.9879 4.22503 14.9676 4.01893 15.0072 3.8201C15.0467 3.62127 15.1444 3.43863 15.2877 3.29528C15.4311 3.15194 15.6137 3.05431 15.8125 3.01476C16.0114 2.97521 16.2175 2.99551 16.4048 3.07309C16.592 3.15067 16.7521 3.28205 16.8648 3.45061C16.9774 3.61917 17.0375 3.81734 17.0375 4.02007C17.0375 4.29192 16.9295 4.55263 16.7373 4.74485C16.5451 4.93708 16.2843 5.04507 16.0125 5.04507V5.04507ZM16.2825 17.9426C16.0361 17.9977 15.7789 17.9784 15.5434 17.8872C15.308 17.796 15.1049 17.6369 14.96 17.4301C14.8151 17.2233 14.7348 16.9782 14.7294 16.7257C14.724 16.4733 14.7936 16.2249 14.9295 16.0121C15.0654 15.7993 15.2614 15.6316 15.4928 15.5304C15.7241 15.4291 15.9802 15.3988 16.2288 15.4433C16.4773 15.4878 16.7071 15.6051 16.8889 15.7803C17.0707 15.9556 17.1964 16.1808 17.25 16.4276C17.3215 16.7567 17.2599 17.1007 17.0787 17.3846C16.8974 17.6684 16.6112 17.869 16.2825 17.9426V17.9426Z" fill="#47848F"/>
</svg>
