<svg width="32" height="32" viewBox="0 0 32 32" fill="none" xmlns="http://www.w3.org/2000/svg">
<path d="M16 0C7.175 0 0 7.175 0 16C0 24.825 7.175 32 16 32C24.825 32 32 24.825 32 16C32 7.175 24.825 0 16 0ZM3.3 16L16 28.7C8.975 28.7 3.3 23.025 3.3 16V16ZM18.85 28.375L3.625 13.125C4.925 7.5 9.975 3.3 16 3.3C20.15 3.3 23.825 5.275 26.125 8.35L24.25 10.15C22.425 7.55 19.425 5.875 16 5.875C11.6 5.875 7.875 8.675 6.475 12.575C8.275 14.25 18.85 24.7 19.525 25.5C22.7 24.325 25.1 21.625 25.875 18.275H20.475V15.925L28.725 15.975C28.7 22.05 24.5 27.1 18.85 28.375Z" fill="#64328B"/>
</svg>
