<svg width="32" height="32" viewBox="0 0 32 32" fill="none" xmlns="http://www.w3.org/2000/svg">
<path d="M4.89233 6.74999L6.91408 29.2297L15.9863 31.6502L25.0838 29.2755L27.1078 6.74999H4.89233ZM22.9026 11.8677L22.7758 13.3262L22.7201 14H12.0778L12.3321 17H22.4671L22.3993 17.5577L21.7456 24.785L21.6976 25.2075L16.0001 26.741V26.7397L15.9933 26.7427L10.2991 25.2637L9.91258 21H12.7046L12.9023 23.115L15.9986 23.8997L16.0001 23.8412V23.8442L19.1031 23.182L19.4271 19.75H9.78833L9.10483 12.041L9.03808 11.25H22.9691L22.9026 11.8677V11.8677ZM6.98908 0.406738H8.39458V1.79574H9.68058V0.406738H11.0863V4.61224H9.68058V3.20399H8.39483V4.61224H6.98908V0.406738ZM12.9346 1.80149H11.6971V0.406738H15.5783V1.80149H14.3403V4.61224H12.9346V1.80149V1.80149ZM16.1943 0.406738H17.6598L18.5616 1.88449L19.4623 0.406738H20.9286V4.61224H19.5283V2.52774L18.5616 4.02299H18.5371L17.5696 2.52774V4.61224H16.1941V0.406738H16.1943ZM21.6283 0.406738H23.0343V3.22224H25.0111V4.61249H21.6283V0.406738V0.406738Z" fill="#E44D26"/>
</svg>
