<svg width="32" height="32" viewBox="0 0 32 32" fill="none" xmlns="http://www.w3.org/2000/svg">
<path d="M0.352051 0.352051H31.6481V31.6483H0.352051V0.352051Z" fill="#F0DB4F"/>
<path d="M29.0866 24.184C28.8574 22.7562 27.9264 21.557 25.1686 20.4387C24.2106 19.9985 23.1426 19.6832 22.8244 18.9572C22.7114 18.5347 22.6964 18.2967 22.7679 18.041C22.9731 17.211 23.9639 16.9522 24.7491 17.1902C25.2549 17.3597 25.7336 17.7495 26.0224 18.3712C27.3729 17.4967 27.3701 17.5025 28.3131 16.9015C27.9679 16.3662 27.7836 16.1192 27.5576 15.8902C26.7454 14.983 25.6386 14.5157 23.8686 14.5515L22.9466 14.6707C22.0631 14.894 21.2211 15.3577 20.7274 15.9795C19.2459 17.6605 19.6684 20.6025 21.4711 21.8132C23.2471 23.1462 25.8561 23.4495 26.1894 24.696C26.5136 26.222 25.0679 26.716 23.6309 26.5405C22.5719 26.3202 21.9829 25.782 21.3461 24.8032C20.1741 25.4815 20.1741 25.4815 18.9691 26.1745C19.2549 26.7992 19.5551 27.082 20.0341 27.6232C22.3011 29.9227 27.9741 29.8097 28.9916 26.3292C29.0329 26.2097 29.3069 25.4127 29.0866 24.184V24.184ZM17.3654 14.7357H14.4381L14.4261 22.3037C14.4261 23.9132 14.5094 25.3887 14.2476 25.841C13.8194 26.7305 12.7096 26.6202 12.2039 26.4477C11.6891 26.1947 11.4274 25.835 11.1241 25.3265C11.0409 25.1805 10.9784 25.0675 10.9574 25.0587L8.57739 26.5162C8.97314 27.3285 9.55614 28.0335 10.3029 28.4915C11.4184 29.161 12.9176 29.3662 14.4856 29.0062C15.5061 28.709 16.3866 28.0932 16.8476 27.156C17.5141 25.9272 17.3711 24.44 17.3651 22.795C17.3801 20.1112 17.3654 17.428 17.3654 14.7357V14.7357Z" fill="#323330"/>
</svg>
