<svg width="32" height="32" viewBox="0 0 32 32" fill="none" xmlns="http://www.w3.org/2000/svg">
<path d="M13.1453 16.9543C13.1453 16.9543 12.3243 17.4321 13.7306 17.5936C15.4341 17.7881 16.3048 17.7601 18.1818 17.4053C18.1818 17.4053 18.6766 17.7146 19.3656 17.9826C15.1566 19.7858 9.83957 17.8781 13.1453 16.9543ZM12.6306 14.6006C12.6306 14.6006 11.7096 15.2828 13.1168 15.4283C14.9368 15.6161 16.3736 15.6316 18.8616 15.1526C18.8616 15.1526 19.2048 15.5016 19.7456 15.6918C14.6576 17.1803 8.99032 15.8091 12.6306 14.6006V14.6006Z" fill="#0074BD"/>
<path d="M16.9661 10.6077C18.0038 11.8022 16.6941 12.8762 16.6941 12.8762C16.6941 12.8762 19.3273 11.517 18.1181 9.81423C16.9883 8.22698 16.1226 7.43873 20.8108 4.71973C20.8111 4.71973 13.4513 6.55723 16.9661 10.6077Z" fill="#EA2D2E"/>
<path d="M22.533 18.6952C22.533 18.6952 23.141 19.1964 21.8635 19.5839C19.4345 20.3197 11.7525 20.5417 9.61871 19.6132C8.85221 19.2794 10.2905 18.8164 10.7427 18.7192C11.2145 18.6169 11.484 18.6357 11.484 18.6357C10.631 18.0349 5.97021 19.8154 9.11671 20.3262C17.6977 21.7169 24.7585 19.6997 22.533 18.6952V18.6952ZM13.5405 12.1617C13.5405 12.1617 9.63321 13.0899 12.157 13.4274C13.223 13.5699 15.3465 13.5372 17.326 13.3712C18.9432 13.2355 20.5662 12.9452 20.5662 12.9452C20.5662 12.9452 19.9965 13.1897 19.5837 13.4712C15.6152 14.5149 7.95046 14.0287 10.1572 12.9617C12.023 12.059 13.5405 12.1617 13.5405 12.1617V12.1617ZM20.55 16.0792C24.5837 13.9837 22.7185 11.9697 21.4167 12.241C21.0985 12.3075 20.9555 12.3649 20.9555 12.3649C20.9555 12.3649 21.0742 12.1789 21.3 12.0992C23.8755 11.1942 25.8557 14.7694 20.4695 16.1854C20.4695 16.1854 20.5312 16.1294 20.55 16.0792Z" fill="#0074BD"/>
<path d="M18.1183 0.328369C18.1183 0.328369 20.3521 2.56312 15.9993 5.99887C12.5088 8.75562 15.2033 10.3271 15.9978 12.1234C13.9603 10.2849 12.4658 8.66637 13.4683 7.16037C14.9406 4.94987 19.0193 3.87762 18.1183 0.328369V0.328369Z" fill="#EA2D2E"/>
<path d="M13.9374 21.7598C17.8084 22.0073 23.7547 21.622 23.8954 19.7903C23.8954 19.7903 23.6249 20.4845 20.6957 21.0355C17.3912 21.6575 13.3149 21.5853 10.8979 21.1863C10.8979 21.1863 11.3929 21.5963 13.9374 21.7598V21.7598Z" fill="#0074BD"/>
<path d="M23.7167 25.0452H23.5987V24.9792H23.9162V25.0452H23.7987V25.3744H23.7165L23.7167 25.0452V25.0452ZM24.3505 25.0617H24.349L24.232 25.3744H24.178L24.0617 25.0617H24.0605V25.3744H23.9825V24.9792H24.0967L24.2045 25.2589L24.3125 24.9792H24.426V25.3744H24.3505V25.0617V25.0617ZM13.303 28.7592C12.938 29.0757 12.552 29.2537 12.2052 29.2537C11.7117 29.2537 11.444 28.9572 11.444 28.4824C11.444 27.9687 11.7305 27.5924 12.8785 27.5924H13.3027V28.7592H13.303ZM14.3107 29.8962V26.3769C14.3107 25.4772 13.7975 24.8837 12.5615 24.8837C11.84 24.8837 11.2075 25.0622 10.6932 25.2892L10.8412 25.9124C11.2462 25.7637 11.77 25.6257 12.284 25.6257C12.9965 25.6257 13.3027 25.9124 13.3027 26.5059V26.9507H12.9467C11.2165 26.9507 10.4357 27.6219 10.4357 28.6314C10.4357 29.5012 10.9502 29.9954 11.919 29.9954C12.5415 29.9954 13.0067 29.7384 13.441 29.3622L13.52 29.8964H14.3107V29.8962V29.8962ZM17.6737 29.8962H16.417L14.9042 24.9739H16.002L16.941 27.9987L17.1497 28.9074C17.6237 27.5929 17.9597 26.2584 18.1277 24.9742H19.1955C18.9097 26.5944 18.3947 28.3737 17.6737 29.8962V29.8962ZM22.4957 28.7592C22.1295 29.0757 21.7432 29.2537 21.3977 29.2537C20.9037 29.2537 20.6362 28.9572 20.6362 28.4824C20.6362 27.9687 20.9235 27.5924 22.0702 27.5924H22.4955V28.7592H22.4957ZM23.504 29.8962V26.3769C23.504 25.4772 22.9892 24.8837 21.7542 24.8837C21.032 24.8837 20.3997 25.0622 19.8855 25.2892L20.0337 25.9124C20.4387 25.7637 20.9632 25.6257 21.4772 25.6257C22.1887 25.6257 22.4957 25.9124 22.4957 26.5059V26.9507H22.1397C20.409 26.9507 19.6285 27.6219 19.6285 28.6314C19.6285 29.5012 20.1425 29.9954 21.111 29.9954C21.7337 29.9954 22.1982 29.7384 22.6337 29.3622L22.7132 29.8964H23.504V29.8962V29.8962ZM9.33072 30.7327C9.04397 31.1524 8.57947 31.4847 8.07147 31.6719L7.57422 31.0857C7.96097 30.8872 8.29222 30.5669 8.44647 30.2684C8.57947 30.0027 8.63472 29.6609 8.63472 28.8432V23.2227H9.70572V28.7659C9.70572 29.8597 9.61872 30.3019 9.33072 30.7327Z" fill="#EA2D2E"/>
</svg>
