<svg width="33" height="32" viewBox="0 0 33 32" fill="none" xmlns="http://www.w3.org/2000/svg">
<path d="M16.5911 31.9564C16.2223 31.9126 15.6473 31.8064 15.3348 31.7189L15.0098 31.6251L14.8348 31.1439C14.7348 30.8751 14.4973 30.1376 14.3098 29.5001L13.9598 28.3439L13.4661 28.3064C12.7098 28.2501 12.2786 28.1126 11.0348 27.5376C10.4161 27.2501 9.81606 26.9814 9.70356 26.9439C9.59731 26.9001 9.44731 26.7939 9.36606 26.7126C9.23481 26.5689 9.21606 26.4814 9.16606 25.5314L9.11606 24.5001L8.76606 24.1751C6.84106 22.3626 5.54731 19.8564 5.15356 17.1814C5.02856 16.3126 5.02856 14.6251 5.15356 13.7564C5.54106 11.1064 6.83481 8.58762 8.70981 6.83137L9.23481 6.33762L9.30981 5.81887C9.42856 4.93137 9.74731 4.28762 10.2161 3.98762C10.3536 3.89387 10.4661 3.74387 10.5348 3.56262C10.8661 2.70012 11.4036 2.23137 13.1848 1.25012C14.3473 0.606369 15.4536 0.218869 16.5286 0.0626194C17.1098 -0.0186306 18.3348 -0.0186306 18.8911 0.0688694C20.4848 0.306369 21.3786 0.756369 22.5223 1.89387C23.2973 2.66887 23.7411 3.28137 24.0036 3.96262C24.2223 4.52512 24.4598 5.60012 24.5286 6.30637L24.5723 6.76887L25.1661 7.43137C27.1723 9.66887 28.2473 12.4814 28.2473 15.4689C28.2473 17.3689 27.8223 19.1876 26.9911 20.8251L26.6723 21.4564L26.8661 21.6064C27.1536 21.8314 27.3411 22.2001 27.6536 23.1501C27.8848 23.8439 27.9348 24.0876 27.9348 24.4564C27.9348 25.2189 27.6598 26.0189 27.2598 26.3939C26.9286 26.7064 26.0536 26.8314 25.0098 26.7126C24.6661 26.6751 24.5973 26.6439 24.4786 26.4814L24.3411 26.3001L23.8098 26.3314C23.1598 26.3751 22.8098 26.4814 22.8098 26.6314C22.8098 26.8376 22.7286 26.9439 22.4911 27.0689C22.2598 27.1814 22.2473 27.2064 22.2473 27.4689C22.2473 27.6251 22.3161 28.0751 22.4036 28.4751C22.7098 29.8939 22.5848 30.1564 21.4723 30.4064C21.2973 30.4439 21.2973 30.4439 21.3348 30.8126C21.4161 31.5251 21.0411 31.8126 19.8786 31.9314C19.2911 31.9939 17.0348 32.0126 16.5911 31.9564V31.9564Z" fill="#201D1E"/>
<path d="M13.5284 27.5562C12.8847 27.4687 12.0034 27.1375 10.9097 26.575C10.1159 26.1688 9.84719 26 9.83469 25.9062C9.82844 25.8375 9.80344 25.4187 9.78469 24.9688C9.67844 22.7313 9.18469 20.2938 8.45969 18.4688C8.30344 18.0687 8.18469 17.7313 8.19719 17.7188C8.20344 17.7125 8.56594 17.4437 8.99719 17.125C9.87844 16.475 11.0159 15.7813 11.6909 15.4875L12.1409 15.2875L12.6784 15.8562C13.2534 16.475 13.5597 16.6813 14.6222 17.1938L15.2909 17.5125L15.4034 17.9937C15.4659 18.2562 15.6097 18.7688 15.7222 19.1375C15.8909 19.6625 15.9784 19.8375 16.1284 19.9625C16.3347 20.1375 16.4597 20.1625 16.7097 20.0625C16.9222 19.9813 16.9159 20.0375 16.6534 20.4C16.3972 20.7562 16.3784 20.9875 16.5784 21.1688C16.7159 21.3 18.3534 22.1313 18.8409 22.3188L19.0909 22.4188L18.4972 22.4562C18.1722 22.4812 17.4597 22.525 16.9097 22.5625C16.0284 22.625 14.9409 22.7313 14.1097 22.85C13.8284 22.8875 13.8159 22.8875 13.7659 22.7125C13.7097 22.5062 13.7034 21.4937 13.7472 20.4875C13.7784 19.8125 13.7347 19.6375 13.5659 19.7437C13.4222 19.8312 13.3847 20.2812 13.4534 21.1125C13.5222 21.975 13.4722 22.6125 13.3409 22.6625C13.2972 22.6813 13.1097 22.5938 12.9222 22.475C12.7409 22.35 12.5722 22.25 12.5472 22.25C12.4534 22.25 12.4972 22.4875 12.6222 22.6437C12.6909 22.7312 12.7472 22.8437 12.7472 22.9C12.7472 23.0062 12.5597 23.125 12.3847 23.125C12.2534 23.125 12.0159 23.35 12.0847 23.4188C12.1034 23.4438 12.4097 23.4563 12.7659 23.45C13.1159 23.4438 13.4347 23.4562 13.4784 23.4875C13.5222 23.5125 13.5847 23.8313 13.6222 24.225C13.6597 24.6063 13.7722 25.5063 13.8722 26.225C14.0409 27.4625 14.0472 27.6375 13.9472 27.6187C13.9222 27.6125 13.7347 27.5875 13.5284 27.5562V27.5562ZM20.7847 26.4813C20.7034 25.8688 20.6097 23.3 20.6722 23.2375C20.7034 23.2062 20.9222 23.175 21.1597 23.1688L21.5847 23.1562L21.6597 23.4937C21.7034 23.6812 21.7847 24.3812 21.8409 25.0562C21.8972 25.7312 21.9472 26.3375 21.9534 26.4062C21.9659 26.5312 21.8347 26.575 21.0534 26.7062C20.8222 26.7375 20.8222 26.7375 20.7847 26.4813ZM21.2284 22.2062C21.3222 22.0375 21.5784 21.6125 21.8034 21.25C22.0284 20.8875 22.4159 20.2438 22.6659 19.8188L23.1284 19.0438L22.9472 18.8188C22.6784 18.4813 22.6784 18.4687 22.7909 18.2125C22.8659 18.0312 22.8972 17.7812 22.8972 17.25C22.8972 16.4 22.7847 15.925 22.4847 15.5875C22.3097 15.3937 22.2597 15.3687 22.0472 15.3875C21.9159 15.4 21.8159 15.3937 21.8222 15.3687C21.8347 15.3437 22.0159 15.1813 22.2222 15.0063L22.6097 14.6875L23.3284 15.3562C23.7222 15.7312 24.1909 16.1625 24.3659 16.325C24.7597 16.6875 24.7659 16.7437 24.4722 17.9562C24.1597 19.2562 23.3909 21.45 23.0597 21.9875C22.8972 22.25 22.7847 22.2875 22.0097 22.3375C21.6534 22.3562 21.3097 22.4 21.2472 22.4375C21.0534 22.5438 21.0472 22.5125 21.2284 22.2062V22.2062Z" fill="#335061"/>
<path d="M20.9035 21.9438C21.0223 21.5688 21.1348 20.8375 21.2223 19.875C21.341 18.6625 21.3535 18.625 21.766 18.625C22.066 18.625 22.3598 18.7562 22.591 19L22.766 19.1812L22.3723 19.8563C21.841 20.7688 20.9848 22.0625 20.916 22.0625C20.891 22.0625 20.8785 22.0125 20.9035 21.9438Z" fill="#335061"/>
<path d="M8.65986 23.0562C5.05361 19.0812 4.75986 12.9812 7.97236 8.7125C8.35986 8.2 9.22861 7.25 9.31611 7.25C9.34111 7.25 9.38486 7.34375 9.40361 7.45625C9.43486 7.61875 9.39736 7.75 9.23486 8.0625C9.03486 8.45625 9.02861 8.475 9.03486 9.24375C9.03486 9.95 9.05361 10.0813 9.20986 10.5C9.54736 11.4 10.0661 11.9563 10.7724 12.1938L11.0849 12.3L11.1974 12.7563C11.2599 13 11.4349 13.4375 11.5911 13.7188C11.8974 14.2812 11.9349 14.4875 11.7661 14.6438C11.7036 14.6938 11.1599 15.025 10.5599 15.375C9.95986 15.7312 9.23486 16.1688 8.94736 16.35C8.68091 16.5251 8.40779 16.6898 8.12861 16.8438C7.72236 17.05 7.49736 17.3187 7.49736 17.6187C7.49736 17.8375 8.02861 19.4563 8.41611 20.4375C8.52236 20.6937 8.66611 21.1438 8.73486 21.4375C8.88486 22.0625 9.07861 23.2813 9.04736 23.3813C9.03486 23.425 8.85986 23.275 8.65986 23.0562V23.0562ZM23.6224 22.0812C23.6224 22.0562 23.7911 21.55 24.0036 20.9438C24.6286 19.1313 25.2536 17.0563 25.2911 16.6875C25.3286 16.25 25.2349 16.1 24.4349 15.3875C23.2849 14.3625 23.0599 14.125 23.0599 13.9563C23.0599 13.8688 23.1911 13.5563 23.3474 13.2688C23.6599 12.6938 23.8599 12.1562 24.0974 11.2437C24.2786 10.5375 24.4974 9.1125 24.4974 8.61875C24.4974 8.425 24.5161 8.175 24.5349 8.06875L24.5786 7.86875L24.7349 8.0125C25.3974 8.63125 26.4349 10.3687 26.8661 11.5875C27.3474 12.9437 27.5161 13.975 27.5161 15.4688C27.5161 16.625 27.4474 17.2625 27.2099 18.1938C26.9849 19.0938 26.7161 19.8188 26.3036 20.6375L25.9286 21.3625L25.5286 21.4312C25.1286 21.5 24.6349 21.6687 23.9849 21.9562C23.7849 22.0437 23.6224 22.1 23.6224 22.0812V22.0812ZM16.2224 19.4875C16.1786 19.4062 16.0411 19.075 15.9286 18.75C15.7349 18.2 15.7161 18.1 15.7161 17.375C15.7161 16.5125 15.8036 16.225 16.0849 16.15C16.3349 16.0875 17.2161 16.3688 17.9849 16.7563C18.3849 16.9625 18.7536 17.125 18.7974 17.125C18.8911 17.125 18.8974 17.2875 18.8036 17.35C18.7661 17.375 18.6036 17.425 18.4411 17.4688C18.1411 17.55 18.1474 17.5625 18.6411 17.6875C18.9224 17.7625 18.9349 17.775 18.9349 18C18.9349 18.2125 18.8974 18.2563 18.4224 18.6375C17.7286 19.1875 17.5474 19.2875 16.9786 19.4688C16.3786 19.6625 16.3349 19.6625 16.2224 19.4875ZM21.0286 18.2125C20.3474 18.0937 20.3724 18.1125 20.3724 17.7563C20.3724 17.4125 20.4661 17.3125 20.7786 17.3125C20.8724 17.3125 20.9286 17.2875 20.9036 17.25C20.8849 17.2188 20.7474 17.1875 20.6036 17.1875C20.3661 17.1875 20.3286 17.1688 20.2661 17C20.1974 16.8187 20.1974 16.8125 20.6974 16.5C22.0474 15.6313 22.3161 15.725 22.4974 17.1437C22.5536 17.6125 22.5286 18 22.4224 18.2062C22.3536 18.3375 21.7724 18.3437 21.0286 18.2125ZM19.3411 17.9125C19.2474 17.8438 19.2224 17.7437 19.2161 17.4625C19.2161 17.1062 19.2224 17.1 19.4161 17.0438C19.9474 16.8875 20.2161 17.7 19.7099 17.9312C19.5099 18.0187 19.4849 18.0188 19.3411 17.9125Z" fill="#D33833"/>
<path d="M16.8411 31.2437C16.6349 31.2125 16.2161 31.125 15.9036 31.05L15.3411 30.9062L15.0849 30.0312C14.5849 28.3562 14.2036 26.4687 13.9411 24.4375C13.8786 23.9375 13.8474 23.5062 13.8724 23.4812C13.9474 23.3937 15.9224 23.1375 17.0724 23.0625C17.8786 23.0125 18.4036 23.0125 19.0099 23.0562C20.0786 23.1437 20.1974 23.1812 20.2536 23.4062C20.2849 23.5 20.3349 24.2187 20.3724 24.9937C20.4161 25.7687 20.4536 26.425 20.4724 26.4437C20.4849 26.4625 20.5224 27.1937 20.5599 28.0687C20.6224 29.5375 20.7036 30.6312 20.7849 30.8875C20.8224 31.0125 20.6161 31.0875 19.8661 31.2187C19.2849 31.3187 17.4849 31.3375 16.8411 31.2437V31.2437ZM20.9099 29.3312C20.8911 29.0625 20.8599 28.5062 20.8349 28.0875C20.7911 27.2375 20.7661 27.2875 21.2974 27.2125L21.5974 27.175L21.7661 28.0375C21.8599 28.5187 21.9349 29.0625 21.9349 29.2562V29.6062L21.5724 29.7125C20.9536 29.8875 20.9536 29.8875 20.9099 29.3312V29.3312ZM24.9349 26.2562C24.7911 26.15 24.9286 26.0937 25.5786 25.9625C26.4286 25.8 26.1474 25.7187 24.8974 25.775L23.8786 25.8125L23.8474 25.55C23.8286 25.4 23.7786 24.9875 23.7411 24.625C23.7056 24.2499 23.6535 23.8766 23.5849 23.5062C23.4974 23.0875 23.4974 23.0375 23.5911 22.9375C23.7286 22.7875 24.1474 22.5937 24.7786 22.375C25.0536 22.2812 25.3974 22.1437 25.5411 22.0687C26.1786 21.75 26.6661 22.0687 26.9599 22.9875C27.4474 24.5312 27.4536 25.25 26.9974 25.8312C26.7474 26.1437 26.4161 26.2625 25.6849 26.2937C25.2786 26.3125 24.9911 26.2937 24.9349 26.2562V26.2562ZM26.0599 24.6812C25.8349 24.5875 25.0536 24.5375 24.7724 24.5937L24.5286 24.65L24.7474 24.6875C24.8661 24.7125 25.2474 24.7375 25.5911 24.7375C26.0724 24.7437 26.1786 24.725 26.0599 24.6812V24.6812ZM25.7224 23.8937C26.0099 23.85 26.0161 23.8437 25.8411 23.8062C25.5161 23.7312 24.9099 23.75 24.7161 23.8437C24.5349 23.925 24.5474 23.925 24.9724 23.9312C25.2161 23.9375 25.5536 23.9187 25.7224 23.8937ZM25.1224 23.175C25.5536 22.925 25.6099 22.875 25.4349 22.9062C24.9724 22.9937 24.6286 23.1375 24.3974 23.35L24.1536 23.5687L24.3724 23.525C24.4911 23.5062 24.8286 23.35 25.1224 23.175ZM22.6599 25.9937C22.6474 25.9437 22.5911 25.5562 22.5349 25.125C22.4786 24.6937 22.3911 24.0625 22.3349 23.725C22.2786 23.3562 22.2661 23.0812 22.2974 23.05C22.3286 23.0187 22.4911 23 22.6599 23.0125L22.9661 23.0312L23.1161 23.4062C23.3161 23.9125 23.4286 24.6 23.4349 25.3C23.4349 25.875 23.4349 25.8812 23.2661 25.9437C22.9536 26.0625 22.6911 26.0875 22.6599 25.9937V25.9937ZM19.1536 21.7875C18.7099 21.6062 18.0224 21.3 17.6349 21.1C17.0036 20.775 16.9349 20.725 16.9724 20.6062C17.1099 20.1625 17.5161 19.7062 18.1661 19.2625C18.3849 19.1187 18.5724 19 18.5849 19C18.7036 19 19.5224 20.5687 19.9911 21.675C20.1536 22.0625 20.1661 22.125 20.0724 22.125C20.0161 22.125 19.6036 21.975 19.1536 21.7875ZM20.9036 21.9437C21.0224 21.5687 21.1349 20.8375 21.2224 19.875C21.3036 19.0562 21.3536 18.7625 21.4224 18.7062C21.6599 18.5125 22.2911 18.6812 22.6099 19.0187L22.7536 19.1687L22.5974 19.4437C22.2536 20.0625 21.9786 20.5125 21.4849 21.2687C21.0036 22.0062 20.8099 22.2312 20.9036 21.9437V21.9437ZM20.5161 21.7812C20.3673 21.472 20.2256 21.1594 20.0911 20.8437C19.6849 19.9 19.4661 19.4687 19.1724 19.0437C18.9349 18.6937 18.9286 18.6687 19.0349 18.5562C19.0974 18.4875 19.2286 18.4375 19.3349 18.4375C19.4411 18.4312 19.5974 18.3937 19.6849 18.3437C19.9161 18.2125 20.0661 18.2312 20.3911 18.4375C20.5536 18.5375 20.7599 18.6437 20.8474 18.6625L21.0161 18.7062L20.9724 19.7C20.9286 20.675 20.8161 21.5625 20.6974 21.875C20.6411 22.0312 20.6411 22.0312 20.5161 21.7812V21.7812ZM20.5911 20.2812C20.5911 20.125 20.5661 20.0937 20.4349 20.0937C20.3349 20.0937 20.2724 20.1312 20.2599 20.2062C20.2224 20.3937 20.2974 20.5125 20.4474 20.4875C20.5599 20.475 20.5911 20.4312 20.5911 20.2812ZM20.3974 19.2812C20.4536 19.125 20.3661 19 20.2099 19C20.1224 19 20.0411 19.0437 20.0224 19.0937C19.9599 19.25 20.0474 19.375 20.2099 19.375C20.2911 19.375 20.3724 19.3312 20.3974 19.2812ZM14.7161 16.8187C14.2724 16.6625 13.9224 16.475 13.7849 16.3187C13.6474 16.1625 13.6911 15.9625 13.8599 16.0312C14.0536 16.1125 14.3974 16.175 14.8911 16.2187C15.4224 16.2625 15.4286 16.2687 15.3036 16.7062C15.2349 16.9687 15.1786 16.9812 14.7161 16.8187V16.8187ZM19.0224 16.6312C18.8099 16.575 18.3099 16.3125 18.3099 16.25C18.3099 16.225 18.5161 16.2187 18.7661 16.2375C19.1036 16.2562 19.3911 16.225 19.8286 16.125C20.1661 16.05 20.4661 16 20.4974 16.0125C20.5349 16.025 20.3724 16.1812 20.1411 16.3625C19.7036 16.7062 19.5224 16.75 19.0224 16.6312V16.6312ZM14.9036 15.9375C14.3099 15.875 13.6411 15.6687 13.2974 15.4375C12.9724 15.2187 12.6536 14.7812 12.3661 14.1437C12.0849 13.525 11.8099 12.7062 11.7724 12.3312C11.7349 12.025 11.7411 11.9937 11.9599 11.725C12.1161 11.5437 12.1849 11.3937 12.1724 11.3C12.1474 11.1125 12.0036 11.1375 11.6661 11.3812C11.2224 11.7 10.6536 11.6 10.2286 11.1312C9.78488 10.6375 9.45363 9.76871 9.51613 9.24371C9.62863 8.28746 10.5974 7.61871 11.3536 7.97496C11.5849 8.08746 11.8849 8.54371 11.9974 8.95621C12.0599 9.17496 12.0786 9.18746 12.3161 9.18746C12.4536 9.18746 12.6599 9.14371 12.7786 9.09996C13.0474 8.98746 13.0599 8.84371 12.8599 8.10621C12.6849 7.43746 12.6911 6.85621 12.8974 5.88121C13.0724 5.05621 13.1036 4.41246 12.9911 3.96871C12.9224 3.70621 12.9349 3.66871 13.1161 3.38746C13.6786 2.51246 15.3536 1.28746 16.5599 0.868711C17.0786 0.693711 18.2099 0.674961 18.9536 0.837461C20.0161 1.06871 21.1724 1.56871 21.7224 2.03746C21.9849 2.26246 22.9974 3.49996 22.9974 3.59996C22.9974 3.61246 22.8911 3.61246 22.7599 3.58746C22.2536 3.50621 21.7474 3.79996 21.7474 4.16871C21.7474 4.31246 21.7536 4.31246 21.8849 4.22496C22.1286 4.04996 22.6411 4.09371 23.0724 4.32496C23.7224 4.66871 23.9536 5.12496 24.0661 6.28746C24.1724 7.35621 24.1036 9.48746 23.9474 10.2625C23.6849 11.5 23.2849 12.5062 22.6411 13.5C22.1286 14.2875 21.8974 14.55 21.4286 14.8562C20.5224 15.4375 19.5786 15.75 18.7161 15.75C18.0974 15.75 17.7036 15.6375 16.9724 15.2625C16.3036 14.9187 15.5099 14.1937 14.8849 13.3625C14.6599 13.0625 14.4661 12.825 14.4474 12.8375C14.3786 12.9125 14.6099 13.3687 14.9349 13.8C15.3599 14.3687 16.2474 15.2375 16.6161 15.4437C16.7536 15.525 16.8724 15.6187 16.8724 15.6437C16.8724 15.675 16.7224 15.675 16.5411 15.6562C16.1474 15.6062 15.7536 15.7 15.5911 15.875C15.5286 15.9437 15.4474 15.9937 15.4099 15.9937C15.3724 15.9875 15.1474 15.9625 14.9036 15.9375V15.9375ZM20.8286 13.75C20.9536 13.7125 21.1161 13.6187 21.1911 13.5437L21.3161 13.4062L20.2661 13.3687C18.8161 13.3187 18.4286 13.1937 17.9161 12.625C17.7536 12.45 17.5849 12.3125 17.5286 12.325C17.4661 12.3375 17.5599 12.5 17.8661 12.875C18.4349 13.575 18.5661 13.6875 18.9161 13.7875C19.2661 13.8875 20.4599 13.8625 20.8286 13.75ZM20.9099 12.3937C20.8911 12.2625 20.8724 12.1125 20.8724 12.0562C20.8724 11.9687 20.7349 11.95 19.8599 11.9187C18.9411 11.8937 18.5224 11.8312 18.0286 11.65C17.7974 11.5687 18.3224 12.0625 18.6286 12.225C19.0661 12.4437 19.8161 12.6 20.5536 12.6187L20.9536 12.625L20.9099 12.3937ZM21.7974 12.4687C22.2036 12.3437 22.6599 11.9812 22.9474 11.5562C23.0724 11.3687 23.1661 11.2125 23.1536 11.2C23.1474 11.1875 22.8849 11.3062 22.5724 11.4625C22.2661 11.6187 21.8786 11.7812 21.7099 11.8187C21.5819 11.8463 21.4548 11.8775 21.3286 11.9125C21.2786 11.925 21.2474 12.05 21.2474 12.25C21.2474 12.6125 21.2724 12.6187 21.7974 12.4687V12.4687ZM20.9536 11.3187C21.4536 11.1875 21.7286 11.0687 22.3411 10.7C22.6974 10.4937 22.7286 10.4562 22.8286 10.1187C22.8849 9.91871 22.9349 9.72496 22.9349 9.68121C22.9349 9.64371 22.6911 9.35621 22.3974 9.04371C21.4911 8.07496 20.9349 7.27496 20.5849 6.40621C20.5411 6.31246 20.5286 6.34996 20.5099 6.56871C20.4724 7.13121 20.8724 7.89996 21.7661 8.97496C22.3974 9.72496 22.4849 9.91246 22.3661 10.2C22.3036 10.3625 22.1786 10.4437 21.6599 10.6937C20.9099 11.0437 20.6349 11.125 20.2099 11.125C19.8349 11.125 19.6411 10.9625 19.5786 10.5937C19.5474 10.4062 19.5286 10.3812 19.4786 10.4687C19.3911 10.6312 19.4161 11.025 19.5286 11.2437C19.6224 11.4312 19.6411 11.4375 20.0536 11.4375C20.2849 11.4375 20.6911 11.3812 20.9536 11.3187V11.3187ZM10.7286 9.83121C10.7474 9.29371 10.8536 9.06246 11.0849 9.06246C11.2536 9.06246 11.3661 9.18121 11.5661 9.56246C11.7099 9.84371 11.7161 9.84371 11.7349 9.66246C11.7661 9.38746 11.5786 8.96871 11.3036 8.72496C11.1036 8.53746 11.0099 8.49996 10.7849 8.49996C10.5536 8.49996 10.4849 8.53121 10.3474 8.69371C10.1474 8.93121 10.1411 9.03121 10.3349 8.90621C10.5099 8.78746 10.7161 8.84371 10.6411 8.99371C10.5411 9.18746 10.5911 10.3125 10.6974 10.3125C10.7099 10.3125 10.7224 10.1 10.7286 9.83121V9.83121ZM18.6661 8.08746C18.8536 7.94371 18.9099 7.81246 18.8724 7.56246C18.8661 7.51246 18.7536 7.35621 18.6224 7.21871C18.4849 7.08121 18.2786 6.75621 18.1536 6.49996L17.9349 6.03121L17.9536 6.31246C17.9786 6.59996 18.1349 6.97496 18.3786 7.36246C18.5036 7.55621 18.5099 7.58121 18.4099 7.67496C18.3286 7.75621 18.2161 7.77496 17.9161 7.76246C16.9786 7.71246 17.0286 7.71246 17.0099 7.84996C16.9474 8.28121 18.1849 8.45621 18.6661 8.08746V8.08746ZM23.3411 7.81871C23.4786 7.75621 23.6411 7.64996 23.6974 7.58121C23.8036 7.46871 23.7911 7.43121 23.4349 6.73121C23.1036 6.08746 23.0599 6.02496 23.0599 6.21871C23.0599 6.33746 23.1349 6.61871 23.2286 6.84371C23.3536 7.14371 23.3786 7.26871 23.3286 7.31871C23.2849 7.36246 23.0349 7.41246 22.7661 7.44371C22.4974 7.46871 22.2724 7.49371 22.2661 7.49371C22.2161 7.50621 22.2599 7.68121 22.3474 7.79996C22.4224 7.91246 22.5036 7.93746 22.7661 7.93746C22.9474 7.93746 23.2036 7.88121 23.3411 7.81871ZM15.5599 5.09996C15.9349 4.59371 16.3036 4.40621 16.8911 4.41246C17.3099 4.41246 17.3161 4.41246 17.2974 4.25621C17.2661 4.00621 16.9036 3.79371 16.5974 3.84371C16.0536 3.92496 15.3661 4.47496 15.1474 4.99371C14.9974 5.34371 15.0599 5.86246 15.2161 5.58746C15.2474 5.53121 15.4036 5.31246 15.5599 5.09996V5.09996Z" fill="#6F6C6E"/>
<path d="M12.4161 8.64368C12.3911 8.62493 12.3723 8.53743 12.3723 8.45618C12.3723 8.06243 11.9036 7.53743 11.3911 7.36868C11.0911 7.26868 10.3411 7.32493 10.1911 7.46243C10.1348 7.51868 10.0598 7.54368 10.0411 7.51868C10.0161 7.49993 9.99731 7.10618 9.99731 6.65618C9.99731 5.59368 10.0848 5.28743 10.5161 4.83118C10.9536 4.36868 11.7161 3.98743 12.2286 3.97493L12.5911 3.96868L12.6473 4.39993C12.6973 4.73743 12.6786 5.03743 12.5723 5.83743C12.4036 7.09368 12.4036 7.21243 12.5723 7.91868C12.6848 8.39368 12.6911 8.50618 12.6286 8.58743C12.5348 8.69368 12.4786 8.71243 12.4161 8.64368V8.64368ZM11.1036 3.54993C11.3161 3.18118 11.8911 2.61868 12.4286 2.26243C13.3786 1.62493 14.6536 1.15618 14.6536 1.43743C14.6536 1.48743 14.5973 1.55618 14.5286 1.59368C14.0223 1.84993 13.4911 2.35618 13.2161 2.82493C13.1223 2.98743 12.9723 3.20618 12.8723 3.31243C12.7098 3.48743 12.6661 3.49993 12.2973 3.49368C12.0376 3.48835 11.7792 3.53071 11.5348 3.61868C11.0161 3.80618 10.9661 3.79368 11.1036 3.54993V3.54993Z" fill="#6F6C6E"/>
<path d="M9.99729 26.1063C9.90979 26.0563 9.84729 25.9938 9.85354 25.9626C9.87229 25.8563 9.75354 24.1126 9.68479 23.5313C9.54104 22.3188 9.24729 20.8126 8.99104 19.9688C8.79729 19.3126 8.60979 18.7626 8.55354 18.6251C8.50979 18.5376 8.45979 18.4126 8.42854 18.3438C8.20354 17.7938 8.18479 17.7188 8.24729 17.7001C8.28479 17.6876 8.48479 17.5438 8.68479 17.3813C9.48479 16.7501 10.7223 15.9501 11.4348 15.6188C11.6598 15.5126 11.9098 15.3938 11.991 15.3563C12.1285 15.2876 12.166 15.3126 12.5348 15.7188C12.7535 15.9563 12.9348 16.1688 12.9348 16.1876C12.9348 16.2313 12.9723 16.2126 10.841 17.1563C10.016 17.5251 9.32854 17.8313 9.32229 17.8438C9.30979 17.8563 9.37229 18.2001 9.46604 18.6063C9.82229 20.1876 10.0973 21.8063 10.2473 23.1751C10.3598 24.2063 10.3223 26.1876 10.191 26.1876C10.1723 26.1876 10.0848 26.1501 9.99729 26.1063V26.1063ZM20.6723 24.1501C20.6098 24.0938 20.6098 23.7126 20.6598 23.4501C20.7035 23.2313 20.7848 23.1876 21.241 23.1626C21.541 23.1376 21.5535 23.1438 21.616 23.3313C21.6535 23.4313 21.6848 23.6126 21.6848 23.7313C21.6848 23.9188 21.6535 23.9563 21.4535 24.0438C21.1785 24.1563 20.7348 24.2188 20.6723 24.1501V24.1501ZM12.9348 23.9376C12.4973 23.8626 12.2723 23.7876 12.0723 23.6563C11.891 23.5376 11.8285 23.4626 11.8848 23.4313C11.9223 23.4063 11.991 23.4001 12.0285 23.4251C12.0598 23.4501 12.391 23.4688 12.7598 23.4688C13.166 23.4688 13.4535 23.4938 13.4973 23.5376C13.5348 23.5751 13.5598 23.7063 13.5473 23.8251L13.5285 24.0376L12.9348 23.9376V23.9376ZM13.7848 22.7751C13.7348 22.6438 13.7348 21.1063 13.7848 20.3876L13.8285 19.8188L14.066 20.1188L14.3098 20.4251V21.6188C14.3098 22.2751 14.291 22.8126 14.266 22.8188C14.2348 22.8188 14.1285 22.8313 14.016 22.8438C13.8785 22.8626 13.8098 22.8438 13.7848 22.7751V22.7751ZM19.316 21.8438C18.641 21.5751 17.1785 20.8751 17.016 20.7376C16.8973 20.6376 17.1785 20.1438 17.566 19.7813C18.0035 19.3688 18.4848 19.0438 18.591 19.0813C18.741 19.1438 19.2973 20.1251 19.716 21.0688C20.116 21.9938 20.166 22.1251 20.0785 22.1251C20.0473 22.1251 19.7098 21.9938 19.316 21.8438ZM20.9035 21.9688C21.0723 21.4813 21.2223 20.4688 21.2848 19.4501C21.3285 18.7751 21.3348 18.7376 21.4785 18.6813C21.8348 18.5501 22.3035 18.6876 22.6098 19.0188L22.7535 19.1688L22.5973 19.4438C21.8348 20.8126 20.7473 22.4251 20.9035 21.9688V21.9688ZM23.6723 16.5313C23.166 16.1563 22.6535 15.7438 22.541 15.6313C22.4223 15.5126 22.241 15.3813 22.1285 15.3438L21.9285 15.2813L22.266 14.9876L22.6035 14.6938L23.191 15.2688C23.516 15.5876 23.966 16.0063 24.1973 16.2063C24.6348 16.5813 24.7535 16.8188 24.641 17.0938C24.5973 17.2063 24.5035 17.1563 23.6723 16.5313V16.5313Z" fill="#4A738D"/>
<path d="M16.9349 31.225C16.1287 31.1 15.4537 30.9375 15.3849 30.8562C15.2974 30.75 14.9787 29.625 14.6912 28.4312C14.2912 26.8062 13.7912 23.6125 13.9162 23.5C13.9849 23.4312 15.5474 23.2062 16.5599 23.1187C17.7662 23.0125 20.0599 23.1062 20.2162 23.2625C20.2349 23.275 20.2912 24.0312 20.3412 24.9437C20.3912 25.85 20.4474 26.7062 20.4662 26.8437C20.4849 26.9812 20.5287 27.7625 20.5599 28.575C20.5912 29.3875 20.6537 30.2562 20.6912 30.5062C20.7474 30.8625 20.7412 30.9625 20.6787 31.0062C20.3037 31.2375 17.9224 31.375 16.9349 31.225V31.225ZM20.9662 29.75C20.9537 29.7312 20.9224 29.175 20.8974 28.525L20.8537 27.3375L21.1787 27.2625C21.5537 27.175 21.6224 27.2 21.6224 27.4C21.6224 27.4812 21.6787 27.8062 21.7474 28.1312C21.8162 28.4562 21.8912 28.9062 21.9099 29.1375C21.9537 29.5562 21.9537 29.5562 21.7724 29.6312C21.5287 29.725 20.9974 29.8062 20.9662 29.75V29.75ZM25.0912 26.2562C24.8474 26.2125 24.8474 26.2062 24.9974 26.1437C25.0849 26.1062 25.2537 26.0625 25.3724 26.0375C26.0537 25.9062 26.1912 25.8562 26.1224 25.7875C26.0724 25.7437 25.7162 25.725 24.9724 25.7375L23.8974 25.7562L23.7912 24.7687C23.7287 24.225 23.6412 23.6125 23.5912 23.4062L23.5037 23.0312L23.6724 22.8937C23.7662 22.8125 24.0412 22.675 24.2787 22.5875C24.5224 22.4937 24.9537 22.325 25.2474 22.2C25.8849 21.9375 26.1474 21.9187 26.4287 22.125C26.7037 22.3187 26.8849 22.7312 27.1224 23.6875C27.3224 24.525 27.3537 24.9375 27.2349 25.3312C27.1287 25.6812 26.7224 26.0937 26.4037 26.175C26.0474 26.2687 25.3849 26.3062 25.0912 26.2562V26.2562ZM26.1349 24.6812C25.8037 24.55 25.1724 24.4937 24.8349 24.5625C24.2537 24.6875 24.4537 24.75 25.3912 24.7437C26.0037 24.7437 26.2349 24.725 26.1349 24.6812V24.6812ZM26.0162 23.8812C26.1287 23.8375 26.1037 23.8187 25.8412 23.775C25.2099 23.6687 24.4974 23.7625 24.4974 23.9562C24.4974 24.025 25.7974 23.9625 26.0162 23.8812ZM25.1662 23.1812C25.4912 23.0062 25.7474 22.8562 25.7349 22.8437C25.6912 22.8 25.1037 22.9437 24.8162 23.0625C24.6474 23.1375 24.4287 23.2812 24.3349 23.3875L24.1537 23.5812L24.3662 23.5375C24.4787 23.5187 24.8412 23.3562 25.1662 23.1812V23.1812ZM22.6849 26C22.6849 25.9312 22.3349 23.525 22.2787 23.2375C22.2537 23.0625 22.2537 23.0625 22.5974 23.0625H22.9412L23.0662 23.3437C23.2537 23.7625 23.3662 24.375 23.4162 25.1625L23.4537 25.8562L23.1537 25.9625C22.8037 26.075 22.6849 26.0875 22.6849 26V26ZM19.9037 22.0437C19.0412 21.7625 16.9974 20.8062 16.9974 20.6812C16.9974 20.3562 17.5474 19.7062 18.1599 19.3062L18.5724 19.0437L18.7162 19.225C18.9974 19.5625 20.1912 22.025 20.1099 22.0937C20.0974 22.1 20.0099 22.0812 19.9037 22.0437V22.0437ZM20.9599 21.9062C21.0787 21.5875 21.2974 19.9437 21.3162 19.1375L21.3287 18.75L21.5537 18.6875C21.8724 18.6062 22.2224 18.7 22.4724 18.9437C22.5912 19.0562 22.6849 19.175 22.6849 19.2062C22.6849 19.2875 21.8474 20.6937 21.3849 21.3937C21.0099 21.9625 20.8724 22.125 20.9599 21.9062V21.9062ZM20.4787 21.6437C20.3974 21.4812 20.1537 20.9437 19.9412 20.4625C19.7287 19.975 19.4287 19.3875 19.2724 19.15C19.0224 18.7625 18.9974 18.7062 19.0724 18.575C19.1224 18.475 19.1849 18.4375 19.2662 18.4625C19.3349 18.4812 19.5287 18.4375 19.6974 18.3687L20.0037 18.25L20.3974 18.4687C20.6162 18.5875 20.8349 18.6875 20.8912 18.6875C21.0162 18.6875 21.0162 18.6312 20.9349 19.9125C20.8787 20.8062 20.7412 21.8437 20.6599 21.9187C20.6412 21.9375 20.5599 21.8125 20.4787 21.6437V21.6437ZM20.6287 20.4C20.7349 20.2687 20.6287 20.0937 20.4349 20.0937C20.2412 20.0937 20.1349 20.2687 20.2412 20.4C20.2912 20.4562 20.3724 20.5 20.4349 20.5C20.4974 20.5 20.5787 20.4562 20.6287 20.4ZM20.3974 19.3C20.4787 19.1687 20.3849 18.9812 20.2349 18.95C20.1349 18.9312 19.9349 19.0937 19.9349 19.1875C19.9349 19.2812 20.1349 19.4437 20.2349 19.425C20.2849 19.4125 20.3599 19.3562 20.3974 19.3ZM14.7162 16.7875C14.3099 16.6562 13.8224 16.3875 13.7474 16.25C13.6412 16.0562 13.7224 16 13.9599 16.0937C14.0724 16.1437 14.4224 16.2 14.7412 16.225C15.0537 16.25 15.3224 16.2875 15.3412 16.3125C15.3537 16.3312 15.3349 16.4687 15.2974 16.6125C15.2224 16.9062 15.1537 16.925 14.7162 16.7875ZM18.9349 16.5812C18.7224 16.5062 18.3099 16.2875 18.3099 16.25C18.3099 16.225 18.4537 16.2375 18.6287 16.275C18.8974 16.3312 19.0662 16.3125 19.7224 16.1812C20.1474 16.0875 20.4974 16.025 20.4974 16.0375C20.4974 16.0437 20.3287 16.1812 20.1287 16.3375C19.7787 16.6062 19.7349 16.625 19.3912 16.6187C19.1912 16.6187 18.9849 16.6 18.9349 16.5812V16.5812ZM14.7787 15.8937C14.4599 15.8625 13.7224 15.6437 13.4287 15.5C13.1099 15.3375 12.8162 14.9812 12.5162 14.4062C12.2349 13.8562 11.8474 12.7562 11.7787 12.3062C11.7412 12.0375 11.7474 12.0062 11.9912 11.725C12.2599 11.4187 12.2849 11.3437 12.1849 11.1875C12.1349 11.1062 12.0912 11.1125 11.8912 11.2312C11.3162 11.5625 11.2724 11.5812 10.9724 11.5375C10.5162 11.4687 10.2037 11.1812 9.87866 10.55C9.63491 10.0812 9.59741 9.94371 9.57241 9.51871C9.54741 9.09371 9.56616 8.98121 9.68491 8.74371C9.99741 8.11871 10.4099 7.89371 11.1474 7.93121C11.4099 7.94371 11.7537 8.33121 11.9037 8.78121C11.9662 8.98746 12.0412 9.18121 12.0662 9.20621C12.1412 9.29996 12.7537 9.17496 12.9224 9.03121L13.0849 8.89371L12.9162 8.18121C12.7037 7.27496 12.7037 6.97496 12.9349 5.85621C13.1474 4.82496 13.1599 4.54996 13.0349 4.06246L12.9412 3.71871L13.1412 3.38121C13.6662 2.50621 15.6537 1.10621 16.7474 0.849962C18.2412 0.493712 20.7537 1.15621 21.8287 2.18121C22.1224 2.46246 22.9349 3.48121 22.9349 3.57496C22.9349 3.58121 22.7537 3.59371 22.5349 3.59371C22.1912 3.59371 22.1099 3.61871 21.9662 3.74996C21.7849 3.91871 21.6662 4.16246 21.7162 4.24996C21.7349 4.28121 21.8474 4.26246 21.9662 4.21246C22.3849 4.03746 22.9287 4.16246 23.3662 4.54371C23.8974 4.99996 24.0412 5.54996 24.0974 7.37496C24.1662 9.56871 23.8599 11.1625 23.0849 12.7062C22.9037 13.0562 22.2662 14.0375 22.0099 14.3437C21.4974 14.9625 20.0162 15.6375 18.9724 15.725C18.3849 15.775 17.9099 15.675 17.2162 15.35C16.2537 14.8937 15.6099 14.325 14.7912 13.1937C14.5787 12.9062 14.3974 12.7 14.3849 12.7437C14.3474 12.85 14.6662 13.5 14.9287 13.8437C15.2974 14.3312 16.1849 15.2125 16.5162 15.425L16.8162 15.6125L16.3162 15.6312C15.9037 15.65 15.7912 15.6812 15.6724 15.8C15.5162 15.9375 15.3974 15.95 14.7787 15.8937V15.8937ZM20.7849 13.7812C21.0537 13.7 21.3724 13.475 21.3724 13.375C21.3724 13.35 20.9599 13.3312 20.4537 13.3312C18.9849 13.3375 18.3224 13.1375 17.8849 12.5625C17.7662 12.4062 17.6349 12.275 17.5912 12.2625C17.4099 12.2187 17.4412 12.3875 17.6474 12.6437C17.7724 12.7875 17.9912 13.0562 18.1349 13.2437C18.4349 13.6187 18.7162 13.7937 19.1662 13.875C19.5474 13.9437 20.4162 13.8937 20.7849 13.7812V13.7812ZM20.9224 12.3L20.9037 11.9687L20.0287 11.925C19.0849 11.8812 18.4724 11.7937 18.1287 11.65C18.0099 11.6 17.9037 11.5687 17.8974 11.5812C17.8849 11.5937 17.9599 11.7062 18.0662 11.8312C18.4412 12.2812 19.4099 12.6125 20.4224 12.6187L20.9412 12.625L20.9224 12.3ZM22.1537 12.35C22.3037 12.2625 22.5287 12.0812 22.6537 11.9437C22.9099 11.675 23.2599 11.175 23.2162 11.1375C23.2037 11.125 22.9849 11.225 22.7349 11.3562C22.2537 11.6187 21.5849 11.875 21.3724 11.875C21.2599 11.875 21.2474 11.9187 21.2474 12.225V12.5812L21.5662 12.5437C21.7412 12.5187 22.0037 12.4312 22.1537 12.35V12.35ZM20.9974 11.3312C21.4162 11.225 21.8849 11.0125 22.3787 10.7125C22.7099 10.5125 22.7537 10.4625 22.8412 10.175C22.9849 9.67496 22.9662 9.61246 22.5724 9.20621C21.7162 8.34371 20.7849 7.01246 20.6599 6.48746C20.6412 6.38746 20.5787 6.31246 20.5287 6.31246C20.2974 6.31246 20.5412 7.24371 20.9349 7.89996C21.0537 8.09371 21.3537 8.49996 21.5912 8.78746C22.4349 9.81871 22.4724 9.89371 22.3037 10.2687C22.1662 10.575 20.5037 11.1875 20.0412 11.1C19.7724 11.05 19.6787 10.9375 19.6287 10.6375C19.5849 10.3687 19.4912 10.3437 19.4099 10.575C19.3287 10.8 19.4224 11.175 19.5974 11.3562C19.7474 11.5062 19.7787 11.5125 20.2037 11.4687C20.4537 11.4437 20.8099 11.3812 20.9974 11.3312V11.3312ZM10.8974 9.19371C10.9662 9.11871 11.0474 9.06246 11.0912 9.06246C11.1974 9.06246 11.3974 9.29996 11.5662 9.62496L11.7162 9.90621L11.7349 9.61246C11.7599 9.26246 11.5974 8.90621 11.3099 8.66246C10.9287 8.34996 10.5099 8.38121 10.2662 8.74371C10.0849 9.01246 10.0849 9.09996 10.2599 8.97496C10.3349 8.91871 10.4537 8.87496 10.5162 8.87496C10.6162 8.87496 10.6224 8.90621 10.5787 9.08121C10.5037 9.37496 10.5287 10.0062 10.6287 10.2187C10.7037 10.4 10.7099 10.3812 10.7474 9.86246C10.7724 9.45621 10.8099 9.28746 10.8974 9.19371V9.19371ZM18.7224 8.06246C19.0162 7.76871 19.0037 7.59371 18.6537 7.19996C18.4974 7.02496 18.2662 6.66246 18.1349 6.39371C17.9349 5.96246 17.9037 5.92496 17.8849 6.08746C17.8599 6.27496 18.0787 6.96246 18.2162 7.12496C18.2599 7.17496 18.3412 7.30621 18.3912 7.41246C18.4912 7.61246 18.4912 7.61246 18.3099 7.68746C18.1787 7.74371 17.9849 7.74996 17.6412 7.71246C17.3724 7.68746 17.1287 7.66246 17.0912 7.65621C16.9787 7.65621 16.9849 7.94371 17.0974 8.06871C17.2599 8.24996 17.5349 8.31246 18.0474 8.28746C18.4662 8.26871 18.5224 8.24996 18.7224 8.06246ZM23.4787 7.78121C23.6287 7.68746 23.7724 7.57496 23.7912 7.53121C23.8162 7.44996 23.0787 5.87496 23.0099 5.87496C22.9287 5.87496 23.0662 6.57496 23.2162 6.89996C23.4099 7.33746 23.3974 7.34996 22.8099 7.40621C22.5849 7.43121 22.3662 7.45621 22.3287 7.46871C22.1912 7.51246 22.2412 7.73746 22.4224 7.87496C22.5599 7.98746 22.6412 8.00621 22.8974 7.97496C23.0599 7.95621 23.3224 7.86871 23.4787 7.78121V7.78121ZM15.3662 5.41246C15.5912 5.03121 15.9724 4.65621 16.2849 4.52496C16.3974 4.47496 16.6724 4.43746 16.8974 4.43746C17.1224 4.43746 17.3224 4.40621 17.3412 4.37496C17.4662 4.16871 17.0474 3.81246 16.6724 3.81246C16.3849 3.81246 15.8724 4.07496 15.5537 4.39371C15.2912 4.65621 14.9974 5.18121 14.9974 5.39371C14.9974 5.50621 15.1037 5.74996 15.1537 5.74996C15.1662 5.74996 15.2599 5.59996 15.3662 5.41246V5.41246Z" fill="#83B3C7"/>
<path d="M10.0223 7.14987C9.9723 6.72487 10.0223 5.80612 10.1223 5.48737C10.3286 4.78737 11.2786 4.11862 12.2848 3.96237C12.5161 3.93112 12.5473 3.93737 12.5786 4.06862C12.6411 4.29362 12.6348 4.31237 12.4786 4.31237C12.2348 4.31237 11.5473 4.56237 11.2348 4.76237C10.4848 5.23737 10.0411 6.21237 10.1598 7.11862C10.1848 7.30612 10.1723 7.43737 10.1348 7.46237C10.0911 7.48737 10.0536 7.36862 10.0223 7.14987V7.14987ZM11.0598 3.68737C11.0598 3.66237 11.1911 3.46862 11.3473 3.25612C11.6848 2.80612 12.3848 2.26237 13.1098 1.88737C13.6786 1.59362 14.4786 1.29362 14.5661 1.34987C14.6786 1.41237 14.6161 1.54362 14.4411 1.63112C13.1098 2.28112 12.6536 2.58112 12.0661 3.19362C11.7911 3.47487 11.6411 3.57487 11.3911 3.64987C11.2098 3.69987 11.0598 3.71862 11.0598 3.68737Z" fill="#83B3C7"/>
<path d="M18.9348 16.5687C18.716 16.5 18.3848 16.325 18.341 16.25C18.316 16.2062 18.3598 16.2062 18.466 16.25C18.7223 16.3437 19.091 16.325 19.8285 16.1625C20.1973 16.0812 20.4973 16.025 20.4973 16.0312C20.4973 16.0375 20.3285 16.175 20.1285 16.3375C19.791 16.6 19.7285 16.625 19.4223 16.6187C19.241 16.6187 19.0223 16.5937 18.9348 16.5687V16.5687ZM14.7035 15.8687C14.1973 15.8062 13.5473 15.5812 13.2535 15.375C12.916 15.1312 12.5848 14.6125 12.2598 13.8375C12.016 13.2437 11.7473 12.3437 11.7473 12.1187C11.7473 12.0562 11.8598 11.875 12.0035 11.7125C12.266 11.4125 12.3098 11.175 12.1098 11.1375C12.0535 11.125 11.8473 11.2187 11.6598 11.35C11.3598 11.55 11.2785 11.575 11.0535 11.5437C10.6285 11.4875 10.2473 11.2062 9.97855 10.75C9.3473 9.66245 9.4348 8.6562 10.2098 8.1437C10.4723 7.96245 10.566 7.93745 10.9035 7.93745C11.2098 7.93745 11.3285 7.9687 11.466 8.07495C11.641 8.21245 11.9973 8.8812 11.9973 9.0812C11.9973 9.1437 12.041 9.2062 12.091 9.22495C12.266 9.2937 12.7473 9.1812 12.916 9.03745L13.0785 8.8937L12.916 8.1687C12.7035 7.24995 12.7035 6.98745 12.9348 5.8812C13.1473 4.87495 13.166 4.47495 13.0285 4.02495C12.941 3.7312 12.9473 3.71245 13.091 3.46245C13.4723 2.81245 14.3723 2.03745 15.4973 1.39995C16.3348 0.931201 16.716 0.806201 17.4973 0.768701C18.5973 0.712451 19.6785 0.962451 20.9098 1.56245C21.4535 1.82495 21.6035 1.9312 21.9723 2.3312C22.2098 2.58745 22.5223 2.9687 22.6723 3.1812L22.941 3.56245H22.5848C22.1848 3.56245 21.941 3.6812 21.7848 3.93745C21.6473 4.17495 21.6535 4.33745 21.7973 4.2812C22.2973 4.0687 22.691 4.11245 23.1973 4.4312C23.8098 4.8187 23.966 5.27495 24.0723 6.9312C24.2035 9.0562 23.916 10.8875 23.216 12.4187C22.9348 13.0312 22.191 14.1625 21.8598 14.475C21.3848 14.9312 20.516 15.375 19.6848 15.5937C19.1223 15.7437 18.2473 15.7437 17.8098 15.6C16.7285 15.2375 15.841 14.5562 14.9723 13.4187C14.666 13.0187 14.4035 12.7 14.3848 12.7125C14.3285 12.7687 14.5723 13.3562 14.766 13.6375C15.116 14.1437 16.041 15.1 16.4473 15.375L16.8348 15.6312L16.5035 15.6062C16.1035 15.5687 15.841 15.6375 15.6535 15.8125C15.5098 15.95 15.4098 15.95 14.7035 15.8687V15.8687ZM20.616 13.8312C20.9973 13.75 21.3723 13.5187 21.3723 13.3625C21.3723 13.3375 20.9598 13.3125 20.4535 13.3125C19.391 13.3187 19.091 13.2812 18.6348 13.1125C18.2535 12.9687 17.9973 12.7687 17.8098 12.4687C17.7285 12.3437 17.6223 12.25 17.5535 12.25C17.3348 12.25 17.3723 12.3062 18.191 13.3312C18.2973 13.4625 18.4473 13.6125 18.5348 13.6625C18.9348 13.9312 19.816 14 20.616 13.8312ZM20.9348 12.3312C20.9348 12.1187 20.9035 11.9875 20.8598 11.9687C20.816 11.9562 20.416 11.9312 19.966 11.9062C18.941 11.8625 18.4285 11.775 17.9723 11.5937C17.8723 11.55 17.866 11.5625 17.9285 11.6687C18.2223 12.2312 19.391 12.65 20.6723 12.6625H20.9348V12.3312V12.3312ZM22.0348 12.4062C22.216 12.3312 22.4723 12.15 22.616 12.0062C22.8535 11.7687 23.266 11.1812 23.2223 11.1375C23.2098 11.1312 22.916 11.2625 22.566 11.4312C22.216 11.6 21.7785 11.775 21.591 11.8125L21.2473 11.8812V12.6375L21.4848 12.5937C21.6098 12.575 21.8598 12.4875 22.0348 12.4062V12.4062ZM21.0723 11.3375C21.441 11.225 21.8535 11.0312 22.3848 10.7125C22.6848 10.5312 22.7535 10.45 22.8348 10.2062C22.991 9.7562 22.966 9.5312 22.7473 9.36245C22.1785 8.9187 20.9098 7.2062 20.716 6.62495C20.6535 6.4312 20.5785 6.31245 20.516 6.31245C20.4348 6.31245 20.4223 6.3687 20.4598 6.67495C20.5223 7.19995 20.9598 8.03745 21.5285 8.7187C22.266 9.59995 22.3723 9.7562 22.3723 9.9437C22.3723 10.3 22.2723 10.3937 21.566 10.7062C20.841 11.025 20.4785 11.1125 20.0973 11.0812C19.7848 11.0562 19.691 10.975 19.6473 10.675C19.5973 10.3875 19.5285 10.325 19.441 10.4937C19.3035 10.75 19.3723 11.1187 19.616 11.4C19.7035 11.5 19.7785 11.5062 20.2285 11.475C20.5098 11.45 20.891 11.3875 21.0723 11.3375V11.3375ZM10.9223 9.17495C11.0473 9.04995 11.0598 9.04995 11.2098 9.14995C11.2973 9.2062 11.4473 9.39995 11.541 9.5812L11.716 9.9062L11.7348 9.61245C11.7848 8.86245 10.966 8.17495 10.4473 8.53745C10.2973 8.63745 10.091 8.98745 10.1473 9.0437C10.166 9.06245 10.2223 9.0312 10.2785 8.97495C10.3348 8.9187 10.4348 8.87495 10.5098 8.87495C10.616 8.87495 10.6285 8.89995 10.5785 9.0812C10.5035 9.38745 10.5285 10.075 10.6285 10.25C10.7098 10.3937 10.716 10.3687 10.7535 9.8562C10.7848 9.41245 10.816 9.27495 10.9223 9.17495ZM18.5348 8.21245C19.0223 7.9812 19.0598 7.6312 18.6535 7.1937C18.5035 7.0312 18.2723 6.67495 18.141 6.39995C17.9348 5.96245 17.9035 5.92495 17.8848 6.08745C17.8535 6.3187 18.0223 6.83745 18.2535 7.1937C18.3535 7.34995 18.4348 7.51245 18.4348 7.54995C18.4348 7.74995 17.8973 7.7937 17.2348 7.64995C17.0348 7.6062 16.9598 7.7187 17.0223 7.96245C17.0973 8.27495 18.066 8.4312 18.5348 8.21245V8.21245ZM23.4473 7.79995C23.8723 7.56245 23.8723 7.54995 23.4348 6.6687C23.2223 6.2312 23.0348 5.87495 23.016 5.87495C22.9285 5.87495 23.066 6.5812 23.216 6.9062C23.3973 7.3062 23.3723 7.3687 23.0285 7.3812C22.7848 7.38745 22.4223 7.4312 22.3285 7.4687C22.191 7.5187 22.241 7.73745 22.4223 7.87495C22.5598 7.98745 22.641 8.0062 22.891 7.97495C23.0598 7.9562 23.3098 7.87495 23.4473 7.79995ZM15.3348 5.4812C15.4035 5.33745 15.6035 5.07495 15.7723 4.89995C16.141 4.53745 16.5035 4.4062 16.9973 4.44995C17.2598 4.47495 17.316 4.46245 17.341 4.3687C17.4285 4.1062 17.066 3.81245 16.6723 3.81245C16.1598 3.81245 15.4223 4.3687 15.1473 4.9562C14.9848 5.31245 14.966 5.44995 15.0598 5.6312C15.1535 5.8062 15.2035 5.7812 15.3348 5.4812Z" fill="#F1D8B9"/>
<path d="M17.3723 31.2749C17.2848 31.2624 17.0035 31.2187 16.7473 31.1812C16.1723 31.0999 15.4848 30.9374 15.4098 30.8687C15.2785 30.7499 14.7223 28.7062 14.441 27.2999C14.2348 26.2937 13.9473 24.3499 13.9223 23.8124L13.9035 23.4749L14.1848 23.4249C15.816 23.1312 18.2035 22.9874 19.4035 23.1187C19.7848 23.1624 20.1285 23.2312 20.166 23.2687C20.241 23.3437 20.3535 24.8249 20.4973 27.7499C20.566 29.1499 20.6723 30.5624 20.7223 30.8187C20.7598 30.9749 20.741 30.9874 20.3535 31.0812C19.6035 31.2687 18.041 31.3687 17.3723 31.2749V31.2749ZM20.916 28.9624C20.891 28.5187 20.8723 27.9749 20.8723 27.7437V27.3374L21.2035 27.2687C21.3785 27.2312 21.541 27.2124 21.5535 27.2187C21.5973 27.2624 21.9285 29.1062 21.9348 29.3312C21.9348 29.5999 21.816 29.6749 21.2723 29.7312L20.9535 29.7624L20.916 28.9624V28.9624ZM25.1723 26.2687C25.041 26.2562 24.9348 26.2187 24.9348 26.1812C24.9348 26.1499 24.9473 26.1249 24.9598 26.1249C24.991 26.1249 25.8348 25.9562 26.0535 25.8999C26.1723 25.8749 26.1848 25.8499 26.1285 25.7937C26.0723 25.7374 25.7473 25.7249 24.9785 25.7374L23.8973 25.7499L23.791 24.7374C23.7285 24.1749 23.641 23.5624 23.591 23.3749L23.4973 23.0312L23.666 22.8937C23.7598 22.8124 24.166 22.6374 24.5598 22.4937C24.9535 22.3499 25.416 22.1624 25.5785 22.0812C26.041 21.8499 26.5035 22.0187 26.7473 22.4999C26.9223 22.8374 27.3098 24.3874 27.3098 24.7374C27.3098 25.4374 26.9285 26.0437 26.4035 26.1749C26.091 26.2562 25.4723 26.2999 25.1723 26.2687V26.2687ZM26.2973 24.7187C26.2785 24.6999 26.041 24.6437 25.7723 24.5874C25.1785 24.4749 24.4973 24.5312 24.4973 24.6937C24.4973 24.7249 24.9098 24.7499 25.416 24.7499C25.916 24.7499 26.316 24.7374 26.2973 24.7187V24.7187ZM26.0598 23.8749C26.166 23.8124 25.6785 23.7249 25.216 23.7187C24.891 23.7187 24.4973 23.8437 24.4973 23.9562C24.4973 24.0249 25.9098 23.9562 26.0598 23.8749ZM24.816 23.3749C25.0357 23.2522 25.2587 23.1355 25.4848 23.0249C25.666 22.9374 25.8035 22.8499 25.791 22.8374C25.7785 22.8187 25.5598 22.8499 25.3035 22.8999C24.8598 22.9937 24.1848 23.3562 24.1848 23.4999C24.1848 23.6187 24.4848 23.5624 24.816 23.3749ZM22.6535 25.7062C22.6348 25.5062 22.5473 24.9062 22.4598 24.3749C22.3785 23.8437 22.3098 23.3312 22.3098 23.2374C22.3098 23.0687 22.3223 23.0624 22.6285 23.0624C22.941 23.0624 22.941 23.0624 23.066 23.3437C23.2473 23.7562 23.366 24.3687 23.4098 25.1624L23.4535 25.8499L23.1223 25.9562C22.941 26.0124 22.7723 26.0624 22.7473 26.0624C22.7223 26.0624 22.6785 25.8999 22.6535 25.7062ZM20.4223 21.4999C20.2973 21.2437 20.0535 20.6999 19.8723 20.2999C19.6973 19.8999 19.4223 19.3812 19.2723 19.1499C19.1223 18.9187 18.9973 18.7187 18.9973 18.6999C18.9973 18.6124 19.2035 18.4499 19.2785 18.4749C19.3223 18.4937 19.4598 18.4624 19.591 18.4124C19.9285 18.2687 20.116 18.2874 20.4348 18.4999C20.591 18.5999 20.7785 18.6874 20.8598 18.6874C20.9973 18.6874 20.9973 18.6937 20.966 19.3937C20.916 20.3749 20.8098 21.3124 20.716 21.6687L20.6348 21.9687L20.4223 21.4999ZM20.6285 20.3999C20.7348 20.2687 20.6285 20.0937 20.4348 20.0937C20.241 20.0937 20.1348 20.2687 20.241 20.3999C20.291 20.4562 20.3723 20.4999 20.4348 20.4999C20.4973 20.4999 20.5785 20.4562 20.6285 20.3999ZM20.3973 19.2999C20.4785 19.1687 20.3848 18.9812 20.2348 18.9499C20.1348 18.9312 19.9348 19.0937 19.9348 19.1874C19.9348 19.2812 20.1348 19.4437 20.2348 19.4249C20.2848 19.4124 20.3598 19.3562 20.3973 19.2999ZM14.6348 16.7499C14.0035 16.5249 13.6098 16.2312 13.716 16.0624C13.7348 16.0312 13.841 16.0437 13.9535 16.0937C14.0598 16.1374 14.416 16.1999 14.7348 16.2374C15.0535 16.2687 15.3285 16.3062 15.341 16.3249C15.3535 16.3374 15.3348 16.4687 15.2973 16.6124C15.2223 16.9187 15.1473 16.9374 14.6348 16.7499V16.7499ZM13.391 15.4374C13.1035 15.2687 13.1348 15.2249 13.4223 15.3874C13.7098 15.5562 13.7223 15.5624 13.6473 15.5624C13.616 15.5624 13.4973 15.5062 13.391 15.4374ZM12.5223 14.3687C12.4348 14.1937 12.3723 14.0374 12.3848 14.0249C12.3973 14.0124 12.4848 14.1562 12.5785 14.3437C12.6723 14.5312 12.7348 14.6874 12.716 14.6874C12.6973 14.6874 12.616 14.5437 12.5223 14.3687ZM11.8098 11.9937C11.8098 11.9437 11.891 11.8499 11.9848 11.7874L12.1535 11.6687L11.9973 11.8499C11.9098 11.9499 11.8348 12.0437 11.8285 12.0562C11.816 12.0687 11.8098 12.0437 11.8098 11.9937ZM9.57853 9.40615C9.57853 9.26865 9.59103 9.21865 9.60353 9.2999C9.61603 9.3749 9.61603 9.4874 9.60353 9.5499C9.58478 9.60615 9.57228 9.54365 9.57853 9.40615ZM9.99728 8.34365C10.116 8.2249 10.2223 8.1249 10.241 8.1249C10.2598 8.1249 10.1785 8.2249 10.0598 8.34365C9.94103 8.4624 9.83478 8.5624 9.81603 8.5624C9.79728 8.5624 9.87853 8.4624 9.99728 8.34365ZM11.5785 8.29365C11.5535 8.2499 11.4598 8.1624 11.3723 8.10615C11.291 8.0499 11.241 7.9999 11.266 7.9999C11.3535 7.9999 11.6098 8.19365 11.6473 8.2874C11.691 8.3999 11.6473 8.3999 11.5785 8.29365ZM10.7973 7.95615C10.8723 7.94365 10.9848 7.94365 11.0473 7.95615C11.1035 7.9749 11.041 7.9874 10.9035 7.98115C10.766 7.98115 10.716 7.96865 10.7973 7.95615ZM10.0285 7.0874C9.96603 6.5374 10.0285 5.7999 10.1598 5.40615C10.366 4.8124 11.166 4.2249 12.0535 4.0249C12.3035 3.96865 12.516 3.9374 12.5285 3.9499C12.5473 3.9624 12.566 4.0374 12.5723 4.11865C12.591 4.24365 12.5473 4.2749 12.1348 4.38115C11.5223 4.5374 11.1098 4.76865 10.7473 5.16865C10.3223 5.6374 10.166 6.0624 10.1535 6.8249C10.1473 7.1624 10.1285 7.4499 10.1098 7.4749C10.0848 7.49365 10.0535 7.31865 10.0285 7.0874ZM15.2285 4.65615C15.3035 4.55615 15.4535 4.3874 15.566 4.28115C15.7223 4.14365 15.7035 4.1749 15.5035 4.40615C15.1348 4.8249 15.0785 4.8749 15.2285 4.65615ZM11.0598 3.71865C11.0598 3.6249 11.366 3.2249 11.666 2.91865C12.2473 2.33115 13.0848 1.81865 14.0535 1.4749C14.3723 1.35615 14.5348 1.3249 14.5848 1.3749C14.691 1.48115 14.5598 1.5749 13.7723 1.95615C13.1223 2.26865 12.5848 2.6499 12.1223 3.1249C11.8973 3.35615 11.6598 3.5624 11.591 3.58115C11.5223 3.5999 11.3723 3.64365 11.266 3.6749C11.1535 3.7124 11.0598 3.73115 11.0598 3.71865V3.71865ZM22.7473 3.4374C22.7098 3.36865 22.7035 3.3124 22.7285 3.3124C22.7598 3.3124 22.816 3.36865 22.8598 3.4374C22.9035 3.50615 22.9098 3.5624 22.8723 3.5624C22.841 3.5624 22.7848 3.50615 22.7473 3.4374ZM13.716 2.7499C13.9535 2.5124 14.166 2.3124 14.1785 2.3124C14.1973 2.3124 14.016 2.5124 13.7785 2.7499C13.541 2.99365 13.3285 3.1874 13.316 3.1874C13.2973 3.1874 13.4785 2.99365 13.716 2.7499ZM14.2723 2.2624C14.3223 2.18115 14.6848 1.9124 14.6848 1.95615C14.6848 1.9749 14.5785 2.0624 14.4535 2.1624C14.3285 2.25615 14.2473 2.30615 14.2723 2.2624ZM20.5598 1.46865C20.4723 1.41865 20.4348 1.38115 20.466 1.38115C20.5035 1.38115 20.5973 1.41865 20.6848 1.46865C20.7723 1.51865 20.816 1.55615 20.7785 1.55615C20.7473 1.55615 20.6473 1.51865 20.5598 1.46865ZM15.6848 1.34365C15.6848 1.2999 16.191 1.0499 16.2223 1.0749C16.2348 1.09365 16.116 1.1624 15.966 1.2374C15.8098 1.3124 15.6848 1.3624 15.6848 1.34365ZM17.6098 0.768652C17.6848 0.756152 17.8098 0.756152 17.891 0.768652C17.966 0.781152 17.9035 0.793652 17.7473 0.793652C17.591 0.793652 17.5285 0.781152 17.6098 0.768652Z" fill="#F6F5F5"/>
</svg>
