<svg width="32" height="32" viewBox="0 0 32 32" fill="none" xmlns="http://www.w3.org/2000/svg">
<path d="M14.1209 13.7744C14.2134 13.8419 14.3259 13.8819 14.4484 13.8819C14.7484 13.8819 14.9934 13.6444 15.0059 13.3494L15.0184 13.3419L15.2059 10.0269C14.9809 10.0544 14.7559 10.0919 14.5309 10.1419C13.2984 10.4219 12.2309 11.0294 11.3959 11.8494L14.1134 13.7769L14.1209 13.7744V13.7744ZM13.7584 18.6319C13.7267 18.4915 13.6417 18.369 13.5214 18.2901C13.401 18.2113 13.2547 18.1823 13.1134 18.2094L13.1084 18.2019L9.84592 18.7544C10.3355 20.1098 11.2592 21.2656 12.4734 22.0419L13.7384 18.9869L13.7284 18.9744C13.7709 18.8694 13.7859 18.7519 13.7584 18.6319ZM12.6734 16.2794C12.7834 16.2494 12.8859 16.1844 12.9634 16.0894C13.1509 15.8544 13.1184 15.5169 12.8934 15.3219L12.8959 15.3094L10.4134 13.0894C9.65643 14.322 9.33101 15.7714 9.48842 17.2094L12.6709 16.2919L12.6734 16.2794V16.2794ZM15.0834 17.2544L15.9984 17.6944L16.9134 17.2569L17.1384 16.2694L16.5059 15.4794H15.4909L14.8559 16.2694L15.0834 17.2544ZM16.9834 13.3369C16.9884 13.4519 17.0284 13.5644 17.1059 13.6594C17.2934 13.8944 17.6309 13.9369 17.8709 13.7619L17.8809 13.7669L20.5809 11.8519C19.5609 10.8544 18.2309 10.2019 16.7934 10.0269L16.9809 13.3369H16.9834V13.3369ZM18.8784 18.1944C18.8359 18.1869 18.7934 18.1819 18.7509 18.1844C18.6784 18.1869 18.6059 18.2069 18.5384 18.2394C18.409 18.3018 18.3086 18.4118 18.2583 18.5464C18.208 18.681 18.2116 18.8298 18.2684 18.9619L18.2634 18.9669L19.5409 22.0519C20.7734 21.2669 21.6934 20.0944 22.1759 18.7419L18.8859 18.1844L18.8784 18.1944V18.1944ZM16.4884 19.8294C16.4388 19.7382 16.3648 19.6627 16.2748 19.611C16.1847 19.5594 16.0822 19.5337 15.9784 19.5369C15.7859 19.5444 15.6034 19.6519 15.5059 19.8319H15.5034L13.8984 22.7319C15.0476 23.1226 16.2829 23.1858 17.4659 22.9144C17.6859 22.8644 17.9009 22.8044 18.1084 22.7344L16.5009 19.8269H16.4884V19.8294Z" fill="#486BB3"/>
<path d="M31.136 19.1968L28.526 7.86432C28.4579 7.57037 28.3243 7.29561 28.1351 7.06055C27.9459 6.82548 27.7061 6.6362 27.4335 6.50682L16.8735 1.46182C16.5681 1.31656 16.2313 1.24955 15.8935 1.26682C15.6248 1.28003 15.3614 1.3463 15.1185 1.46182L4.55851 6.50682C4.28638 6.63684 4.04692 6.82633 3.85783 7.06129C3.66874 7.29625 3.53483 7.57068 3.46601 7.86432L0.863512 19.1993C0.803057 19.4605 0.796259 19.7312 0.84353 19.995C0.890801 20.2589 0.991155 20.5104 1.13851 20.7343C1.17351 20.7893 1.21351 20.8418 1.25351 20.8943L8.56351 29.9818C8.75368 30.2176 8.99439 30.4076 9.26787 30.5379C9.54135 30.6681 9.8406 30.7353 10.1435 30.7343L21.866 30.7318C22.481 30.7318 23.061 30.4543 23.446 29.9793L30.7535 20.8893C30.9406 20.6542 31.0721 20.3799 31.1384 20.0868C31.2046 19.7938 31.2038 19.4895 31.136 19.1968V19.1968ZM27.1185 19.0593C27.041 19.3968 26.6785 19.6018 26.3035 19.5218C26.301 19.5218 26.296 19.5218 26.2935 19.5193C26.2885 19.5193 26.286 19.5168 26.281 19.5143C26.2285 19.5018 26.1635 19.4918 26.1185 19.4793C25.9035 19.4218 25.746 19.3343 25.551 19.2593C25.1335 19.1093 24.786 18.9843 24.4485 18.9343C24.276 18.9218 24.1885 19.0018 24.0935 19.0643C24.0485 19.0543 23.906 19.0293 23.8235 19.0168C23.2185 20.9193 21.9285 22.5693 20.181 23.5993C20.211 23.6718 20.2635 23.8268 20.286 23.8543C20.246 23.9618 20.186 24.0618 20.2385 24.2268C20.361 24.5443 20.5585 24.8568 20.7985 25.2293C20.9135 25.4018 21.0335 25.5343 21.1385 25.7343C21.1635 25.7818 21.196 25.8543 21.221 25.9043C21.3835 26.2518 21.2635 26.6518 20.951 26.8018C20.636 26.9543 20.246 26.7943 20.076 26.4443C20.051 26.3943 20.0185 26.3293 19.9985 26.2818C19.9085 26.0768 19.8785 25.9018 19.816 25.7018C19.6735 25.2818 19.5535 24.9343 19.3835 24.6393C19.286 24.4968 19.1685 24.4793 19.061 24.4443C19.041 24.4093 18.966 24.2718 18.926 24.2018C18.576 24.3343 18.216 24.4443 17.841 24.5293C16.201 24.9018 14.5585 24.7518 13.0935 24.1868L12.951 24.4468C12.8435 24.4743 12.741 24.5043 12.6785 24.5793C12.4485 24.8543 12.356 25.2943 12.1885 25.7143C12.126 25.9118 12.096 26.0893 12.006 26.2943C11.986 26.3418 11.951 26.4068 11.9285 26.4543V26.4568L11.926 26.4593C11.7585 26.8068 11.3685 26.9668 11.0535 26.8168C10.741 26.6668 10.6235 26.2668 10.7835 25.9193C10.8085 25.8693 10.8385 25.7968 10.8635 25.7493C10.9685 25.5518 11.086 25.4168 11.2035 25.2443C11.4435 24.8693 11.6535 24.5343 11.776 24.2168C11.806 24.1118 11.761 23.9668 11.721 23.8593L11.836 23.5843C10.1535 22.5868 8.82601 20.9993 8.19101 19.0318L7.91601 19.0793C7.84101 19.0368 7.69351 18.9393 7.55351 18.9518C7.21601 19.0018 6.86851 19.1268 6.45101 19.2768C6.25601 19.3518 6.10101 19.4368 5.88351 19.4943C5.83851 19.5068 5.77351 19.5193 5.72101 19.5318C5.71601 19.5318 5.71351 19.5343 5.70851 19.5368C5.70601 19.5368 5.70101 19.5368 5.69851 19.5393C5.32351 19.6193 4.96101 19.4143 4.88351 19.0768C4.80601 18.7393 5.04601 18.3968 5.41851 18.3068C5.42101 18.3068 5.42601 18.3043 5.42851 18.3043C5.43101 18.3043 5.43101 18.3043 5.43351 18.3018C5.48601 18.2893 5.55351 18.2718 5.60351 18.2618C5.82351 18.2193 6.00351 18.2293 6.21101 18.2143C6.65351 18.1668 7.01851 18.1293 7.34351 18.0268C7.44601 17.9843 7.54601 17.8418 7.61601 17.7518L7.88101 17.6743C7.58351 15.6193 8.08601 13.6043 9.17101 11.9718L8.96851 11.7918C8.95601 11.7118 8.93851 11.5318 8.84101 11.4268C8.59351 11.1943 8.27851 10.9993 7.90101 10.7668C7.72101 10.6618 7.55601 10.5943 7.37601 10.4593C7.33851 10.4318 7.28601 10.3868 7.24601 10.3543C7.24351 10.3518 7.23851 10.3493 7.23601 10.3468C6.93351 10.1043 6.86351 9.68682 7.08101 9.41432C7.20351 9.26182 7.39101 9.18432 7.58351 9.19182C7.73351 9.19682 7.89101 9.25182 8.02351 9.35682C8.06601 9.39182 8.12601 9.43682 8.16351 9.46932C8.33351 9.61432 8.43601 9.75932 8.57851 9.91182C8.89101 10.2293 9.14851 10.4918 9.43101 10.6818C9.57851 10.7693 9.69351 10.7343 9.80601 10.7193C9.84351 10.7468 9.96351 10.8343 10.0335 10.8818C11.1085 9.73932 12.5235 8.89432 14.1635 8.52182C14.546 8.43432 14.926 8.37682 15.306 8.34682L15.321 8.07932C15.406 7.99682 15.4985 7.88182 15.526 7.75182C15.5535 7.41182 15.5085 7.04682 15.456 6.60432C15.426 6.39932 15.3785 6.22682 15.3685 6.00432C15.366 5.95932 15.3685 5.89432 15.371 5.84182C15.371 5.83682 15.3685 5.82932 15.3685 5.82432C15.3685 5.43682 15.651 5.12182 16.001 5.12182C16.351 5.12182 16.6335 5.43682 16.6335 5.82432C16.6335 5.87932 16.636 5.95432 16.636 6.00432C16.6285 6.22682 16.5785 6.39932 16.5485 6.60432C16.496 7.04432 16.4485 7.41182 16.476 7.75182C16.501 7.92182 16.601 7.98932 16.6835 8.06682C16.686 8.11182 16.6935 8.26432 16.6985 8.34932C18.7085 8.52682 20.5735 9.44682 21.946 10.8843L22.186 10.7118C22.2685 10.7168 22.446 10.7418 22.5685 10.6693C22.851 10.4793 23.1085 10.2143 23.421 9.89932C23.5635 9.74682 23.6685 9.60432 23.8385 9.45682C23.876 9.42432 23.936 9.37932 23.9785 9.34432C24.281 9.10182 24.7035 9.12932 24.921 9.40182C25.1385 9.67432 25.0685 10.0918 24.766 10.3343C24.7235 10.3693 24.6685 10.4168 24.626 10.4468C24.446 10.5793 24.281 10.6468 24.101 10.7543C23.7235 10.9868 23.4085 11.1818 23.161 11.4143C23.0435 11.5393 23.0535 11.6593 23.041 11.7718C23.006 11.8043 22.8835 11.9143 22.816 11.9718C23.3753 12.8041 23.777 13.732 24.001 14.7093C24.231 15.7068 24.266 16.7018 24.1335 17.6593L24.3885 17.7343C24.4335 17.7993 24.5285 17.9568 24.661 18.0093C24.986 18.1118 25.351 18.1493 25.7935 18.1968C26.001 18.2143 26.181 18.2043 26.401 18.2443C26.4535 18.2543 26.531 18.2743 26.5835 18.2868C26.9585 18.3793 27.196 18.7218 27.1185 19.0593V19.0593Z" fill="#486BB3"/>
<path d="M21.5685 13.0894L19.0985 15.2994L19.101 15.3069C19.016 15.3819 18.951 15.4819 18.9235 15.6019C18.856 15.8944 19.0335 16.1844 19.3185 16.2644L19.321 16.2769L22.5185 17.1969C22.586 16.5069 22.546 15.7919 22.381 15.0769C22.216 14.3544 21.9385 13.6869 21.5685 13.0894V13.0894Z" fill="#486BB3"/>
</svg>
