<svg width="32" height="32" viewBox="0 0 32 32" fill="none" xmlns="http://www.w3.org/2000/svg">
<path d="M0.50025 22.6144H1.52725V18.5587L3.11725 22.0944C3.30475 22.5224 3.5615 22.6737 4.06525 22.6737C4.569 22.6737 4.816 22.5224 5.0035 22.0944L6.5935 18.5587V22.6144H7.6205V18.5654C7.6205 18.1704 7.4625 17.9792 7.1365 17.8807C6.35625 17.6372 5.83275 17.8479 5.59575 18.3747L4.0355 21.8642L2.52475 18.3744C2.2975 17.8479 1.76425 17.6372 0.984 17.8804C0.658 17.9792 0.5 18.1702 0.5 18.5652V22.6144H0.50025ZM8.47475 19.3129H9.5015V21.5474C9.492 21.6687 9.5405 21.9537 10.103 21.9627C10.39 21.9672 12.3185 21.9627 12.3365 21.9627V19.3019H13.3658C13.3705 19.3019 13.3647 22.9304 13.3647 22.9454C13.3702 23.8404 12.2545 24.0347 11.74 24.0497H8.497V23.3587C8.5025 23.3587 11.7378 23.3594 11.7458 23.3584C12.407 23.2887 12.3287 22.9602 12.3285 22.8497V22.5802H10.1458C9.13025 22.5709 8.48325 22.1277 8.475 21.6177C8.4745 21.5709 8.49725 19.3354 8.47475 19.3129V19.3129ZM14.1575 22.6144H17.1105C17.4563 22.6144 17.7923 22.5422 18.0588 22.4172C18.503 22.2132 18.7202 21.9367 18.7202 21.5742V20.8237C18.7202 20.5274 18.4735 20.2507 17.9895 20.0667C17.7328 19.9677 17.4165 19.9154 17.1103 19.9154H15.8658C15.451 19.9154 15.2535 19.7904 15.2043 19.5139C15.1945 19.4809 15.1945 19.4547 15.1945 19.4217V18.9542C15.1945 18.9279 15.1945 18.9014 15.2043 18.8687C15.2535 18.6579 15.3622 18.5987 15.7277 18.5657L15.8265 18.5592H18.7598V17.8747H15.876C15.4613 17.8747 15.244 17.9009 15.0465 17.9602C14.4343 18.1512 14.1672 18.4539 14.1672 18.9807V19.5797C14.1672 20.0407 14.691 20.4357 15.5697 20.5279C15.6687 20.5342 15.7673 20.5412 15.866 20.5412H16.9328C16.9723 20.5412 17.0118 20.5412 17.0415 20.5474C17.3675 20.5737 17.5055 20.6332 17.6045 20.7514C17.6299 20.7748 17.65 20.8034 17.6636 20.8351C17.6771 20.8669 17.6839 20.9011 17.6833 20.9357V21.5349C17.6833 21.6072 17.634 21.6994 17.5352 21.7784C17.4465 21.8574 17.2982 21.9102 17.1007 21.9234L16.992 21.9299H14.1575V22.6144ZM25.1278 21.4229C25.1278 22.1272 25.6513 22.5222 26.7078 22.6014C26.8065 22.6079 26.9052 22.6144 27.004 22.6144H29.6805V21.9299H26.9845C26.382 21.9299 26.155 21.7784 26.155 21.4162V17.8742H25.128V21.4229H25.1278ZM19.3757 21.4584V19.0172C19.3757 18.3972 19.8113 18.0209 20.6723 17.9022C20.764 17.889 20.8566 17.8824 20.9492 17.8824H22.899C22.998 17.8824 23.087 17.8889 23.1857 17.9022C24.0467 18.0209 24.4825 18.3969 24.4825 19.0172V21.4584C24.4825 21.9619 24.2975 22.2309 23.8713 22.4064L24.8832 23.3197H23.6905L22.872 22.5807L22.048 22.6329H20.9492C20.7451 22.6316 20.5421 22.6028 20.3458 22.5472C19.6925 22.3692 19.3757 22.0259 19.3757 21.4584V21.4584ZM20.4845 21.3992C20.4845 21.4322 20.4942 21.4654 20.5042 21.5049C20.5635 21.7887 20.831 21.9469 21.2365 21.9469H22.1695L21.3125 21.1732H22.5053L23.2525 21.8482C23.3905 21.7744 23.481 21.6624 23.5128 21.5182C23.5225 21.4852 23.5225 21.4522 23.5225 21.4192V19.0772C23.5225 19.0509 23.5225 19.0177 23.5128 18.9847C23.4533 18.7207 23.186 18.5692 22.7903 18.5692H21.2362C20.7812 18.5692 20.4842 18.7672 20.4842 19.0772V21.3992H20.4845ZM30.584 16.7379C29.9527 16.7207 29.4705 16.7794 29.058 16.9532C28.9408 17.0027 28.754 17.0039 28.735 17.1507C28.7993 17.2184 28.8093 17.3192 28.8605 17.4022C28.959 17.5614 29.1253 17.7749 29.2735 17.8867C29.4353 18.0089 29.6023 18.1399 29.7763 18.2459C30.085 18.4344 30.43 18.5419 30.7278 18.7304C30.903 18.8419 31.077 18.9819 31.2482 19.1077C31.333 19.1694 31.3895 19.2662 31.4998 19.3049V19.2872C31.442 19.2137 31.427 19.1127 31.374 19.0357L31.1405 18.8022C30.9122 18.4992 30.6228 18.2334 30.3145 18.0124C30.069 17.8362 29.5195 17.5979 29.417 17.3122L29.399 17.2944C29.573 17.2747 29.777 17.2117 29.9375 17.1687C30.2075 17.0962 30.4488 17.1149 30.7275 17.0429L31.1045 16.9349V16.8634C30.9637 16.7189 30.863 16.5274 30.7095 16.3967C30.3077 16.0544 29.8687 15.7124 29.417 15.4269C29.1665 15.2689 28.8567 15.1662 28.591 15.0322C28.502 14.9869 28.345 14.9637 28.2857 14.8884C28.146 14.7107 28.0702 14.4854 27.9625 14.2782C27.7324 13.8304 27.5168 13.3754 27.3162 12.9137C27.1802 12.6024 27.0912 12.2954 26.9215 12.0162C26.1062 10.6759 25.2287 9.8669 23.8695 9.0719C23.5802 8.90265 23.232 8.83615 22.8643 8.7489L22.2717 8.7129C22.1515 8.66265 22.026 8.51515 21.9128 8.44365C21.4623 8.15915 20.3072 7.5404 19.9737 8.35415C19.7632 8.86765 20.2887 9.36865 20.4765 9.6289C20.6082 9.8114 20.7773 10.0159 20.8715 10.2212C20.9335 10.3562 20.944 10.4914 20.9972 10.6342C21.1275 10.9857 21.2412 11.3684 21.41 11.6932C21.4952 11.8577 21.5895 12.0309 21.6973 12.1779C21.7633 12.2679 21.8768 12.3079 21.8945 12.4472C21.7838 12.6022 21.7773 12.8432 21.715 13.0394C21.4345 13.9242 21.5402 15.0239 21.9485 15.6787C22.0737 15.8799 22.3688 16.3109 22.7743 16.1454C23.129 16.0009 23.05 15.5532 23.1515 15.1579C23.1745 15.0687 23.1602 15.0027 23.2052 14.9427V14.9607L23.5285 15.6069C23.7677 15.9922 24.192 16.3944 24.5518 16.6662C24.7383 16.8069 24.8852 17.0507 25.1262 17.1329V17.1147H25.1085C25.0615 17.0419 24.9887 17.0119 24.9287 16.9532C24.7882 16.8154 24.632 16.6444 24.516 16.4864C24.1888 16.0424 23.8997 15.5562 23.6362 15.0502C23.5105 14.8087 23.4012 14.5422 23.2952 14.2962C23.2542 14.2014 23.2548 14.0579 23.1698 14.0092C23.0533 14.1892 22.8825 14.3349 22.7925 14.5477C22.649 14.8877 22.6305 15.3024 22.5772 15.7324L22.5413 15.7502C22.291 15.6899 22.2033 15.4324 22.1103 15.2117C21.8753 14.6534 21.8315 13.7542 22.0385 13.1114C22.092 12.9449 22.3338 12.4212 22.2358 12.2674C22.189 12.1142 22.0347 12.0257 21.9487 11.9082C21.8359 11.7509 21.7397 11.5824 21.6615 11.4054C21.469 10.9702 21.3793 10.4814 21.177 10.0412C21.08 9.83065 20.9165 9.6179 20.782 9.4309C20.6332 9.2234 20.4665 9.0709 20.351 8.8204C20.31 8.7314 20.2543 8.58865 20.315 8.49715C20.3343 8.4354 20.362 8.40965 20.423 8.3894C20.527 8.30915 20.817 8.41615 20.9255 8.46115C21.2135 8.5809 21.4538 8.69465 21.6978 8.85615C21.8148 8.9339 21.933 9.0839 22.0748 9.1254H22.2362C22.489 9.1834 22.7722 9.14315 23.0082 9.2149C23.4257 9.3419 23.7997 9.53915 24.1392 9.75365C25.174 10.4072 26.0197 11.3372 26.5987 12.4467C26.6917 12.6254 26.7322 12.7957 26.814 12.9852C26.9795 13.3672 27.188 13.7604 27.3525 14.1342C27.5168 14.5069 27.677 14.8832 27.9093 15.1934C28.0313 15.3564 28.5027 15.4439 28.717 15.5344C28.8672 15.5979 29.1133 15.6642 29.2555 15.7497C29.5273 15.9137 29.7907 16.1089 30.0455 16.2884C30.1727 16.3789 30.5645 16.5757 30.584 16.7379V16.7379ZM22.5592 9.89815C22.4504 9.89637 22.3418 9.90847 22.236 9.93415V9.9519H22.254C22.3167 10.0812 22.4275 10.1642 22.5053 10.2752L22.685 10.6522L22.7027 10.6344C22.814 10.5562 22.8648 10.4309 22.8643 10.2394C22.8195 10.1924 22.813 10.1337 22.7745 10.0779C22.7235 10.0029 22.624 9.9609 22.5592 9.89815V9.89815Z" fill="#00618A"/>
</svg>
