<svg width="32" height="32" viewBox="0 0 32 32" fill="none" xmlns="http://www.w3.org/2000/svg">
<path d="M6.125 12.625C5.75 12.625 5.5 12.925 5.5 13.3V16.825L1.525 12.825C1.325 12.625 0.975 12.575 0.725 12.675C0.475 12.775 0.25 13.025 0.25 13.3V18.475C0.25 18.85 0.625 19.15 1 19.15C1.375 19.15 1.75 18.85 1.75 18.475V14.95L5.775 18.95C5.9 19.075 6.075 19.15 6.25 19.15C6.325 19.15 6.35 19.125 6.425 19.1C6.675 19 6.75 18.75 6.75 18.475V13.325C6.75 12.95 6.5 12.625 6.125 12.625ZM11.05 15.575C10.7 15.575 10.375 15.925 10.375 16.275C10.375 16.625 10.7 16.975 11.05 16.975L12.7 17.075L12.325 18H10.2L9.15 16.025L10.225 14H12.5L13.025 15H14.4L13.5 13.025L13.3 12.75H9.4L9.225 13.05L7.75 15.625L7.575 15.95L7.75 16.275L9.2 18.85L9.4 19.25H13.175L13.35 18.825L14.425 16.575L14.9 15.5H13.8L11.05 15.575V15.575ZM16.25 12.625C15.9 12.625 15.5 12.95 15.5 13.3V15H17V13.325C17 12.95 16.6 12.625 16.25 12.625ZM23.85 12.7C23.6 12.6 23.25 12.65 23.075 12.85L19 16.85V13.325C19 12.95 18.75 12.65 18.375 12.65C18 12.65 17.75 12.95 17.75 13.325V18.5C17.75 18.775 17.925 19.025 18.175 19.125C18.25 19.15 18.35 19.175 18.425 19.175C18.6 19.175 18.825 19.1 18.95 18.975L23 14.975V18.5C23 18.875 23.25 19.175 23.625 19.175C24 19.175 24.25 18.875 24.25 18.5V13.325C24.25 13.05 24.1 12.8 23.85 12.7ZM29.3 15.9L31.4 13.8C31.675 13.525 31.675 13.1 31.4 12.85C31.125 12.575 30.7 12.575 30.45 12.85L28.35 14.95L26.25 12.85C25.975 12.575 25.55 12.575 25.3 12.85C25.025 13.125 25.025 13.55 25.3 13.8L27.4 15.9L25.3 18C25.025 18.275 25.025 18.7 25.3 18.95C25.425 19.075 25.6 19.15 25.775 19.15C25.95 19.15 26.125 19.075 26.25 18.95L28.35 16.85L30.45 18.95C30.575 19.075 30.75 19.15 30.925 19.15C31.1 19.15 31.275 19.075 31.4 18.95C31.675 18.675 31.675 18.25 31.4 18L29.3 15.9V15.9ZM15.5 18.475C15.5 18.825 15.875 19.15 16.25 19.15C16.6 19.15 17 18.825 17 18.475V15.5H15.5V18.475Z" fill="#009900"/>
</svg>
