<svg width="32" height="32" viewBox="0 0 32 32" fill="none" xmlns="http://www.w3.org/2000/svg">
<path d="M21.4972 19.0188C21.6552 17.7033 21.6079 17.5103 22.5877 17.7233L22.8364 17.7453C23.5899 17.7796 24.5757 17.6241 25.1544 17.3551C26.4009 16.7768 27.1399 15.8108 25.9109 16.0646C23.1072 16.6428 22.9144 15.6938 22.9144 15.6938C25.8752 11.3011 27.1129 5.72506 26.0447 4.36006C23.1312 0.637065 18.0877 2.39756 18.0032 2.44331L17.9762 2.44856C17.4222 2.33331 16.8024 2.26481 16.1059 2.25356C14.8372 2.23281 13.8744 2.58631 13.1442 3.14006C13.1442 3.14006 4.14693 -0.566685 4.56543 7.80156C4.65443 9.58181 7.11718 21.2721 10.0544 17.7411C11.1279 16.4501 12.1654 15.3583 12.1654 15.3583C12.6807 15.7006 13.2974 15.8751 13.9444 15.8123L13.9944 15.7698C13.9789 15.9301 13.9857 16.0868 14.0147 16.2723C13.2579 17.1181 13.4804 17.2666 11.9674 17.5778C10.4369 17.8933 11.3362 18.4548 11.9229 18.6016C12.6349 18.7798 14.2812 19.0321 15.3939 17.4743L15.3497 17.6521C15.6467 17.8896 15.6264 19.3588 15.6684 20.4086C15.7104 21.4583 15.7809 22.4378 15.9949 23.0158C16.2089 23.5933 16.4614 25.0811 18.4497 24.6551C20.1112 24.2986 21.3814 23.7861 21.4972 19.0188" fill="black"/>
<path d="M17.8018 25.6924C16.9223 25.6924 16.3498 25.3524 16.0018 25.0239C15.4768 24.5287 15.2685 23.8904 15.1443 23.5092L15.0905 23.3499C14.84 22.6737 14.7553 21.7002 14.705 20.4467C14.6976 20.2507 14.6914 20.0547 14.6863 19.8587C14.682 19.7084 14.6768 19.5199 14.6693 19.3222C14.3524 19.4733 14.0161 19.5796 13.67 19.6382C13.05 19.7442 12.3835 19.7097 11.6885 19.5359C11.1983 19.4134 10.6888 19.1594 10.3985 18.7669C9.55228 19.5082 8.74503 19.4074 8.30528 19.2609C7.52953 19.0022 6.83528 18.2754 6.18253 17.0384C5.71778 16.1577 5.26803 15.0097 4.84578 13.6269C4.11078 11.2187 3.64378 8.68215 3.60228 7.84965C3.47178 5.2429 4.17328 3.3789 5.68728 2.30965C8.07603 0.622405 11.6948 1.6144 13.014 2.0649C13.9003 1.53065 14.943 1.2704 16.1215 1.2894C16.7545 1.29965 17.357 1.3554 17.9168 1.4549C18.5005 1.2714 19.654 1.0079 20.9743 1.02415C23.4068 1.05315 25.4225 2.00115 26.8033 3.76565C27.7885 5.02465 27.3015 7.66815 26.9233 9.13215C26.3915 11.1909 25.4593 13.3812 24.3143 15.2877C24.6253 15.2899 25.0755 15.2524 25.716 15.1204C26.9795 14.8594 27.3488 15.5369 27.449 15.8402C27.8508 17.0569 26.1045 17.9762 25.5598 18.2289C24.8618 18.5532 23.724 18.7504 22.792 18.7077L22.7513 18.7049L22.5065 18.6834L22.4823 18.8874L22.459 19.0872C22.3965 21.5032 22.0513 23.0332 21.341 24.0444C20.5968 25.1042 19.562 25.4014 18.6508 25.5967C18.372 25.6585 18.0874 25.6906 17.8018 25.6924V25.6924ZM15.9513 16.8989C16.519 17.3532 16.5688 18.2079 16.613 19.8054C16.6185 20.0047 16.6238 20.1934 16.6308 20.3697C16.6523 20.9032 16.7025 22.1527 16.898 22.6807C16.9258 22.7552 16.9505 22.8312 16.9765 22.9112C17.1945 23.5792 17.304 23.9139 18.2468 23.7119C19.0385 23.5424 19.4453 23.3902 19.7638 22.9367C20.2268 22.2772 20.4858 20.9514 20.5333 18.9949L21.4963 19.0184L20.5398 18.9037L20.5678 18.6649C20.6595 17.8779 20.7255 17.3089 21.2518 16.9329C21.6738 16.6312 22.155 16.6604 22.5383 16.7294C22.1173 16.4117 22.0008 16.0382 21.9698 15.8852L21.8895 15.4897L22.115 15.1547C23.415 13.2257 24.4873 10.8549 25.0568 8.65016C25.6418 6.38465 25.4633 5.1814 25.285 4.9539C22.9235 1.93615 18.8278 3.1819 18.4003 3.32365L18.3278 3.36265L17.9653 3.4304L17.7795 3.3919C17.2678 3.28565 16.6993 3.2269 16.0895 3.2169C15.1318 3.2009 14.3593 3.42715 13.7258 3.9079L13.2863 4.24115L12.776 4.0309C11.6865 3.5854 8.48553 2.68965 6.79653 3.8859C5.85903 4.5499 5.43203 5.85115 5.52703 7.7534C5.55828 8.3814 5.98528 10.7587 6.68878 13.0647C7.66153 16.2512 8.54553 17.3094 8.91453 17.4327C8.97878 17.4544 9.14603 17.3244 9.31228 17.1249C10.3938 15.8242 11.4223 14.7399 11.4655 14.6942L12.0233 14.1074L12.6975 14.5554C12.9693 14.7362 13.269 14.8384 13.577 14.8577L15.1853 13.4862L14.9523 15.8637C14.947 15.9172 14.9445 15.9897 14.9655 16.1247L15.0355 16.5754L14.7323 16.9149L14.6973 16.9542L15.5808 17.3622L15.9513 16.8989V16.8989Z" fill="black"/>
<path d="M25.9114 16.0644C23.1074 16.6427 22.9147 15.6934 22.9147 15.6934C25.8752 11.3007 27.1127 5.72444 26.0447 4.35969C23.1309 0.636692 18.0874 2.39744 18.0032 2.44319L17.9759 2.44794C17.4219 2.33319 16.8022 2.26469 16.1054 2.25344C14.8367 2.23269 13.8742 2.58594 13.1439 3.13969C13.1439 3.13969 4.14644 -0.566808 4.56494 7.80144C4.65394 9.58169 7.11669 21.2719 10.0539 17.7409C11.1274 16.4499 12.1647 15.3582 12.1647 15.3582C12.6799 15.7004 13.2967 15.8749 13.9434 15.8122L13.9937 15.7697C13.9782 15.9299 13.9852 16.0867 14.0137 16.2722C13.2572 17.1179 13.4792 17.2664 11.9667 17.5777C10.4359 17.8932 11.3352 18.4547 11.9224 18.6014C12.6342 18.7797 14.2807 19.0319 15.3932 17.4742L15.3487 17.6519C15.6452 17.8894 15.8534 19.1967 15.8184 20.3817C15.7834 21.5667 15.7602 22.3802 15.9939 23.0157C16.2277 23.6509 16.4604 25.0809 18.4489 24.6549C20.1104 24.2987 20.9714 23.3759 21.0914 21.8369C21.1764 20.7427 21.3687 20.9044 21.3809 19.9259L21.5354 19.4627C21.7132 17.9792 21.5637 17.5007 22.5874 17.7234L22.8362 17.7452C23.5897 17.7797 24.5757 17.6239 25.1544 17.3549C26.4009 16.7764 27.1402 15.8107 25.9114 16.0644V16.0644Z" fill="#336791"/>
<path d="M17.9027 25.0984C16.245 25.0987 15.72 23.7859 15.505 23.2492C15.1907 22.4627 15.1227 19.4097 15.1927 16.9059C15.1974 16.8223 15.2345 16.7439 15.2961 16.6872C15.3577 16.6305 15.439 16.6001 15.5227 16.6025C15.6064 16.6048 15.6859 16.6397 15.7442 16.6998C15.8026 16.7598 15.8352 16.8402 15.8352 16.9239C15.7545 19.8117 15.8692 22.4284 16.1017 23.0104C16.465 23.9184 17.0157 24.7127 18.5735 24.3792C20.0522 24.0619 20.606 23.5012 20.8525 22.0717C21.042 20.9744 21.416 17.8532 21.462 17.2372C21.4683 17.1522 21.5081 17.0732 21.5727 17.0176C21.6372 16.962 21.7212 16.9344 21.8062 16.9407C21.8912 16.947 21.9702 16.9868 22.0258 17.0514C22.0814 17.116 22.109 17.2 22.1027 17.2849C22.0547 17.9259 21.6822 21.0414 21.4855 22.1809C21.1942 23.8697 20.4415 24.6357 18.708 25.0074C18.4435 25.0659 18.1736 25.0964 17.9027 25.0984V25.0984ZM8.91496 18.6872C8.77009 18.687 8.62621 18.6633 8.48896 18.6169C7.41221 18.2577 6.38671 16.5042 5.44071 13.4047C4.72071 11.0452 4.26446 8.58269 4.22446 7.78244C4.10571 5.40994 4.71696 3.73119 6.04071 2.79319C8.65971 0.937437 13.0657 2.70469 13.252 2.78069C13.3301 2.8134 13.3922 2.87566 13.4247 2.95392C13.4571 3.03218 13.4574 3.1201 13.4253 3.19854C13.3933 3.27697 13.3315 3.33957 13.2536 3.3727C13.1756 3.40583 13.0877 3.40682 13.009 3.37544V3.37569C12.9665 3.35819 8.74146 1.66569 6.41096 3.31844C5.27896 4.12119 4.75921 5.61219 4.86596 7.75069C4.89971 8.42469 5.32596 10.8284 6.05521 13.2174C6.89971 15.9842 7.86096 17.7304 8.69221 18.0074C8.82246 18.0512 9.21946 18.1834 9.78746 17.5009C10.8555 16.2159 11.8367 15.1904 11.8465 15.1802C11.9062 15.1223 11.9861 15.0898 12.0693 15.0896C12.1525 15.0893 12.2325 15.1214 12.2926 15.1789C12.3527 15.2365 12.3881 15.3151 12.3914 15.3982C12.3948 15.4813 12.3657 15.5625 12.3105 15.6247C12.3007 15.6347 11.3345 16.6449 10.2815 17.9117C9.78271 18.5112 9.30446 18.6872 8.91496 18.6872V18.6872ZM22.895 15.9799C22.8366 15.98 22.7794 15.9642 22.7293 15.9342C22.6793 15.9042 22.6384 15.8611 22.611 15.8096C22.5837 15.7581 22.5708 15.7001 22.5739 15.6418C22.5771 15.5835 22.596 15.5272 22.6287 15.4789C25.6215 11.0379 26.672 5.67219 25.7722 4.52269C24.6397 3.07569 23.0405 2.31969 21.0192 2.27644C19.5225 2.24394 18.3327 2.62619 18.1385 2.69294L18.0897 2.71269C17.8942 2.77419 17.7442 2.66694 17.6877 2.54169C17.6555 2.46993 17.6507 2.38887 17.674 2.31378C17.6974 2.23868 17.7475 2.17473 17.8147 2.13394L17.9012 2.09844L17.897 2.09969L17.9015 2.09819C18.2317 1.97744 19.4395 1.61494 20.9357 1.63219C23.1725 1.65569 25.02 2.51844 26.2785 4.12644C26.874 4.88744 26.8752 6.64069 26.2822 8.93644C25.6777 11.2769 24.5402 13.7927 23.1617 15.8382C23.1323 15.8819 23.0926 15.9177 23.0461 15.9425C22.9996 15.9672 22.9476 15.9801 22.895 15.9799V15.9799ZM23.0477 18.0357C22.5367 18.0357 22.0787 17.9639 21.8045 17.7994C21.5225 17.6307 21.4687 17.4009 21.4617 17.2792C21.3847 15.9282 22.1302 15.6929 22.5105 15.5857C22.4575 15.5057 22.382 15.4114 22.3042 15.3142C22.0825 15.0372 21.779 14.6577 21.545 14.0902C21.5085 14.0017 21.3935 13.7954 21.2605 13.5569C20.5397 12.2647 19.0402 9.57544 20.0035 8.19819C20.4495 7.56094 21.337 7.31019 22.645 7.45019C22.2602 6.27794 20.4277 2.61069 16.0802 2.53944C14.7725 2.51744 13.7 2.91969 12.8942 3.73319C11.09 5.55544 11.1555 8.85244 11.1562 8.88519C11.1573 8.92736 11.1501 8.96933 11.135 9.00871C11.1198 9.0481 11.0971 9.08411 11.0681 9.11471C11.039 9.14531 11.0042 9.16988 10.9657 9.18704C10.9272 9.20419 10.8856 9.21359 10.8435 9.21469C10.8013 9.21579 10.7593 9.20857 10.7199 9.19345C10.6806 9.17833 10.6445 9.1556 10.6139 9.12655C10.5833 9.09751 10.5588 9.06273 10.5416 9.02419C10.5245 8.98565 10.5151 8.94411 10.514 8.90194C10.51 8.75569 10.4425 5.29594 12.4377 3.28094C13.3715 2.33794 14.6005 1.87244 16.0907 1.89669C18.8727 1.94244 20.663 3.35644 21.6752 4.53494C22.7782 5.81894 23.3192 7.23544 23.3637 7.70794C23.397 8.05944 23.1447 8.12994 23.0937 8.14019L22.978 8.14294C21.6942 7.93744 20.8707 8.07994 20.5302 8.56669C19.7975 9.61369 21.216 12.1574 21.8217 13.2439C21.9765 13.5209 22.088 13.7212 22.139 13.8449C22.338 14.3274 22.5975 14.6517 22.806 14.9122C22.9892 15.1414 23.1482 15.3399 23.2052 15.5734C23.2315 15.6197 23.606 16.1732 25.8272 15.7147C26.384 15.5999 26.7177 15.6982 26.8197 16.0067C27.0205 16.6139 25.8942 17.3219 25.2707 17.6117C24.7112 17.8714 23.8195 18.0357 23.0477 18.0357V18.0357ZM22.1025 17.2262C22.1727 17.2974 22.5252 17.4199 23.2555 17.3887C23.9045 17.3607 24.5892 17.2194 25.0002 17.0289C25.5257 16.7849 25.8762 16.5122 26.058 16.3259L25.957 16.3444C24.5367 16.6377 23.5322 16.5987 22.9715 16.2282C22.9337 16.2033 22.8974 16.1764 22.8627 16.1474C22.802 16.1714 22.7457 16.1872 22.7057 16.1984C22.3875 16.2877 22.0585 16.3799 22.1025 17.2262V17.2262ZM12.9282 19.0209C12.5755 19.0209 12.2042 18.9732 11.825 18.8779C11.4322 18.7797 10.7697 18.4839 10.78 17.9982C10.7912 17.4529 11.584 17.2894 11.8827 17.2279C12.9607 17.0059 13.031 16.9169 13.368 16.4892C13.4662 16.3644 13.5885 16.2092 13.755 16.0229C14.0025 15.7462 14.273 15.6057 14.559 15.6057C14.758 15.6057 14.9215 15.6734 15.0292 15.7179C15.3732 15.8604 15.6602 16.2049 15.7782 16.6174C15.8847 16.9894 15.834 17.3474 15.6352 17.6254C14.9832 18.5387 14.0472 19.0209 12.9282 19.0209V19.0209ZM11.474 18.0259C11.571 18.1007 11.765 18.2007 11.9807 18.2549C12.3092 18.3369 12.6277 18.3787 12.9282 18.3787C13.8437 18.3787 14.5785 17.9994 15.1125 17.2522C15.2237 17.0962 15.1905 16.8984 15.1607 16.7942C15.0982 16.5762 14.9432 16.3779 14.7835 16.3114C14.6967 16.2754 14.625 16.2479 14.559 16.2479C14.5235 16.2479 14.4157 16.2479 14.234 16.4512C14.0805 16.6227 13.9702 16.7627 13.8725 16.8864C13.453 17.4192 13.2607 17.5999 12.0122 17.8572C11.7077 17.9202 11.5515 17.9837 11.474 18.0259ZM13.9445 16.5439C13.8678 16.5438 13.7936 16.5163 13.7355 16.4663C13.6773 16.4164 13.6389 16.3472 13.6272 16.2714C13.619 16.2181 13.6137 16.1644 13.6112 16.1104C12.7927 16.0949 12.0032 15.7439 11.404 15.1184C10.6462 14.3277 10.3012 13.2322 10.4577 12.1129C10.6277 10.8974 10.5642 9.82444 10.53 9.24794C10.5214 9.12936 10.5161 9.01056 10.5142 8.89169C10.5147 8.79019 10.5167 8.52044 11.418 8.06369C11.7385 7.90119 12.3812 7.61769 13.0832 7.54494C14.2467 7.42494 15.0135 7.94294 15.243 9.00394C15.8625 11.8689 15.292 13.1362 14.8755 14.0614C14.7977 14.2334 14.7245 14.3964 14.666 14.5539L14.6142 14.6932C14.3942 15.2832 14.204 15.7929 14.2625 16.1739C14.2753 16.2582 14.2542 16.344 14.2039 16.4128C14.1535 16.4815 14.0779 16.5274 13.9937 16.5404L13.9445 16.5439V16.5439ZM11.1587 8.98044L11.1715 9.20994C11.207 9.80869 11.273 10.9232 11.094 12.2022C10.965 13.1252 11.247 14.0264 11.8677 14.6742C12.3582 15.1862 13.0042 15.4687 13.668 15.4687H13.6817C13.7562 15.1554 13.8795 14.8249 14.0122 14.4687L14.0637 14.3304C14.13 14.1524 14.2075 13.9802 14.2895 13.7979C14.6905 12.9069 15.1895 11.7979 14.6147 9.13969C14.5007 8.61344 14.2247 8.30869 13.771 8.20819C12.839 8.00219 11.4502 8.70319 11.1587 8.98044V8.98044ZM13.0977 8.84419C13.0817 8.95769 13.306 9.26094 13.598 9.30144C13.8897 9.34219 14.1395 9.10519 14.1552 8.99169C14.171 8.87794 13.947 8.75294 13.6547 8.71219C13.363 8.67144 13.1132 8.73044 13.0977 8.84419V8.84419ZM13.6652 9.41344L13.5832 9.40769C13.402 9.38244 13.2187 9.26819 13.0935 9.10194C13.0495 9.04369 12.9775 8.93019 12.9917 8.82919C13.0122 8.68094 13.1927 8.59244 13.475 8.59244C13.5382 8.59244 13.6037 8.59719 13.67 8.60619C13.824 8.62769 13.9672 8.67219 14.073 8.73119C14.2562 8.83369 14.2697 8.94769 14.2615 9.00694C14.2387 9.17019 13.9782 9.41344 13.6652 9.41344V9.41344ZM13.2042 8.86319C13.2135 8.93319 13.3867 9.16444 13.6127 9.19569L13.665 9.19944C13.8735 9.19944 14.0295 9.03519 14.0477 8.98144C14.0285 8.94494 13.8945 8.85369 13.64 8.81869C13.5852 8.81082 13.53 8.80681 13.4747 8.80669C13.3117 8.80644 13.2245 8.84319 13.2042 8.86319V8.86319ZM21.9845 8.61244C22.0002 8.72619 21.7765 9.02944 21.4842 9.06994C21.1922 9.11044 20.9425 8.87369 20.9265 8.75994C20.911 8.64644 21.135 8.52119 21.427 8.48069C21.719 8.43969 21.9685 8.49919 21.9845 8.61244ZM21.417 9.12794C21.1357 9.12794 20.8935 8.90919 20.8735 8.76744C20.8505 8.59719 21.1307 8.46769 21.4197 8.42769C21.4832 8.41869 21.5462 8.41419 21.607 8.41419C21.8562 8.41419 22.0212 8.48744 22.0377 8.60519C22.0485 8.68169 21.99 8.79944 21.889 8.90544C21.8225 8.97544 21.6825 9.09669 21.492 9.12294L21.417 9.12794ZM21.6067 8.52119C21.551 8.52119 21.493 8.52544 21.4342 8.53344C21.1437 8.57369 20.971 8.69044 20.9792 8.75294C20.989 8.82144 21.1742 9.02094 21.4167 9.02094L21.4765 9.01669C21.635 8.99444 21.754 8.89119 21.8107 8.83144C21.8997 8.73769 21.9352 8.64969 21.931 8.61944C21.9257 8.58019 21.8187 8.52119 21.6067 8.52119V8.52119ZM22.4052 15.1344C22.347 15.1344 22.2899 15.1186 22.24 15.0886C22.1902 15.0587 22.1493 15.0157 22.1219 14.9644C22.0946 14.9131 22.0816 14.8552 22.0845 14.7971C22.0874 14.739 22.1061 14.6828 22.1385 14.6344C22.8225 13.6127 22.6972 12.5704 22.5762 11.5629C22.5245 11.1334 22.4712 10.6897 22.4852 10.2634C22.4992 9.82519 22.5547 9.46369 22.6087 9.11369C22.6725 8.69944 22.7327 8.30769 22.7077 7.84319C22.7059 7.75971 22.7366 7.67878 22.7934 7.61755C22.8501 7.55631 22.9285 7.51956 23.0119 7.51508C23.0953 7.5106 23.1771 7.53873 23.2401 7.59353C23.3031 7.64833 23.3423 7.72549 23.3495 7.80869C23.378 8.33969 23.3097 8.78269 23.2437 9.21144C23.1927 9.54219 23.14 9.88419 23.1272 10.2839C23.115 10.6612 23.1632 11.0619 23.2142 11.4859C23.3432 12.5577 23.489 13.7724 22.6725 14.9917C22.6105 15.0842 22.5087 15.1344 22.4052 15.1344Z" fill="white"/>
<path d="M0.708984 25.796C1.06793 25.7378 1.4311 25.7095 1.79473 25.7115C2.35348 25.7115 2.76323 25.8415 3.02323 26.0755C3.26373 26.2835 3.40673 26.602 3.40673 26.9923C3.40673 27.3888 3.28948 27.7008 3.06848 27.9283C2.76948 28.2468 2.28198 28.4093 1.72948 28.4093C1.56048 28.4093 1.40448 28.4028 1.27473 28.3703V30.1255H0.708984V25.796V25.796ZM1.27473 27.9085C1.39823 27.941 1.55423 27.954 1.74273 27.954C2.42498 27.954 2.84123 27.6225 2.84123 27.018C2.84123 26.4395 2.43173 26.16 1.80773 26.16C1.56073 26.16 1.37223 26.1795 1.27473 26.2055V27.9085V27.9085ZM6.83223 28.526C6.83223 29.6895 6.02598 30.1968 5.26548 30.1968C4.41398 30.1968 3.75748 29.5728 3.75748 28.578C3.75748 27.525 4.44648 26.9075 5.31748 26.9075C6.22123 26.9073 6.83223 27.564 6.83223 28.526V28.526ZM4.33623 28.5585C4.33623 29.2475 4.73273 29.7675 5.29173 29.7675C5.83773 29.7675 6.24698 29.254 6.24698 28.5455C6.24698 28.0125 5.98073 27.3365 5.30448 27.3365C4.62823 27.3365 4.33623 27.9605 4.33623 28.5585ZM7.47548 29.54C7.64448 29.6505 7.94348 29.7675 8.22948 29.7675C8.64548 29.7675 8.84048 29.5595 8.84048 29.2995C8.84048 29.0265 8.67823 28.877 8.25548 28.721C7.68998 28.5195 7.42348 28.2075 7.42348 27.8305C7.42348 27.3235 7.83298 26.9075 8.50898 26.9075C8.82748 26.9075 9.10723 26.9985 9.28273 27.1025L9.13973 27.5185C8.94628 27.3993 8.72347 27.3363 8.49623 27.3365C8.15823 27.3365 7.96973 27.5315 7.96973 27.7655C7.96973 28.0255 8.15848 28.1425 8.56798 28.2985C9.11398 28.5065 9.39349 28.7795 9.39349 29.2475C9.39349 29.8 8.96448 30.19 8.21698 30.19C7.87248 30.19 7.55398 30.1055 7.33298 29.9755L7.47548 29.54V29.54ZM10.8167 26.0753V26.9788H11.6355V27.4143H10.8167V29.1108C10.8167 29.5008 10.927 29.7218 11.2457 29.7218C11.3575 29.7234 11.4689 29.7103 11.5772 29.6828L11.6032 30.1118C11.493 30.1573 11.3172 30.1898 11.0965 30.1898C10.83 30.1898 10.6152 30.1053 10.4787 29.9493C10.3165 29.7803 10.2577 29.5008 10.2577 29.1303V27.4143H9.77024V26.9788H10.2577V26.2248L10.8167 26.0753V26.0753ZM14.9507 26.979C14.9375 27.2065 14.9247 27.46 14.9247 27.8435V29.67C14.9247 30.3915 14.7817 30.8335 14.4762 31.1068C14.1707 31.3928 13.7287 31.4838 13.3322 31.4838C12.9552 31.4838 12.5392 31.3928 12.2855 31.2238L12.4285 30.7883C12.6365 30.9183 12.9615 31.0353 13.3515 31.0353C13.9365 31.0353 14.3655 30.7298 14.3655 29.9368V29.5858H14.3525C14.177 29.8783 13.839 30.1123 13.3515 30.1123C12.5715 30.1123 12.0125 29.4493 12.0125 28.578C12.0125 27.512 12.708 26.9075 13.4295 26.9075C13.9757 26.9075 14.2747 27.1935 14.4112 27.4535H14.4242L14.4502 26.979H14.9507V26.979ZM14.3592 28.2205C14.3592 28.123 14.3527 28.0385 14.3267 27.9605C14.2227 27.629 13.9432 27.356 13.5272 27.356C12.981 27.356 12.5912 27.8175 12.5912 28.5455C12.5912 29.163 12.9032 29.6765 13.5207 29.6765C13.8717 29.6765 14.1902 29.4555 14.3137 29.0915C14.3462 28.994 14.3595 28.8835 14.3595 28.786V28.2205H14.3592ZM15.8345 27.9605C15.8345 27.59 15.828 27.2715 15.8085 26.979H16.3092L16.3285 27.5965H16.3545C16.4975 27.174 16.842 26.9075 17.2255 26.9075C17.2905 26.9075 17.3357 26.914 17.3877 26.927V27.4665C17.3238 27.4526 17.2584 27.4461 17.193 27.447C16.79 27.447 16.5037 27.7525 16.426 28.1815C16.4099 28.2695 16.4012 28.3586 16.4 28.448V30.125H15.8345V27.9605ZM18.2137 28.656C18.2267 29.4295 18.7205 29.748 19.2925 29.748C19.7022 29.748 19.949 29.6765 20.1635 29.5855L20.261 29.995C20.0595 30.086 19.715 30.19 19.2145 30.19C18.246 30.19 17.6675 29.553 17.6675 28.604C17.6675 27.655 18.2265 26.9073 19.143 26.9073C20.17 26.9073 20.443 27.8108 20.443 28.3893C20.443 28.5063 20.43 28.5973 20.4235 28.6558H18.2137V28.656ZM19.8907 28.2465C19.897 27.8825 19.741 27.317 19.0977 27.317C18.5192 27.317 18.2657 27.85 18.22 28.2465H19.8907V28.2465Z" fill="black"/>
<path d="M21.093 29.4361C21.3994 29.6202 21.7495 29.7189 22.107 29.7221C22.6855 29.7221 23.0235 29.4166 23.0235 28.9746C23.0235 28.5651 22.7895 28.3311 22.198 28.1036C21.483 27.8501 21.041 27.4796 21.041 26.8621C21.041 26.1796 21.6065 25.6726 22.458 25.6726C22.9065 25.6726 23.2315 25.7766 23.4265 25.8871L23.2705 26.3486C23.0147 26.2111 22.7288 26.1396 22.4385 26.1406C21.8405 26.1406 21.613 26.4981 21.613 26.7971C21.613 27.2066 21.8792 27.4081 22.484 27.6421C23.225 27.9284 23.602 28.2856 23.602 28.9291C23.602 29.6051 23.1015 30.1901 22.068 30.1901C21.6455 30.1901 21.184 30.0666 20.9497 29.9106L21.093 29.4361V29.4361ZM27.9895 30.7686C27.4244 30.6203 26.865 30.4512 26.3125 30.2616C26.2215 30.2291 26.1305 30.1966 26.046 30.1966C25.006 30.1576 24.1155 29.3906 24.1155 27.9801C24.1155 26.5761 24.9735 25.6726 26.1565 25.6726C27.346 25.6726 28.1197 26.5956 28.1197 27.8891C28.1197 29.0136 27.5997 29.7351 26.8717 29.9886V30.0146C27.3072 30.1251 27.7817 30.2291 28.1522 30.2941L27.9895 30.7686V30.7686ZM27.5215 27.9151C27.5215 27.0376 27.0667 26.1339 26.137 26.1339C25.1815 26.1339 24.7135 27.0179 24.72 27.9671C24.7135 28.8966 25.227 29.7351 26.111 29.7351C27.0147 29.7351 27.5215 28.9161 27.5215 27.9151V27.9151ZM28.8537 25.7441H29.4195V29.6506H31.2915V30.1251H28.8537V25.7441Z" fill="#336791"/>
</svg>
