<svg width="33" height="32" viewBox="0 0 33 32" fill="none" xmlns="http://www.w3.org/2000/svg">
<path d="M16.685 18.8499C18.259 18.8499 19.535 17.5739 19.535 15.9999C19.535 14.4259 18.259 13.1499 16.685 13.1499C15.1109 13.1499 13.835 14.4259 13.835 15.9999C13.835 17.5739 15.1109 18.8499 16.685 18.8499Z" fill="#61DAFB"/>
<path d="M27.5099 11.2999C26.9599 11.0999 26.3849 10.8999 25.7849 10.7249C25.9349 10.1249 26.0599 9.5249 26.1599 8.9499C26.6849 5.6499 26.1099 3.3249 24.5099 2.4249C24.0349 2.1499 23.5099 2.0249 22.9099 2.0249C21.1599 2.0249 18.9349 3.3249 16.6849 5.4999C14.4349 3.3249 12.2099 2.0249 10.4599 2.0249C9.85991 2.0249 9.33491 2.1499 8.85991 2.4249C7.25991 3.3499 6.68491 5.6749 7.20991 8.9499C7.30991 9.5249 7.43491 10.1249 7.58491 10.7249C6.98491 10.8999 6.40991 11.0749 5.85991 11.2999C2.73491 12.4999 1.03491 14.1499 1.03491 15.9999C1.03491 17.8499 2.75991 19.4999 5.85991 20.6999C6.40991 20.8999 6.98491 21.0999 7.58491 21.2749C7.43491 21.8749 7.30991 22.4749 7.20991 23.0499C6.68491 26.3499 7.25991 28.6749 8.85991 29.5749C9.33491 29.8499 9.85991 29.9749 10.4599 29.9749C12.2349 29.9749 14.4599 28.6749 16.6849 26.4999C18.9349 28.6749 21.1599 29.9749 22.9099 29.9749C23.5099 29.9749 24.0349 29.8499 24.5099 29.5749C26.1099 28.6499 26.6849 26.3249 26.1599 23.0499C26.0599 22.4749 25.9349 21.8749 25.7849 21.2749C26.3849 21.0999 26.9599 20.9249 27.5099 20.6999C30.6349 19.4999 32.3349 17.8499 32.3349 15.9999C32.3349 14.1499 30.6349 12.4999 27.5099 11.2999V11.2999ZM23.8099 3.6749C24.8349 4.2749 25.1849 6.1249 24.7599 8.7499C24.6849 9.2749 24.5599 9.8249 24.4099 10.3999C23.1099 10.0999 21.7349 9.8999 20.2849 9.7749C19.4349 8.5749 18.5599 7.4999 17.6849 6.5249C19.5349 4.6999 21.4099 3.4499 22.9349 3.4499C23.2599 3.4499 23.5599 3.5249 23.8099 3.6749V3.6749ZM21.0099 18.4999C20.5599 19.2999 20.0349 20.0999 19.4849 20.8999C18.5599 20.9749 17.6349 20.9999 16.6849 20.9999C15.7099 20.9999 14.7849 20.9749 13.8849 20.8999C13.3349 20.0999 12.8349 19.2999 12.3849 18.4999C11.9099 17.6749 11.4599 16.8249 11.0599 15.9999C11.4599 15.1749 11.9099 14.3249 12.3849 13.4999C12.8349 12.6999 13.3599 11.8999 13.9099 11.0999C14.8349 11.0249 15.7599 10.9999 16.7099 10.9999C17.6849 10.9999 18.6099 11.0249 19.5099 11.0999C20.0599 11.8999 20.5599 12.6999 21.0099 13.4999C21.4849 14.3249 21.9349 15.1749 22.3349 15.9999C21.9099 16.8249 21.4849 17.6499 21.0099 18.4999ZM23.0849 17.6749C23.4599 18.5499 23.7599 19.3999 24.0349 20.2499C23.1849 20.4499 22.2849 20.5999 21.3349 20.7249C21.6349 20.2499 21.9599 19.7499 22.2349 19.2249C22.5349 18.6999 22.8099 18.1749 23.0849 17.6749ZM16.6849 24.4499C16.0849 23.7999 15.5099 23.0999 14.9599 22.3749C15.5349 22.3999 16.1099 22.4249 16.6849 22.4249C17.2599 22.4249 17.8349 22.3999 18.4099 22.3749C17.8599 23.0999 17.2849 23.7999 16.6849 24.4499ZM12.0349 20.6999C11.0849 20.5749 10.1849 20.4249 9.33491 20.2249C9.60991 19.3999 9.90991 18.5249 10.2849 17.6499C10.5599 18.1499 10.8349 18.6749 11.1349 19.1749C11.4349 19.7249 11.7349 20.1999 12.0349 20.6999V20.6999ZM10.2849 14.3249C9.90991 13.4499 9.60991 12.5999 9.33491 11.7499C10.1849 11.5499 11.0849 11.3999 12.0349 11.2749C11.7349 11.7499 11.4099 12.2499 11.1349 12.7749C10.8349 13.2999 10.5599 13.8249 10.2849 14.3249V14.3249ZM16.6849 7.5499C17.2849 8.1999 17.8599 8.8999 18.4099 9.6249C17.8349 9.5999 17.2599 9.5749 16.6849 9.5749C16.1099 9.5749 15.5349 9.5999 14.9599 9.6249C15.5099 8.8999 16.0849 8.1999 16.6849 7.5499ZM22.2349 12.7999L21.3349 11.2999C22.2849 11.4249 23.1849 11.5749 24.0349 11.7749C23.7599 12.5999 23.4599 13.4749 23.0849 14.3499C22.8099 13.8249 22.5349 13.2999 22.2349 12.7999ZM8.60991 8.7499C8.18491 6.1249 8.53491 4.2749 9.55991 3.6749C9.80991 3.5249 10.1099 3.4499 10.4349 3.4499C11.9349 3.4499 13.8099 4.6749 15.6849 6.5249C14.8099 7.4749 13.9349 8.5749 13.0849 9.7749C11.6349 9.8999 10.2599 10.1249 8.95991 10.3999C8.80991 9.8249 8.70991 9.2749 8.60991 8.7499V8.7499ZM2.43491 15.9999C2.43491 14.8249 3.85991 13.5749 6.35991 12.6499C6.85991 12.4499 7.40991 12.2749 7.95991 12.1249C8.35991 13.3749 8.85991 14.6999 9.45991 16.0249C8.85991 17.3499 8.33491 18.6499 7.95991 19.8999C4.50991 18.8999 2.43491 17.3999 2.43491 15.9999ZM9.55991 28.3249C8.53491 27.7249 8.18491 25.8749 8.60991 23.2499C8.68491 22.7249 8.80991 22.1749 8.95991 21.5999C10.2599 21.8999 11.6349 22.0999 13.0849 22.2249C13.9349 23.4249 14.8099 24.4999 15.6849 25.4749C13.8349 27.2999 11.9599 28.5499 10.4349 28.5499C10.1099 28.5499 9.80991 28.4749 9.55991 28.3249ZM24.7599 23.2499C25.1849 25.8749 24.8349 27.7249 23.8099 28.3249C23.5599 28.4749 23.2599 28.5499 22.9349 28.5499C21.4349 28.5499 19.5599 27.3249 17.6849 25.4749C18.5599 24.5249 19.4349 23.4249 20.2849 22.2249C21.7349 22.0999 23.1099 21.8749 24.4099 21.5999C24.5599 22.1749 24.6599 22.7249 24.7599 23.2499V23.2499ZM27.0099 19.3499C26.5099 19.5499 25.9599 19.7249 25.4099 19.8749C25.0099 18.6249 24.5099 17.2999 23.9099 15.9749C24.5099 14.6499 25.0349 13.3499 25.4099 12.0999C28.8599 13.0999 30.9349 14.5999 30.9349 15.9999C30.9349 17.1749 29.4849 18.4249 27.0099 19.3499Z" fill="#61DAFB"/>
</svg>
