<svg width="32" height="32" viewBox="0 0 32 32" fill="none" xmlns="http://www.w3.org/2000/svg">
<path d="M5.3499 24.4001C5.3499 24.8501 4.9749 25.2751 4.4749 25.2751C4.0999 25.2751 3.7749 25.3751 3.4749 25.6001C3.1499 25.8001 2.9249 26.0751 2.7249 26.4001C2.3249 26.9251 2.1249 27.5501 2.0499 27.7751V30.9001C2.0499 31.3751 1.6499 31.7751 1.1499 31.7751C0.674902 31.7751 0.274902 31.3751 0.274902 30.9001V24.4001C0.274902 23.9251 0.674902 23.5501 1.1499 23.5501C1.6499 23.5501 2.0499 23.9251 2.0499 24.4001V24.5251C2.1499 24.4001 2.2749 24.2751 2.3999 24.2001C2.9499 23.8501 3.6499 23.5501 4.4749 23.5501C4.9749 23.5501 5.3499 23.9251 5.3499 24.4001V24.4001ZM4.8749 27.6501C4.8999 25.4001 6.6249 23.5251 8.8999 23.5251C11.0499 23.5251 12.7249 25.1251 12.8749 27.3501V27.4251C12.8749 27.4501 12.8749 27.5501 12.8499 27.5751C12.7999 27.9751 12.4499 28.2251 11.9999 28.2251H6.7499C6.8249 28.6001 7.0249 29.0251 7.2999 29.3001C7.6499 29.7001 8.2999 30.0001 8.8749 30.0501C9.4749 30.1001 10.1749 29.9501 10.5749 29.6501C10.9249 29.3001 11.5999 29.3251 11.7999 29.6001C12.0249 29.8251 12.1749 30.3251 11.7999 30.6751C10.9999 31.4251 10.0249 31.7501 8.8499 31.7501C6.6249 31.7501 4.8749 29.8751 4.8749 27.6501V27.6501ZM6.6499 26.8501H11.2999C11.1249 26.2001 10.2999 25.2251 8.8749 25.1001C7.4749 25.1501 6.7999 26.1751 6.6499 26.8501ZM21.2249 30.8751C21.2249 31.3501 20.8249 31.7751 20.3249 31.7751C19.8749 31.7751 19.5249 31.4501 19.4499 31.0751C18.8249 31.5001 18.0249 31.7751 17.1999 31.7751C14.9749 31.7751 13.1999 29.9001 13.1999 27.6751C13.1999 25.4251 14.9749 23.5501 17.1999 23.5501C17.9999 23.5501 18.7999 23.8251 19.3999 24.2501V21.1251C19.3999 20.6501 19.7999 20.2251 20.2999 20.2251C20.7999 20.2251 21.1999 20.6251 21.1999 21.1251V27.6751L21.2249 30.8751V30.8751ZM17.2249 25.3251C16.6249 25.3251 16.0999 25.5751 15.6749 26.0001C15.2749 26.4001 15.0249 27.0001 15.0249 27.6501C15.0249 28.2751 15.2749 28.8751 15.6749 29.2751C16.0749 29.7001 16.6249 29.9501 17.2249 29.9501C17.8249 29.9501 18.3499 29.7001 18.7749 29.2751C19.1749 28.8751 19.4249 28.2751 19.4249 27.6501C19.4249 27.0001 19.1749 26.4001 18.7749 26.0001C18.3749 25.5751 17.8499 25.3251 17.2249 25.3251ZM24.3749 21.4751C24.3749 21.9751 23.9999 22.3751 23.4749 22.3751C22.9749 22.3751 22.5749 21.9751 22.5749 21.4751V21.1251C22.5749 20.6251 22.9749 20.2251 23.4749 20.2251C23.9749 20.2251 24.3749 20.6251 24.3749 21.1251V21.4751ZM24.3749 24.4501V30.8751C24.3749 31.3751 23.9999 31.7751 23.4749 31.7751C22.9749 31.7751 22.5749 31.3751 22.5749 30.8751V24.4501C22.5749 23.9251 22.9749 23.5501 23.4749 23.5501C23.9999 23.5501 24.3749 23.9251 24.3749 24.4501ZM25.4999 29.4001C25.7999 29.0001 26.3749 28.9501 26.7249 29.2751C27.1499 29.6251 27.8999 30.0251 28.5249 30.0001C28.9749 30.0001 29.3749 29.8501 29.6499 29.6751C29.8749 29.4751 29.9499 29.3251 29.9499 29.1751C29.9499 29.1001 29.9249 29.0501 29.8999 29.0001C29.8749 28.9501 29.8249 28.8751 29.6749 28.8001C29.4499 28.6251 28.9499 28.4501 28.3499 28.3501H28.3249C27.8249 28.2501 27.3249 28.1251 26.8999 27.9251C26.4499 27.7001 26.0499 27.4251 25.7749 26.9751C25.5999 26.6751 25.4999 26.3251 25.4999 25.9501C25.4999 25.2001 25.9249 24.5501 26.4749 24.1501C27.0499 23.7501 27.7499 23.5501 28.4999 23.5501C29.6249 23.5501 30.4499 24.1001 30.9749 24.4501C31.3749 24.7251 31.4749 25.2501 31.2499 25.6751C30.9749 26.0751 30.4499 26.1751 30.0249 25.9001C29.4999 25.5501 29.0249 25.3001 28.4999 25.3001C28.0999 25.3001 27.7249 25.4251 27.4999 25.6001C27.2749 25.7501 27.2249 25.9001 27.2249 25.9751C27.2249 26.0501 27.2249 26.0501 27.2499 26.1001C27.2749 26.1251 27.3249 26.2001 27.4249 26.2751C27.6499 26.4251 28.0749 26.5751 28.6249 26.6751L28.6499 26.7001H28.6749C29.2249 26.8001 29.7249 26.9501 30.1999 27.1751C30.6499 27.3751 31.0999 27.6751 31.3749 28.1501C31.5749 28.4751 31.6999 28.8501 31.6999 29.2251C31.6999 30.0251 31.2499 30.7001 30.6749 31.1251C30.0749 31.5251 29.3499 31.7751 28.5249 31.7751C27.2499 31.7501 26.2499 31.1751 25.5999 30.6501C25.2499 30.3251 25.1999 29.7751 25.4999 29.4001Z" fill="#636466"/>
<path d="M26.7251 15.6749C25.4751 16.3249 19.0501 18.9749 17.6751 19.6749C16.3001 20.3999 15.5501 20.3749 14.4751 19.8749C13.3751 19.3499 6.5501 16.5999 5.3001 15.9999C4.6751 15.6999 4.3501 15.4499 4.3501 15.2249V12.8749C4.3501 12.8749 13.2501 10.9249 14.7001 10.4249C16.1501 9.89991 16.6501 9.89991 17.8501 10.3499C19.0751 10.7999 26.4001 12.1249 27.6001 12.5499V14.8749C27.6251 15.0999 27.3501 15.3499 26.7251 15.6749V15.6749Z" fill="#A41E11"/>
<path d="M26.7251 13.325C25.4751 13.975 19.0501 16.625 17.6751 17.325C16.3001 18.05 15.5501 18.025 14.4751 17.525C13.3751 17 6.55007 14.25 5.30007 13.65C4.07507 13.05 4.05007 12.65 5.25007 12.175C6.45007 11.7 13.2751 9.025 14.7001 8.525C16.1501 8 16.6501 8 17.8501 8.45C19.0751 8.9 25.4751 11.45 26.6751 11.875C27.9251 12.325 27.9751 12.675 26.7251 13.325V13.325Z" fill="#D82C20"/>
<path d="M26.7251 11.85C25.4751 12.5 19.0501 15.15 17.6751 15.85C16.3001 16.575 15.5501 16.55 14.4751 16.05C13.3751 15.525 6.5501 12.75 5.3001 12.175C4.6751 11.875 4.3501 11.625 4.3501 11.4V9.04996C4.3501 9.04996 13.2501 7.09996 14.7001 6.59996C16.1501 6.07496 16.6501 6.07496 17.8501 6.52496C19.0751 6.97496 26.4001 8.29996 27.6001 8.72496V11.05C27.6251 11.275 27.3501 11.525 26.7251 11.85V11.85Z" fill="#A41E11"/>
<path d="M26.725 9.50005C25.475 10.1501 19.05 12.8001 17.675 13.5001C16.3 14.2251 15.55 14.2001 14.475 13.7001C13.4 13.1751 6.54997 10.4251 5.32497 9.82505C4.09997 9.22505 4.07497 8.82505 5.27497 8.35005C6.47497 7.87505 13.3 5.20005 14.725 4.70005C16.175 4.17505 16.675 4.17505 17.875 4.62505C19.1 5.07505 25.5 7.62505 26.7 8.05005C27.925 8.47505 27.975 8.85005 26.725 9.50005V9.50005Z" fill="#D82C20"/>
<path d="M26.725 7.8751C25.475 8.5251 19.05 11.1751 17.675 11.8751C16.3 12.6001 15.55 12.5751 14.475 12.0751C13.4 11.5501 6.55 8.8001 5.325 8.2001C4.7 7.9001 4.375 7.6501 4.375 7.4251V5.0751C4.375 5.0751 13.275 3.1251 14.725 2.6251C16.175 2.1001 16.675 2.1001 17.875 2.5501C19.1 3.0001 26.425 4.3251 27.625 4.7501V7.0751C27.625 7.2751 27.35 7.5501 26.725 7.8751V7.8751Z" fill="#A41E11"/>
<path d="M26.725 5.52496C25.475 6.17496 19.05 8.82495 17.675 9.52495C16.3 10.25 15.55 10.225 14.475 9.72496C13.4 9.19996 6.54997 6.44996 5.32497 5.84996C4.09997 5.24996 4.07497 4.84996 5.27497 4.37496C6.47497 3.89996 13.3 1.22496 14.725 0.724955C16.175 0.199955 16.675 0.199955 17.875 0.649955C19.1 1.09996 25.5 3.64996 26.7 4.07496C27.925 4.49996 27.975 4.87496 26.725 5.52496V5.52496Z" fill="#D82C20"/>
<path d="M19.05 3.25005L17.025 3.45005L16.575 4.55005L15.85 3.32505L13.525 3.12505L15.25 2.50005L14.75 1.55005L16.375 2.17505L17.9 1.67505L17.475 2.67505L19.05 3.25005ZM16.45 8.52505L12.7 6.95005L18.1 6.12505L16.45 8.52505Z" fill="white"/>
<path d="M11.25 6.1001C12.8378 6.1001 14.125 5.59642 14.125 4.9751C14.125 4.35378 12.8378 3.8501 11.25 3.8501C9.66218 3.8501 8.375 4.35378 8.375 4.9751C8.375 5.59642 9.66218 6.1001 11.25 6.1001Z" fill="white"/>
<path d="M21.425 3.55005L24.625 4.80005L21.425 6.07505V3.55005Z" fill="#7A0C00"/>
<path d="M17.8999 4.95005L21.4249 3.55005V6.07505L21.0999 6.20005L17.8999 4.95005Z" fill="#AD2115"/>
</svg>
