<svg width="32" height="32" viewBox="0 0 32 32" fill="none" xmlns="http://www.w3.org/2000/svg">
<path d="M5.02375 21.0238C2.25425 21.0238 0 18.7696 0 16.0001C0 13.2306 2.25425 10.9763 5.02375 10.9763C7.79325 10.9763 10.0475 13.2306 10.0475 16.0001C10.0475 18.7696 7.79325 21.0238 5.02375 21.0238ZM5.02375 20.1848C7.34 20.1848 9.20875 18.3163 9.20875 16.0001C9.20875 13.6838 7.34 11.8151 5.02375 11.8151C4.47393 11.8142 3.92934 11.9219 3.42121 12.1319C2.91307 12.3419 2.45138 12.6501 2.0626 13.0389C1.67382 13.4277 1.36558 13.8894 1.15557 14.3975C0.945558 14.9057 0.837894 15.4502 0.83875 16.0001C0.83875 18.3163 2.7075 20.1851 5.02375 20.1851V20.1848Z" fill="#010101"/>
<path fill-rule="evenodd" clip-rule="evenodd" d="M3.6807 15.7757C4.7807 14.877 5.85695 13.9472 6.98095 13.0747C6.39145 13.9807 5.78495 14.8747 5.19545 15.7805C4.6897 15.783 4.18395 15.783 3.6807 15.7757V15.7757ZM4.6107 16.2767C5.1187 16.2767 5.62445 16.2767 6.1302 16.284C5.0227 17.178 3.9517 18.115 2.8252 18.985C3.4147 18.079 4.0212 17.1825 4.6107 16.2767Z" fill="#010101"/>
<path fill-rule="evenodd" clip-rule="evenodd" d="M12.2546 17.6371C12.4609 17.7518 12.7646 17.8321 13.1029 17.8321C13.8424 17.8321 14.2379 17.4651 14.2379 16.9608C14.2321 16.5481 13.9971 16.2901 13.4929 16.1066C13.1374 15.9806 13.0054 15.8946 13.0054 15.7168C13.0054 15.5451 13.1429 15.4246 13.3954 15.4246C13.6416 15.4246 13.8654 15.5163 13.9856 15.5851L14.1231 15.0863C13.9626 15.0003 13.6931 14.9201 13.3836 14.9201C12.7361 14.9201 12.3291 15.3041 12.3291 15.7971C12.3234 16.1238 12.5526 16.4221 13.0971 16.6111C13.4411 16.7316 13.5556 16.8288 13.5556 17.0181C13.5556 17.2016 13.4181 17.3276 13.1086 17.3276C12.8564 17.3276 12.5526 17.2243 12.3921 17.1271L12.2546 17.6371ZM15.8446 14.9201C15.0021 14.9201 14.4004 15.4818 14.4004 16.3988C14.4004 17.2931 15.0079 17.8376 15.7989 17.8376C16.5096 17.8376 17.2319 17.3791 17.2319 16.3531C17.2319 15.5048 16.6759 14.9201 15.8446 14.9201V14.9201ZM15.8276 15.4358C16.3091 15.4358 16.5039 15.9346 16.5039 16.3703C16.5039 16.9321 16.2231 17.3276 15.8219 17.3276C15.3919 17.3276 15.1284 16.9206 15.1284 16.3818C15.1284 15.9173 15.3289 15.4358 15.8276 15.4358ZM19.5266 17.1671C19.3891 17.2246 19.2171 17.2758 18.9706 17.2758C18.4891 17.2758 18.1166 16.9493 18.1166 16.3758C18.1109 15.8658 18.4316 15.4703 18.9706 15.4703C19.2229 15.4703 19.3891 15.5278 19.5036 15.5793L19.6299 15.0518C19.4694 14.9773 19.2056 14.9201 18.9476 14.9201C17.9676 14.9201 17.3944 15.5736 17.3944 16.4103C17.3944 17.2758 17.9619 17.8318 18.8331 17.8318C19.1826 17.8318 19.4751 17.7573 19.6241 17.6886L19.5266 17.1671ZM20.6119 13.7046H19.9069V17.7746H20.6119V16.8231L20.8526 16.5421L21.6551 17.7746H22.5206L21.3399 16.1238L22.3716 14.9831H21.5234L20.8469 15.8831C20.7724 15.9806 20.6921 16.1006 20.6234 16.2098H20.6119V13.7046ZM24.9129 16.5766C24.9244 16.5133 24.9359 16.4103 24.9359 16.2783C24.9359 15.6651 24.6379 14.9198 23.7321 14.9198C22.8379 14.9198 22.3679 15.6478 22.3679 16.4218C22.3679 17.2758 22.9011 17.8318 23.8066 17.8318C24.2079 17.8318 24.5404 17.7573 24.7811 17.6598L24.6779 17.1726C24.4659 17.2528 24.2309 17.2988 23.9041 17.2988C23.4571 17.2988 23.0616 17.0808 23.0441 16.5763L24.9129 16.5766ZM23.0444 16.0836C23.0729 15.7968 23.2564 15.4013 23.6919 15.4013C24.1619 15.4013 24.2769 15.8256 24.2709 16.0836H23.0444ZM25.3849 14.3523V14.9831H24.9836V15.5103H25.3849V16.8228C25.3849 17.1898 25.4536 17.4421 25.6026 17.6026C25.7346 17.7458 25.9524 17.8318 26.2101 17.8318C26.4339 17.8318 26.6174 17.8031 26.7204 17.7631L26.7091 17.2243C26.6459 17.2413 26.5541 17.2586 26.4341 17.2586C26.1644 17.2586 26.0729 17.0811 26.0729 16.7428V15.5103H26.7434V14.9828H26.0729V14.1863L25.3849 14.3523ZM27.3529 17.8373C27.6166 17.8373 27.7886 17.6423 27.7886 17.3848C27.7886 17.1151 27.6111 16.9318 27.3529 16.9318C27.1006 16.9318 26.9174 17.1208 26.9174 17.3846C26.9174 17.6426 27.0949 17.8373 27.3529 17.8373ZM28.8279 17.7743V14.9828H28.1171V17.7743H28.8279ZM28.4726 13.8193C28.2376 13.8193 28.0771 13.9853 28.0771 14.2031C28.0771 14.4153 28.2319 14.5816 28.4671 14.5816C28.7134 14.5816 28.8681 14.4153 28.8681 14.2031C28.8624 13.9856 28.7134 13.8191 28.4726 13.8191V13.8193ZM30.6126 14.9196C29.7701 14.9196 29.1681 15.4816 29.1681 16.3986C29.1681 17.2928 29.7756 17.8373 30.5669 17.8373C31.2776 17.8373 31.9999 17.3788 31.9999 16.3528C31.9999 15.5043 31.4439 14.9196 30.6126 14.9196V14.9196ZM30.5954 15.4356C31.0769 15.4356 31.2719 15.9343 31.2719 16.3698C31.2719 16.9316 30.9909 17.3273 30.5896 17.3273C30.1596 17.3273 29.8961 16.9203 29.8961 16.3813C29.8961 15.9171 30.0966 15.4356 30.5954 15.4356V15.4356Z" fill="black"/>
</svg>
