<svg width="26" height="32" viewBox="0 0 26 32" fill="none" xmlns="http://www.w3.org/2000/svg">
<path d="M23.9757 0.003175L22.1999 0.113875L22.3383 3.80651C22.3455 4.0107 22.11 4.12988 21.9495 4.00326L20.7603 3.06578L19.3515 4.13476C19.3152 4.16231 19.2718 4.17896 19.2264 4.18276C19.1811 4.18657 19.1355 4.17738 19.0952 4.15625C19.0548 4.13513 19.0213 4.10296 18.9985 4.06349C18.9758 4.02403 18.9648 3.9789 18.9667 3.93339L19.1252 0.305993L1.50882 1.4076C1.08976 1.43371 0.697518 1.6226 0.415827 1.93395C0.134136 2.2453 -0.0146824 2.65443 0.00114462 3.074L0.992561 29.4873C1.0077 29.8908 1.17405 30.2739 1.45859 30.5605C1.74313 30.8471 2.12504 31.0162 2.52848 31.0342L24.0037 31.9984C24.2208 32.008 24.4376 31.9736 24.641 31.8972C24.8444 31.8209 25.0303 31.7042 25.1875 31.5541C25.3447 31.404 25.4698 31.2236 25.5553 31.0238C25.6407 30.824 25.6848 30.6089 25.6847 30.3916V1.60896C25.6848 1.38919 25.6399 1.17173 25.5526 0.970014C25.4654 0.768303 25.3377 0.586626 25.1775 0.436213C25.0174 0.285716 24.8282 0.169641 24.6214 0.0951589C24.4147 0.0206771 24.195 -0.0106289 23.9757 0.003175V0.003175ZM13.327 5.44492C17.5156 5.44492 19.803 7.68536 19.803 11.9479C19.2369 12.3879 15.0206 12.6876 15.0206 12.0617C15.1095 9.67308 14.0402 9.56854 13.4461 9.56854C12.8816 9.56854 11.931 9.73857 11.931 11.0182C11.931 14.1743 20.0704 14.004 20.0704 20.3734C20.0704 23.9564 17.1591 25.9354 13.4461 25.9354C9.61403 25.9354 6.26556 24.3851 6.64363 19.0101C6.79209 18.379 11.6636 18.529 11.6636 19.0101C11.6046 21.228 12.1093 21.8803 13.3863 21.8803C14.3667 21.8803 14.8125 21.3402 14.8125 20.4302C14.8125 17.1886 6.79209 17.075 6.79209 11.1322C6.79209 7.72004 9.13912 5.44492 13.3272 5.44492H13.327Z" fill="#FF4785"/>
</svg>
