<svg width="32" height="32" viewBox="0 0 32 32" fill="none" xmlns="http://www.w3.org/2000/svg">
<path d="M5.76606 1.71134C5.73017 1.71266 5.69502 1.72197 5.66319 1.73859C5.63135 1.75521 5.60362 1.77873 5.58202 1.80742C5.56042 1.83611 5.54549 1.86925 5.53831 1.90445C5.53114 1.93964 5.53191 1.97598 5.54056 2.01084L10.7586 23.1308C10.7688 23.1719 10.7896 23.2096 10.819 23.2401C10.8483 23.2706 10.8852 23.2928 10.9259 23.3045C10.9665 23.3163 11.0096 23.3171 11.0507 23.307C11.0918 23.2969 11.1295 23.2761 11.1601 23.2468L26.8558 8.14709C26.8863 8.11771 26.9086 8.08081 26.9204 8.0401C26.9321 7.99939 26.933 7.9563 26.9228 7.91516C26.9127 7.87402 26.8919 7.83628 26.8625 7.80573C26.8331 7.77517 26.7963 7.75288 26.7556 7.74109L5.84156 1.72059C5.81704 1.71354 5.79155 1.71042 5.76606 1.71134V1.71134ZM6.10956 2.30009L26.2196 8.08934L11.1271 22.6086L6.10956 2.30009V2.30009Z" fill="black"/>
<path d="M16.2251 4.72147C16.164 4.72248 16.1056 4.7466 16.0616 4.78897L8.21732 12.3402C8.18678 12.3696 8.16452 12.4065 8.15277 12.4473C8.14102 12.488 8.1402 12.5311 8.15039 12.5722C8.16057 12.6134 8.1814 12.6511 8.21079 12.6817C8.24018 12.7122 8.2771 12.7345 8.31782 12.7462L18.7686 15.7582C18.8093 15.7699 18.8524 15.7707 18.8935 15.7605C18.9346 15.7503 18.9723 15.7295 19.0029 15.7001C19.0334 15.6707 19.0556 15.6338 19.0674 15.5931C19.0791 15.5524 19.08 15.5094 19.0698 15.4682L16.4633 4.90497C16.4502 4.85191 16.4195 4.80486 16.3761 4.77153C16.3328 4.7382 16.2795 4.72055 16.2248 4.72147H16.2251ZM16.0951 5.42697L18.5008 15.1787L8.85357 12.398L16.0951 5.42697V5.42697Z" fill="black"/>
<path d="M12.3318 8.45866C12.2961 8.46007 12.261 8.46943 12.2293 8.48605C12.1976 8.50267 12.1699 8.52614 12.1484 8.55477C12.1268 8.58339 12.1119 8.61644 12.1048 8.65154C12.0976 8.68663 12.0983 8.72288 12.1068 8.75766L13.4008 14.0047C13.411 14.0459 13.4318 14.0837 13.4612 14.1142C13.4906 14.1448 13.5275 14.1672 13.5683 14.1789C13.609 14.1907 13.6521 14.1916 13.6933 14.1814C13.7345 14.1712 13.7723 14.1503 13.8028 14.1209L17.6996 10.3657C17.7301 10.3362 17.7524 10.2993 17.7641 10.2586C17.7758 10.2178 17.7766 10.1747 17.7664 10.1336C17.7562 10.0924 17.7354 10.0547 17.7059 10.0242C17.6765 9.99364 17.6396 9.97139 17.5988 9.95966L12.4076 8.46791C12.383 8.46083 12.3574 8.45771 12.3318 8.45866V8.45866ZM12.6753 9.04716L17.0633 10.3079L13.7693 13.4824L12.6753 9.04741V9.04716Z" fill="black"/>
<path d="M11.041 3.21729C10.9798 3.21824 10.9213 3.24236 10.8773 3.28479L6.9805 7.04203C6.94997 7.07143 6.92771 7.10835 6.91596 7.14907C6.90421 7.1898 6.90338 7.2329 6.91357 7.27404C6.92375 7.31519 6.94459 7.35292 6.97398 7.38347C7.00337 7.41401 7.04028 7.43628 7.081 7.44804L12.2725 8.93979C12.3132 8.9515 12.3563 8.95231 12.3974 8.94211C12.4385 8.93191 12.4763 8.91107 12.5068 8.88169C12.5373 8.85231 12.5596 8.81541 12.5713 8.7747C12.5831 8.734 12.5839 8.69092 12.5737 8.64979L11.2795 3.40128C11.2664 3.34818 11.2357 3.30108 11.1924 3.2677C11.1491 3.23431 11.0957 3.21663 11.041 3.21754V3.21729ZM10.9105 3.92354L12.0048 8.36029L7.61625 7.09928L10.9105 3.92354V3.92354ZM21.425 6.20953C21.364 6.21061 21.3057 6.23473 21.2617 6.27703L17.3642 10.0325C17.3338 10.062 17.3117 10.0989 17.3001 10.1396C17.2885 10.1803 17.2878 10.2234 17.298 10.2645C17.3083 10.3055 17.3291 10.3432 17.3585 10.3737C17.3879 10.4041 17.4248 10.4263 17.4655 10.438L22.6565 11.9298C22.6972 11.9415 22.7403 11.9423 22.7814 11.9321C22.8225 11.9219 22.8603 11.9011 22.8908 11.8717C22.9213 11.8423 22.9436 11.8054 22.9553 11.7647C22.9671 11.724 22.9679 11.6809 22.9578 11.6398L21.6635 6.39304C21.6504 6.33997 21.6196 6.29293 21.5763 6.2596C21.533 6.22627 21.4797 6.20862 21.425 6.20953V6.20953ZM21.295 6.91554L22.3892 11.3505L18.001 10.0895L21.295 6.91554ZM13.631 13.711C13.57 13.7121 13.5117 13.7362 13.4677 13.7785L9.57025 17.5335C9.53972 17.563 9.51749 17.6 9.50579 17.6407C9.49409 17.6815 9.49333 17.7246 9.50359 17.7658C9.51386 17.8069 9.53478 17.8447 9.56425 17.8752C9.59373 17.9057 9.63072 17.9279 9.6715 17.9395L14.8645 19.4313C14.9052 19.4429 14.9483 19.4437 14.9893 19.4335C15.0304 19.4233 15.0681 19.4024 15.0986 19.373C15.1291 19.3437 15.1513 19.3068 15.1631 19.2661C15.1748 19.2254 15.1756 19.1824 15.1655 19.1413L13.8695 13.8945C13.8564 13.8415 13.8256 13.7944 13.7823 13.7611C13.739 13.7278 13.6857 13.7101 13.631 13.711V13.711ZM13.501 14.4168L14.5965 18.8518L10.207 17.5913L13.501 14.4168V14.4168Z" fill="black"/>
<path d="M6.4889 28.6751C6.3759 28.9353 6.1624 29.0486 5.9594 29.0486C5.70265 29.0486 5.46215 28.8618 5.46215 28.4866V27.1566H6.54115V26.8138H5.46215V25.8786L5.08165 25.8516V26.8138H4.67065V27.1566H5.08165V28.4866C5.08165 29.0808 5.51415 29.4236 5.9649 29.4236C6.2949 29.4236 6.6379 29.2461 6.8299 28.8296L6.4889 28.6751ZM9.6789 29.0593V28.0326C9.6789 27.3971 9.41315 26.7438 8.7544 26.7438C8.4384 26.7438 8.10815 26.8891 7.9844 27.1136V25.8786L7.6054 25.8516V29.3536H7.98415V27.5191C8.0974 27.2948 8.25715 27.1241 8.56765 27.1241C9.0164 27.1241 9.27315 27.4868 9.27315 27.9356V29.3536H9.70565C9.67865 29.2621 9.67865 29.1561 9.67865 29.0593H9.6789ZM12.6082 27.2301L12.8432 26.8621C12.5562 26.7491 12.4592 26.7438 12.3624 26.7438C12.1649 26.7438 11.7647 26.7761 11.5869 27.1136C11.5869 27.0543 11.6244 26.8621 11.6569 26.8136H10.7217V27.0973L11.2404 27.1243V29.0431H10.4542V29.3536H12.3892C12.3624 29.2621 12.3624 29.1561 12.3624 29.0593V29.0431H11.6084V27.5838C11.6947 27.2033 12.1757 26.9951 12.6084 27.2301H12.6082ZM14.5324 26.7438C13.8054 26.7438 13.4249 27.2193 13.4052 28.0378V28.2678C13.4052 28.9408 13.8862 29.4236 14.5539 29.4236C14.9292 29.4236 15.2757 29.2621 15.5214 28.9946L15.2972 28.7166C15.0082 28.9946 14.7677 29.0756 14.5432 29.0756C14.0944 29.0756 13.7787 28.7433 13.7787 28.2676L15.5917 28.2568L15.5969 28.0378C15.6294 27.2141 15.2542 26.7438 14.5324 26.7438V26.7438ZM15.1967 27.9248H13.7842C13.8054 27.4023 14.0029 27.0758 14.4947 27.0758C14.9867 27.0758 15.2217 27.3808 15.1967 27.9248ZM17.4727 26.7438C16.7457 26.7438 16.3652 27.2193 16.3437 28.0378V28.2678C16.3437 28.9408 16.8247 29.4236 17.4942 29.4236C17.6763 29.4229 17.8564 29.3845 18.0229 29.3106C18.1895 29.2368 18.3389 29.1292 18.4617 28.9946L18.2374 28.7166C17.9484 28.9946 17.7079 29.0756 17.4834 29.0756C17.0347 29.0756 16.7189 28.7433 16.7189 28.2676L18.5319 28.2568L18.5372 28.0378C18.5697 27.2141 18.1944 26.7438 17.4727 26.7438V26.7438ZM18.1352 27.9248H16.7242C16.7457 27.4023 16.9432 27.0758 17.4349 27.0758C17.9269 27.0758 18.1619 27.3808 18.1349 27.9248H18.1352ZM20.1132 29.1401C20.1132 29.3213 20.2157 29.4236 20.3969 29.4236C20.5727 29.4236 20.6752 29.3213 20.6752 29.1401C20.6752 28.9626 20.5727 28.8618 20.3969 28.8618C20.2209 28.8618 20.1132 28.9623 20.1132 29.1401ZM23.7857 26.3651C23.9617 26.3651 24.0642 26.2681 24.0642 26.0813C24.0642 25.9038 23.9617 25.8086 23.7859 25.8086C23.6099 25.8086 23.5077 25.9036 23.5077 26.0813C23.5077 26.2681 23.6044 26.3651 23.7859 26.3651H23.7857ZM23.1074 26.8138V27.0973L23.6314 27.1243V29.3536C23.6314 29.7323 23.3909 29.9156 23.1342 29.9156C22.9242 29.9156 22.7107 29.8023 22.5992 29.5456L22.2617 29.6948C22.4539 30.1183 22.7967 30.2888 23.1289 30.2888C23.5777 30.2888 24.0102 29.9513 24.0102 29.3538L24.0157 26.8138H23.1074ZM26.4264 27.8998C25.9399 27.8081 25.7154 27.6898 25.7154 27.4868C25.7154 27.2571 25.9937 27.0918 26.3832 27.0918C26.6614 27.0918 26.8482 27.1763 27.0564 27.3971L27.2969 27.1566C27.1102 26.8891 26.7692 26.7438 26.3402 26.7438C25.7532 26.7438 25.3564 27.0436 25.3564 27.4976C25.3564 27.8943 25.6614 28.1241 26.3939 28.2731C26.8374 28.3593 26.9719 28.4381 26.9719 28.6106C26.9719 28.8618 26.6669 29.0808 26.3187 29.0808C26.0207 29.0808 25.7532 28.9158 25.5072 28.6268L25.2507 28.8888C25.5127 29.2353 25.8592 29.4238 26.3132 29.4238C26.9289 29.4238 27.3292 29.0808 27.3292 28.6051C27.3292 28.2193 27.0672 28.0218 26.4264 27.8998V27.8998Z" fill="black"/>
</svg>
