<svg width="33" height="32" viewBox="0 0 33 32" fill="none" xmlns="http://www.w3.org/2000/svg">
<path d="M0.515625 15.9775V31.6025H32.7422V0.352539H0.515625V15.9775ZM26.4851 14.7275C27.2569 14.9012 27.9585 15.2927 28.5012 15.8525C28.7999 16.1542 29.0597 16.49 29.2746 16.8525C29.2746 16.8925 27.8824 17.805 27.0342 18.315C27.0033 18.335 26.8795 18.205 26.7429 18.0075C26.5881 17.7485 26.368 17.5316 26.1034 17.3773C25.8388 17.223 25.5381 17.1362 25.2295 17.125C24.2524 17.06 23.6234 17.5575 23.6285 18.375C23.6204 18.5786 23.6685 18.7805 23.7677 18.96C23.9817 19.3925 24.3813 19.65 25.6343 20.175C27.9417 21.1375 28.9291 21.7725 29.5427 22.675C30.2285 23.675 30.3806 25.29 29.9166 26.485C29.4009 27.785 28.1377 28.6675 26.351 28.96C25.535 29.0507 24.7105 29.0423 23.8966 28.935C22.6545 28.7396 21.5087 28.1662 20.625 27.2975C20.3285 26.98 19.751 26.1525 19.7871 26.0925C19.8812 26.0248 19.9803 25.9638 20.0836 25.91L21.2695 25.25L22.1951 24.73L22.3884 25.0075C22.7148 25.4602 23.13 25.8459 23.6105 26.1425C24.6417 26.6675 26.0494 26.595 26.7455 25.9875C26.9792 25.7649 27.125 25.4699 27.1575 25.1538C27.19 24.8377 27.1071 24.5205 26.9234 24.2575C26.6655 23.91 26.1499 23.6175 24.7087 23.0075C23.0459 22.3125 22.3291 21.8825 21.6743 21.1975C21.2655 20.7455 20.9637 20.2122 20.79 19.635C20.6605 18.9757 20.6413 18.3003 20.7333 17.635C21.0762 16.0775 22.2802 14.99 24.0384 14.6675C24.8527 14.5698 25.6775 14.5918 26.4851 14.7325V14.7275ZM18.9209 16.0375V17.3175H14.7366V28.875H11.7691V17.315H7.57453V16.065C7.56327 15.6347 7.57532 15.2041 7.61063 14.775C7.62609 14.755 10.1888 14.745 13.2825 14.75H18.9054L18.9209 16.0375Z" fill="#007ACC"/>
</svg>
