<svg width="32" height="32" viewBox="0 0 32 32" fill="none" xmlns="http://www.w3.org/2000/svg">
<path d="M29.3225 24.525L16.56 31.75V26.1225L24.5 21.75L29.3225 24.525V24.525ZM30.1975 23.735V8.6375L25.5275 11.3375V21.04L30.195 23.7325L30.1975 23.735ZM2.67749 24.525L15.4275 31.745V26.1225L7.48499 21.75L2.67749 24.525ZM1.80249 23.735V8.6375L6.47249 11.3375V21.04L1.80249 23.735ZM2.34999 7.66L15.44 0.25V5.69L7.05249 10.3025L6.98499 10.34L2.34999 7.66ZM29.645 7.66L16.56 0.25V5.69L24.9475 10.3L25.015 10.3375L29.65 7.66H29.645Z" fill="#8ED6FB"/>
<path d="M15.44 24.8425L7.59253 20.525V11.98L15.44 16.5V24.8425ZM16.56 24.8425L24.4075 20.53V11.98L16.56 16.5V24.8425ZM8.12503 11L16 6.66504L23.875 11L16 15.54L8.12503 11Z" fill="#1C78C0"/>
</svg>
